{
.appVersion = "895";
copyright = "Copyright 2016 The Montserrat and Sector Project Authors";
customParameters = (
{
name = fsType;
value = (
);
},
{
name = license;
value = "This Font Software is licensed under the SIL Open Font License Version 1.1.";
},
{
name = licenseURL;
value = "http://scripts.sil.org/OFL";
}
);
date = "2016-04-14 23:39:46 +0000";
designer = "Montserrat by Julieta Ulanovsky; Sector Gurmukhi by Gunnar Vilhjalmsson";
designerURL = "Montserrat http://www.zkysky.com.ar; Sector Gurmukhi http://universalthirst.com";
familyName = Sector;
fontMaster = (
{
alignmentZones = (
"{850, 18}",
"{689, 20}",
"{286, -5}",
"{-112, -18}"
);
ascender = 871;
capHeight = 689;
descender = -196;
id = "137514A2-B611-49B0-92C3-D60BB464318D";
weightValue = 125;
xHeight = 689;
}
);
glyphs = (
{
glyphname = A;
layers = (
{
anchors = (
{
name = ogonek;
position = "{774, 10}";
},
{
name = top;
position = "{374, 700}";
}
);
layerId = "137514A2-B611-49B0-92C3-D60BB464318D";
paths = (
{
closed = 1;
nodes = (
"307 700 LINE",
"-1 0 LINE",
"139 0 LINE",
"372 557 LINE",
"604 0 LINE",
"748 0 LINE",
"445 700 LINE"
);
},
{
closed = 1;
nodes = (
"160 263 LINE",
"160 148 LINE SMOOTH",
"576 148 LINE",
"576 263 LINE"
);
}
);
width = 747;
}
);
leftKerningGroup = A;
rightKerningGroup = A;
unicode = 0041;
},
{
glyphname = Aogonek;
layers = (
{
layerId = "137514A2-B611-49B0-92C3-D60BB464318D";
paths = (
{
closed = 1;
nodes = (
"307 700 LINE",
"0 0 LINE",
"139 0 LINE",
"203 148 LINE",
"542 148 LINE",
"605 0 LINE",
"645 0 LINE",
"613 -45 OFFCURVE",
"594 -84 OFFCURVE",
"594 -122 CURVE SMOOTH",
"594 -180 OFFCURVE",
"637 -202 OFFCURVE",
"676 -202 CURVE SMOOTH",
"714 -202 OFFCURVE",
"751 -180 OFFCURVE",
"774 -141 CURVE",
"738 -98 LINE",
"724 -117 OFFCURVE",
"708 -130 OFFCURVE",
"691 -130 CURVE SMOOTH",
"674 -130 OFFCURVE",
"663 -119 OFFCURVE",
"663 -101 CURVE SMOOTH",
"663 -79 OFFCURVE",
"678 -45 OFFCURVE",
"711 0 CURVE",
"749 0 LINE",
"446 700 LINE"
);
},
{
closed = 1;
nodes = (
"498 263 LINE",
"247 263 LINE",
"372 557 LINE"
);
}
);
width = 747;
}
);
leftKerningGroup = A;
rightKerningGroup = A;
unicode = 0104;
},
{
glyphname = Aring;
layers = (
{
components = (
{
name = A;
}
);
layerId = "137514A2-B611-49B0-92C3-D60BB464318D";
paths = (
{
closed = 1;
nodes = (
"307 895 OFFCURVE",
"252 840 OFFCURVE",
"252 772 CURVE SMOOTH",
"252 704 OFFCURVE",
"307 649 OFFCURVE",
"376 649 CURVE SMOOTH",
"444 649 OFFCURVE",
"500 704 OFFCURVE",
"500 772 CURVE SMOOTH",
"500 840 OFFCURVE",
"444 895 OFFCURVE",
"376 895 CURVE SMOOTH"
);
},
{
closed = 1;
nodes = (
"412 834 OFFCURVE",
"442 806 OFFCURVE",
"442 772 CURVE SMOOTH",
"442 738 OFFCURVE",
"412 711 OFFCURVE",
"376 711 CURVE SMOOTH",
"340 711 OFFCURVE",
"311 738 OFFCURVE",
"311 772 CURVE SMOOTH",
"311 806 OFFCURVE",
"340 834 OFFCURVE",
"376 834 CURVE SMOOTH"
);
}
);
width = 747;
}
);
leftKerningGroup = A;
leftMetricsKey = A;
rightKerningGroup = A;
rightMetricsKey = A;
unicode = 00C5;
},
{
glyphname = AE;
layers = (
{
anchors = (
{
name = bottom;
position = "{739, 0}";
},
{
name = ogonek;
position = "{1011, 10}";
},
{
name = top;
position = "{630, 700}";
}
);
layerId = "137514A2-B611-49B0-92C3-D60BB464318D";
paths = (
{
closed = 1;
nodes = (
"404 700 LINE",
"-1 0 LINE",
"140 0 LINE",
"468 590 LINE",
"759 590 LINE",
"758 700 LINE"
);
},
{
closed = 1;
nodes = (
"193 269 LINE",
"190 164 LINE",
"559 164 LINE",
"562 269 LINE"
);
},
{
closed = 1;
nodes = (
"491 700 LINE",
"491 0 LINE",
"1015 0 LINE",
"1015 117 LINE",
"624 117 LINE",
"624 293 LINE",
"965 293 LINE",
"965 410 LINE",
"624 410 LINE",
"624 583 LINE",
"1003 583 LINE",
"1003 700 LINE"
);
}
);
width = 1065;
}
);
leftKerningGroup = A;
leftMetricsKey = A;
rightKerningGroup = E;
rightMetricsKey = E;
unicode = 00C6;
},
{
glyphname = B;
layers = (
{
layerId = "137514A2-B611-49B0-92C3-D60BB464318D";
paths = (
{
closed = 1;
nodes = (
"86 700 LINE",
"86 0 LINE",
"406 0 LINE SMOOTH",
"566 0 OFFCURVE",
"665 73 OFFCURVE",
"665 193 CURVE SMOOTH",
"665 286 OFFCURVE",
"608 353 OFFCURVE",
"516 370 CURVE",
"592 389 OFFCURVE",
"638 448 OFFCURVE",
"638 525 CURVE SMOOTH",
"638 633 OFFCURVE",
"546 700 OFFCURVE",
"397 700 CURVE SMOOTH"
);
},
{
closed = 1;
nodes = (
"476 302 OFFCURVE",
"526 267 OFFCURVE",
"526 210 CURVE SMOOTH",
"526 150 OFFCURVE",
"476 116 OFFCURVE",
"391 116 CURVE SMOOTH",
"220 116 LINE",
"220 302 LINE",
"391 302 LINE SMOOTH"
);
},
{
closed = 1;
nodes = (
"459 584 OFFCURVE",
"501 554 OFFCURVE",
"501 501 CURVE SMOOTH",
"501 446 OFFCURVE",
"459 414 OFFCURVE",
"391 414 CURVE SMOOTH",
"220 414 LINE",
"220 584 LINE",
"391 584 LINE SMOOTH"
);
}
);
width = 709;
}
);
leftKerningGroup = H;
rightKerningGroup = B;
unicode = 0042;
},
{
glyphname = C;
layers = (
{
anchors = (
{
name = bottom;
position = "{381, 0}";
},
{
name = top;
position = "{375, 700}";
}
);
layerId = "137514A2-B611-49B0-92C3-D60BB464318D";
paths = (
{
closed = 1;
nodes = (
"192 704 OFFCURVE",
"31 551 OFFCURVE",
"31 351 CURVE SMOOTH",
"31 149 OFFCURVE",
"190 -6 OFFCURVE",
"396 -6 CURVE SMOOTH",
"496 -6 OFFCURVE",
"600 41 OFFCURVE",
"672 114 CURVE",
"593 202 LINE",
"541 151 OFFCURVE",
"470 120 OFFCURVE",
"403 120 CURVE SMOOTH",
"271 120 OFFCURVE",
"168 222 OFFCURVE",
"168 353 CURVE SMOOTH",
"168 483 OFFCURVE",
"271 585 OFFCURVE",
"403 585 CURVE SMOOTH",
"471 585 OFFCURVE",
"543 550 OFFCURVE",
"593 494 CURVE",
"671 592 LINE",
"602 661 OFFCURVE",
"501 704 OFFCURVE",
"401 704 CURVE SMOOTH"
);
}
);
width = 696;
}
);
leftKerningGroup = O;
rightKerningGroup = C;
unicode = 0043;
},
{
glyphname = D;
layers = (
{
anchors = (
{
name = center;
position = "{383, 350}";
},
{
name = top;
position = "{363, 700}";
}
);
layerId = "137514A2-B611-49B0-92C3-D60BB464318D";
paths = (
{
closed = 1;
nodes = (
"86 700 LINE",
"86 0 LINE",
"372 0 LINE SMOOTH",
"588 0 OFFCURVE",
"742 146 OFFCURVE",
"742 350 CURVE SMOOTH",
"742 555 OFFCURVE",
"589 700 OFFCURVE",
"377 700 CURVE SMOOTH"
);
},
{
closed = 1;
nodes = (
"506 582 OFFCURVE",
"605 486 OFFCURVE",
"605 349 CURVE SMOOTH",
"605 213 OFFCURVE",
"509 118 OFFCURVE",
"380 118 CURVE SMOOTH",
"220 118 LINE",
"220 582 LINE",
"375 582 LINE SMOOTH"
);
}
);
width = 773;
}
);
leftKerningGroup = H;
rightKerningGroup = O;
unicode = 0044;
},
{
glyphname = Eth;
layers = (
{
components = (
{
name = D;
transform = "{1, 0, 0, 1, 23, 0}";
}
);
layerId = "137514A2-B611-49B0-92C3-D60BB464318D";
paths = (
{
closed = 1;
nodes = (
"0 390 LINE",
"0 312 LINE",
"430 312 LINE",
"430 390 LINE"
);
}
);
width = 796;
}
);
leftKerningGroup = H;
rightKerningGroup = O;
rightMetricsKey = D;
unicode = 00D0;
},
{
glyphname = E;
layers = (
{
anchors = (
{
name = bottom;
position = "{334, 0}";
},
{
name = ogonek;
position = "{606, 10}";
},
{
name = top;
position = "{345, 700}";
}
);
layerId = "137514A2-B611-49B0-92C3-D60BB464318D";
paths = (
{
closed = 1;
nodes = (
"86 700 LINE",
"86 0 LINE",
"611 0 LINE",
"611 117 LINE",
"220 117 LINE",
"220 293 LINE",
"560 293 LINE",
"560 410 LINE",
"220 410 LINE",
"220 583 LINE",
"599 583 LINE",
"599 700 LINE"
);
}
);
width = 661;
}
);
leftKerningGroup = H;
rightKerningGroup = E;
unicode = 0045;
},
{
glyphname = Eogonek;
layers = (
{
layerId = "137514A2-B611-49B0-92C3-D60BB464318D";
paths = (
{
closed = 1;
nodes = (
"86 700 LINE",
"86 0 LINE",
"485 0 LINE",
"452 -47 OFFCURVE",
"434 -85 OFFCURVE",
"434 -122 CURVE SMOOTH",
"434 -180 OFFCURVE",
"476 -202 OFFCURVE",
"516 -202 CURVE SMOOTH",
"555 -202 OFFCURVE",
"591 -180 OFFCURVE",
"614 -141 CURVE",
"578 -98 LINE",
"564 -117 OFFCURVE",
"548 -130 OFFCURVE",
"531 -130 CURVE SMOOTH",
"515 -130 OFFCURVE",
"503 -119 OFFCURVE",
"503 -101 CURVE SMOOTH",
"503 -79 OFFCURVE",
"517 -47 OFFCURVE",
"551 0 CURVE",
"618 0 LINE",
"618 110 LINE",
"220 110 LINE",
"220 300 LINE",
"568 300 LINE",
"568 410 LINE",
"220 410 LINE",
"220 590 LINE",
"607 590 LINE",
"607 700 LINE"
);
}
);
width = 669;
}
);
leftKerningGroup = H;
rightKerningGroup = E;
unicode = 0118;
},
{
glyphname = F;
layers = (
{
layerId = "137514A2-B611-49B0-92C3-D60BB464318D";
paths = (
{
closed = 1;
nodes = (
"86 700 LINE",
"86 0 LINE",
"220 0 LINE",
"220 277 LINE",
"537 277 LINE",
"537 394 LINE",
"220 394 LINE",
"220 583 LINE",
"568 583 LINE",
"569 700 LINE"
);
}
);
width = 583;
}
);
leftKerningGroup = H;
rightKerningGroup = F;
unicode = 0046;
},
{
glyphname = G;
layers = (
{
anchors = (
{
name = bottom;
position = "{388, 0}";
},
{
name = top;
position = "{388, 700}";
}
);
layerId = "137514A2-B611-49B0-92C3-D60BB464318D";
paths = (
{
closed = 1;
nodes = (
"194 704 OFFCURVE",
"31 551 OFFCURVE",
"31 350 CURVE SMOOTH",
"31 149 OFFCURVE",
"192 -6 OFFCURVE",
"401 -6 CURVE SMOOTH",
"497 -6 OFFCURVE",
"606 31 OFFCURVE",
"678 85 CURVE",
"601 184 LINE",
"545 142 OFFCURVE",
"471 114 OFFCURVE",
"410 114 CURVE SMOOTH",
"274 114 OFFCURVE",
"168 217 OFFCURVE",
"168 350 CURVE SMOOTH",
"168 482 OFFCURVE",
"273 585 OFFCURVE",
"409 585 CURVE SMOOTH",
"480 585 OFFCURVE",
"554 555 OFFCURVE",
"607 506 CURVE",
"683 604 LINE",
"613 665 OFFCURVE",
"510 704 OFFCURVE",
"409 704 CURVE SMOOTH"
);
},
{
closed = 1;
nodes = (
"561 348 LINE",
"561 85 LINE",
"678 85 LINE",
"678 348 LINE"
);
}
);
width = 747;
}
);
leftKerningGroup = O;
rightKerningGroup = G;
unicode = 0047;
},
{
glyphname = H;
layers = (
{
anchors = (
{
name = center;
position = "{395, 351}";
},
{
name = top;
position = "{401, 700}";
}
);
layerId = "137514A2-B611-49B0-92C3-D60BB464318D";
paths = (
{
closed = 1;
nodes = (
"569 700 LINE",
"569 401 LINE",
"220 401 LINE",
"220 700 LINE",
"86 700 LINE",
"86 0 LINE",
"220 0 LINE",
"220 284 LINE",
"569 284 LINE",
"569 0 LINE",
"703 0 LINE",
"703 700 LINE"
);
}
);
width = 790;
}
);
leftKerningGroup = H;
rightKerningGroup = H;
unicode = 0048;
},
{
glyphname = Hbar;
layers = (
{
components = (
{
name = H;
transform = "{1, 0, 0, 1, 33, 0}";
}
);
layerId = "137514A2-B611-49B0-92C3-D60BB464318D";
paths = (
{
closed = 1;
nodes = (
"30 603 LINE",
"30 514 LINE",
"825 514 LINE",
"825 603 LINE"
);
}
);
width = 855;
}
);
leftKerningGroup = H;
rightKerningGroup = H;
unicode = 0126;
},
{
glyphname = I;
layers = (
{
anchors = (
{
name = ogonek;
position = "{256, 10}";
},
{
name = top;
position = "{153, 700}";
}
);
layerId = "137514A2-B611-49B0-92C3-D60BB464318D";
paths = (
{
closed = 1;
nodes = (
"86 700 LINE",
"86 0 LINE",
"220 0 LINE",
"220 700 LINE"
);
}
);
width = 306;
}
);
leftKerningGroup = H;
rightKerningGroup = H;
unicode = 0049;
},
{
glyphname = Iogonek;
layers = (
{
layerId = "137514A2-B611-49B0-92C3-D60BB464318D";
paths = (
{
closed = 1;
nodes = (
"220 -98 LINE",
"205 -117 OFFCURVE",
"190 -130 OFFCURVE",
"172 -130 CURVE SMOOTH",
"156 -130 OFFCURVE",
"145 -119 OFFCURVE",
"145 -101 CURVE SMOOTH",
"145 -79 OFFCURVE",
"160 -45 OFFCURVE",
"192 0 CURVE",
"220 0 LINE",
"220 700 LINE",
"86 700 LINE",
"86 0 LINE",
"127 0 LINE",
"95 -45 OFFCURVE",
"76 -84 OFFCURVE",
"76 -122 CURVE SMOOTH",
"76 -180 OFFCURVE",
"118 -202 OFFCURVE",
"157 -202 CURVE SMOOTH",
"196 -202 OFFCURVE",
"232 -180 OFFCURVE",
"256 -141 CURVE"
);
}
);
width = 306;
}
);
leftKerningGroup = H;
rightKerningGroup = H;
unicode = 012E;
},
{
glyphname = J;
layers = (
{
anchors = (
{
name = top;
position = "{246, 700}";
}
);
layerId = "137514A2-B611-49B0-92C3-D60BB464318D";
paths = (
{
closed = 1;
nodes = (
"61 700 LINE",
"61 581 LINE",
"302 581 LINE",
"302 223 LINE SMOOTH",
"302 157 OFFCURVE",
"267 121 OFFCURVE",
"209 121 CURVE SMOOTH",
"163 121 OFFCURVE",
"108 148 OFFCURVE",
"60 199 CURVE",
"-3 99 LINE",
"52 32 OFFCURVE",
"125 -6 OFFCURVE",
"213 -6 CURVE SMOOTH",
"352 -6 OFFCURVE",
"437 76 OFFCURVE",
"437 220 CURVE SMOOTH",
"437 700 LINE"
);
}
);
width = 509;
}
);
leftKerningGroup = J;
rightKerningGroup = U;
unicode = 004A;
},
{
glyphname = K;
layers = (
{
anchors = (
{
name = bottom;
position = "{355, 0}";
},
{
name = top;
position = "{355, 700}";
}
);
layerId = "137514A2-B611-49B0-92C3-D60BB464318D";
paths = (
{
closed = 1;
nodes = (
"537 700 LINE",
"220 358 LINE",
"220 700 LINE",
"86 700 LINE",
"86 0 LINE",
"220 0 LINE",
"220 176 LINE",
"693 700 LINE"
);
},
{
closed = 1;
nodes = (
"324 310 LINE",
"550 0 LINE",
"712 0 LINE",
"413 423 LINE"
);
}
);
width = 726;
}
);
leftKerningGroup = H;
rightKerningGroup = X;
unicode = 004B;
},
{
glyphname = L;
layers = (
{
anchors = (
{
name = bottom;
position = "{290, 0}";
},
{
name = top;
position = "{154, 700}";
}
);
layerId = "137514A2-B611-49B0-92C3-D60BB464318D";
paths = (
{
closed = 1;
nodes = (
"86 700 LINE",
"86 0 LINE",
"522 0 LINE",
"522 121 LINE",
"220 121 LINE",
"220 700 LINE"
);
}
);
width = 541;
}
);
leftKerningGroup = H;
rightKerningGroup = L;
unicode = 004C;
},
{
glyphname = Lslash;
layers = (
{
components = (
{
name = L;
transform = "{1, 0, 0, 1, 17, 0}";
}
);
layerId = "137514A2-B611-49B0-92C3-D60BB464318D";
paths = (
{
closed = 1;
nodes = (
"0 419 LINE",
"23 333 LINE",
"415 448 LINE",
"392 534 LINE"
);
}
);
width = 558;
}
);
leftKerningGroup = H;
rightKerningGroup = L;
rightMetricsKey = L;
unicode = 0141;
},
{
glyphname = M;
layers = (
{
layerId = "137514A2-B611-49B0-92C3-D60BB464318D";
paths = (
{
closed = 1;
nodes = (
"680 700 LINE",
"461 251 LINE",
"241 700 LINE",
"86 700 LINE",
"86 0 LINE",
"210 0 LINE",
"210 500 LINE",
"417 72 LINE",
"504 72 LINE",
"711 500 LINE",
"712 0 LINE",
"834 0 LINE",
"834 700 LINE"
);
}
);
width = 921;
}
);
leftKerningGroup = H;
rightKerningGroup = H;
unicode = 004D;
},
{
glyphname = N;
layers = (
{
anchors = (
{
name = bottom;
position = "{395, 0}";
},
{
name = top;
position = "{395, 700}";
}
);
layerId = "137514A2-B611-49B0-92C3-D60BB464318D";
paths = (
{
closed = 1;
nodes = (
"574 700 LINE",
"574 221 LINE",
"213 700 LINE",
"86 700 LINE",
"86 0 LINE",
"217 0 LINE",
"217 478 LINE",
"577 0 LINE",
"704 0 LINE",
"704 700 LINE"
);
}
);
width = 790;
}
);
leftKerningGroup = H;
rightKerningGroup = H;
unicode = 004E;
},
{
glyphname = Eng;
layers = (
{
anchors = (
{
name = bottom;
position = "{395, 0}";
},
{
name = top;
position = "{395, 700}";
}
);
layerId = "137514A2-B611-49B0-92C3-D60BB464318D";
paths = (
{
closed = 1;
nodes = (
"572 -45 OFFCURVE",
"535 -80 OFFCURVE",
"477 -80 CURVE SMOOTH",
"438 -80 OFFCURVE",
"389 -64 OFFCURVE",
"346 -31 CURVE",
"287 -137 LINE",
"336 -182 OFFCURVE",
"401 -208 OFFCURVE",
"479 -208 CURVE SMOOTH",
"615 -208 OFFCURVE",
"702 -127 OFFCURVE",
"704 1 CURVE",
"572 23 LINE"
);
},
{
closed = 1;
nodes = (
"574 700 LINE",
"574 221 LINE",
"213 700 LINE",
"86 700 LINE",
"86 0 LINE",
"217 0 LINE",
"217 478 LINE",
"577 0 LINE",
"704 0 LINE",
"704 700 LINE"
);
}
);
width = 790;
}
);
leftKerningGroup = H;
rightKerningGroup = H;
unicode = 014A;
},
{
glyphname = O;
layers = (
{
anchors = (
{
name = top;
position = "{399, 700}";
}
);
layerId = "137514A2-B611-49B0-92C3-D60BB464318D";
paths = (
{
closed = 1;
nodes = (
"193 704 OFFCURVE",
"31 552 OFFCURVE",
"31 350 CURVE SMOOTH",
"31 149 OFFCURVE",
"193 -6 OFFCURVE",
"404 -6 CURVE SMOOTH",
"615 -6 OFFCURVE",
"777 149 OFFCURVE",
"777 350 CURVE SMOOTH",
"777 551 OFFCURVE",
"615 704 OFFCURVE",
"404 704 CURVE SMOOTH"
);
},
{
closed = 1;
nodes = (
"534 584 OFFCURVE",
"639 482 OFFCURVE",
"639 350 CURVE SMOOTH",
"639 218 OFFCURVE",
"534 114 OFFCURVE",
"405 114 CURVE SMOOTH",
"277 114 OFFCURVE",
"168 218 OFFCURVE",
"168 350 CURVE SMOOTH",
"168 482 OFFCURVE",
"276 584 OFFCURVE",
"405 584 CURVE SMOOTH"
);
}
);
width = 809;
}
);
leftKerningGroup = O;
rightKerningGroup = O;
unicode = 004F;
},
{
glyphname = Oslash;
layers = (
{
anchors = (
{
name = top;
position = "{394, 700}";
}
);
components = (
{
name = O;
}
);
layerId = "137514A2-B611-49B0-92C3-D60BB464318D";
paths = (
{
closed = 1;
nodes = (
"514 810 LINE",
"196 -119 LINE",
"273 -119 LINE",
"592 810 LINE"
);
}
);
width = 809;
}
);
leftKerningGroup = O;
leftMetricsKey = O;
rightKerningGroup = O;
rightMetricsKey = O;
unicode = 00D8;
},
{
glyphname = OE;
layers = (
{
anchors = (
{
name = bottom;
position = "{775, 0}";
},
{
name = ogonek;
position = "{1047, 10}";
},
{
name = top;
position = "{552, 700}";
}
);
layerId = "137514A2-B611-49B0-92C3-D60BB464318D";
paths = (
{
closed = 1;
nodes = (
"403 700 LINE",
"192 700 OFFCURVE",
"31 547 OFFCURVE",
"31 350 CURVE SMOOTH",
"31 151 OFFCURVE",
"193 0 OFFCURVE",
"403 0 CURVE",
"566 0 LINE",
"567 119 LINE",
"404 118 LINE",
"271 118 OFFCURVE",
"168 217 OFFCURVE",
"168 349 CURVE SMOOTH",
"168 481 OFFCURVE",
"271 580 OFFCURVE",
"404 580 CURVE",
"556 580 LINE",
"557 700 LINE"
);
},
{
closed = 1;
nodes = (
"526 700 LINE",
"526 0 LINE",
"1051 0 LINE",
"1051 117 LINE",
"660 117 LINE",
"660 293 LINE",
"1000 293 LINE",
"1000 410 LINE",
"660 410 LINE",
"660 583 LINE",
"1039 583 LINE",
"1039 700 LINE"
);
}
);
width = 1101;
}
);
leftKerningGroup = O;
leftMetricsKey = O;
rightKerningGroup = E;
rightMetricsKey = E;
unicode = 0152;
},
{
glyphname = P;
layers = (
{
layerId = "137514A2-B611-49B0-92C3-D60BB464318D";
paths = (
{
closed = 1;
nodes = (
"86 700 LINE",
"86 0 LINE",
"220 0 LINE",
"220 206 LINE",
"373 206 LINE SMOOTH",
"549 206 OFFCURVE",
"650 299 OFFCURVE",
"650 459 CURVE SMOOTH",
"650 613 OFFCURVE",
"549 700 OFFCURVE",
"373 700 CURVE SMOOTH"
);
},
{
closed = 1;
nodes = (
"466 583 OFFCURVE",
"523 541 OFFCURVE",
"523 455 CURVE SMOOTH",
"523 367 OFFCURVE",
"466 324 OFFCURVE",
"366 324 CURVE SMOOTH",
"220 324 LINE",
"220 583 LINE",
"366 583 LINE SMOOTH"
);
}
);
width = 675;
}
);
leftKerningGroup = H;
rightKerningGroup = P;
unicode = 0050;
},
{
glyphname = Thorn;
layers = (
{
layerId = "137514A2-B611-49B0-92C3-D60BB464318D";
paths = (
{
closed = 1;
nodes = (
"192 603 LINE",
"210 493 LINE",
"355 493 LINE SMOOTH",
"463 493 OFFCURVE",
"519 447 OFFCURVE",
"519 363 CURVE SMOOTH",
"519 276 OFFCURVE",
"463 229 OFFCURVE",
"355 229 CURVE SMOOTH",
"211 229 LINE",
"211 119 LINE",
"360 119 LINE SMOOTH",
"549 119 OFFCURVE",
"656 210 OFFCURVE",
"656 367 CURVE SMOOTH",
"656 517 OFFCURVE",
"549 603 OFFCURVE",
"360 603 CURVE SMOOTH"
);
},
{
closed = 1;
nodes = (
"86 700 LINE",
"86 0 LINE",
"220 0 LINE",
"220 700 LINE"
);
}
);
width = 681;
}
);
leftKerningGroup = H;
leftMetricsKey = H;
rightKerningGroup = Thorn;
rightMetricsKey = P;
unicode = 00DE;
},
{
glyphname = Q;
layers = (
{
components = (
{
name = O;
}
);
layerId = "137514A2-B611-49B0-92C3-D60BB464318D";
paths = (
{
closed = 1;
nodes = (
"397 0 LINE",
"450 -99 OFFCURVE",
"531 -157 OFFCURVE",
"624 -157 CURVE SMOOTH",
"690 -157 OFFCURVE",
"763 -129 OFFCURVE",
"817 -80 CURVE",
"766 11 LINE",
"721 -24 OFFCURVE",
"675 -45 OFFCURVE",
"639 -45 CURVE SMOOTH",
"593 -45 OFFCURVE",
"550 -12 OFFCURVE",
"510 41 CURVE"
);
}
);
width = 821;
}
);
leftKerningGroup = O;
rightKerningGroup = O;
unicode = 0051;
},
{
glyphname = R;
layers = (
{
anchors = (
{
name = bottom;
position = "{360, 0}";
},
{
name = top;
position = "{358, 700}";
}
);
layerId = "137514A2-B611-49B0-92C3-D60BB464318D";
paths = (
{
closed = 1;
nodes = (
"86 700 LINE",
"86 0 LINE",
"220 0 LINE",
"220 206 LINE",
"378 206 LINE SMOOTH",
"559 206 OFFCURVE",
"662 299 OFFCURVE",
"662 459 CURVE SMOOTH",
"662 613 OFFCURVE",
"559 700 OFFCURVE",
"378 700 CURVE SMOOTH"
);
},
{
closed = 1;
nodes = (
"372 260 LINE",
"524 0 LINE",
"676 0 LINE",
"504 260 LINE"
);
},
{
closed = 1;
nodes = (
"478 583 OFFCURVE",
"535 541 OFFCURVE",
"535 455 CURVE SMOOTH",
"535 367 OFFCURVE",
"478 324 OFFCURVE",
"378 324 CURVE SMOOTH",
"220 324 LINE",
"220 583 LINE",
"378 583 LINE SMOOTH"
);
}
);
width = 723;
}
);
leftKerningGroup = H;
rightKerningGroup = R;
unicode = 0052;
},
{
glyphname = S;
layers = (
{
anchors = (
{
name = bottom;
position = "{320, 0}";
},
{
name = top;
position = "{325, 700}";
}
);
layerId = "137514A2-B611-49B0-92C3-D60BB464318D";
paths = (
{
closed = 1;
nodes = (
"170 706 OFFCURVE",
"65 628 OFFCURVE",
"65 506 CURVE SMOOTH",
"65 257 OFFCURVE",
"441 340 OFFCURVE",
"441 194 CURVE SMOOTH",
"441 145 OFFCURVE",
"395 117 OFFCURVE",
"320 117 CURVE SMOOTH",
"246 117 OFFCURVE",
"151 156 OFFCURVE",
"79 220 CURVE",
"23 107 LINE",
"98 40 OFFCURVE",
"207 -5 OFFCURVE",
"318 -5 CURVE SMOOTH",
"473 -5 OFFCURVE",
"587 71 OFFCURVE",
"587 202 CURVE SMOOTH",
"588 453 OFFCURVE",
"212 376 OFFCURVE",
"212 518 CURVE SMOOTH",
"212 561 OFFCURVE",
"253 584 OFFCURVE",
"316 584 CURVE SMOOTH",
"370 584 OFFCURVE",
"450 561 OFFCURVE",
"526 516 CURVE",
"580 632 LINE",
"513 676 OFFCURVE",
"420 706 OFFCURVE",
"326 706 CURVE SMOOTH"
);
}
);
width = 628;
}
);
leftKerningGroup = S;
rightKerningGroup = S;
unicode = 0053;
},
{
glyphname = T;
layers = (
{
anchors = (
{
name = bottom;
position = "{281, 0}";
},
{
name = center;
position = "{286, 350}";
},
{
name = top;
position = "{303, 700}";
}
);
layerId = "137514A2-B611-49B0-92C3-D60BB464318D";
paths = (
{
closed = 1;
nodes = (
"8 700 LINE",
"8 581 LINE",
"226 581 LINE",
"226 0 LINE",
"360 0 LINE",
"360 581 LINE",
"579 581 LINE",
"579 700 LINE"
);
}
);
width = 588;
}
);
leftKerningGroup = T;
rightKerningGroup = T;
unicode = 0054;
},
{
glyphname = U;
layers = (
{
anchors = (
{
name = ogonek;
position = "{549, 10}";
},
{
name = top;
position = "{382, 700}";
}
);
layerId = "137514A2-B611-49B0-92C3-D60BB464318D";
paths = (
{
closed = 1;
nodes = (
"556 700 LINE",
"556 292 LINE SMOOTH",
"556 180 OFFCURVE",
"489 114 OFFCURVE",
"383 114 CURVE SMOOTH",
"276 114 OFFCURVE",
"206 181 OFFCURVE",
"206 292 CURVE SMOOTH",
"206 700 LINE",
"72 700 LINE",
"72 292 LINE SMOOTH",
"72 108 OFFCURVE",
"191 -6 OFFCURVE",
"382 -6 CURVE SMOOTH",
"573 -6 OFFCURVE",
"690 108 OFFCURVE",
"690 292 CURVE SMOOTH",
"690 700 LINE"
);
}
);
width = 762;
}
);
leftKerningGroup = U;
rightKerningGroup = U;
unicode = 0055;
},
{
glyphname = Uogonek;
layers = (
{
layerId = "137514A2-B611-49B0-92C3-D60BB464318D";
paths = (
{
closed = 1;
nodes = (
"557 700 LINE",
"557 292 LINE SMOOTH",
"557 180 OFFCURVE",
"490 114 OFFCURVE",
"384 114 CURVE SMOOTH",
"277 114 OFFCURVE",
"206 181 OFFCURVE",
"206 292 CURVE SMOOTH",
"206 700 LINE",
"73 700 LINE",
"73 292 LINE SMOOTH",
"73 108 OFFCURVE",
"192 -6 OFFCURVE",
"383 -6 CURVE SMOOTH",
"573 -6 OFFCURVE",
"691 108 OFFCURVE",
"691 292 CURVE SMOOTH",
"691 700 LINE"
);
},
{
closed = 1;
nodes = (
"430 15 LINE",
"392 -36 OFFCURVE",
"369 -80 OFFCURVE",
"369 -122 CURVE SMOOTH",
"369 -180 OFFCURVE",
"411 -202 OFFCURVE",
"450 -202 CURVE SMOOTH",
"489 -202 OFFCURVE",
"525 -180 OFFCURVE",
"549 -141 CURVE",
"513 -98 LINE",
"498 -117 OFFCURVE",
"483 -130 OFFCURVE",
"465 -130 CURVE SMOOTH",
"449 -130 OFFCURVE",
"438 -119 OFFCURVE",
"438 -101 CURVE SMOOTH",
"438 -76 OFFCURVE",
"457 -39 OFFCURVE",
"495 15 CURVE"
);
}
);
width = 763;
}
);
leftKerningGroup = U;
rightKerningGroup = U;
unicode = 0172;
},
{
glyphname = V;
layers = (
{
layerId = "137514A2-B611-49B0-92C3-D60BB464318D";
paths = (
{
closed = 1;
nodes = (
"560 700 LINE",
"352 149 LINE",
"146 700 LINE",
"2 700 LINE",
"279 0 LINE",
"418 0 LINE",
"698 700 LINE"
);
}
);
width = 701;
}
);
leftKerningGroup = V;
rightKerningGroup = V;
unicode = 0056;
},
{
glyphname = W;
layers = (
{
anchors = (
{
name = top;
position = "{530, 700}";
}
);
layerId = "137514A2-B611-49B0-92C3-D60BB464318D";
paths = (
{
closed = 1;
nodes = (
"919 700 LINE",
"760 149 LINE",
"599 700 LINE",
"466 700 LINE",
"307 149 LINE",
"146 700 LINE",
"2 700 LINE",
"234 0 LINE",
"372 0 LINE",
"530 525 LINE",
"686 0 LINE",
"825 0 LINE",
"1057 700 LINE"
);
}
);
width = 1048;
}
);
leftKerningGroup = V;
rightKerningGroup = V;
unicode = 0057;
},
{
glyphname = X;
layers = (
{
layerId = "137514A2-B611-49B0-92C3-D60BB464318D";
paths = (
{
closed = 1;
nodes = (
"509 700 LINE",
"347 470 LINE",
"186 700 LINE",
"30 700 LINE",
"266 359 LINE",
"13 0 LINE",
"170 0 LINE",
"347 250 LINE",
"526 0 LINE",
"687 0 LINE",
"433 365 LINE",
"667 700 LINE"
);
}
);
width = 704;
}
);
leftKerningGroup = X;
rightKerningGroup = X;
unicode = 0058;
},
{
glyphname = Y;
layers = (
{
anchors = (
{
name = top;
position = "{324, 700}";
}
);
layerId = "137514A2-B611-49B0-92C3-D60BB464318D";
paths = (
{
closed = 1;
nodes = (
"514 700 LINE",
"326 371 LINE",
"135 700 LINE",
"-1 700 LINE",
"317 120 LINE",
"335 120 LINE",
"649 700 LINE"
);
},
{
closed = 1;
nodes = (
"260 300 LINE",
"260 0 LINE",
"394 0 LINE",
"394 300 LINE"
);
}
);
width = 649;
}
);
leftKerningGroup = V;
rightKerningGroup = V;
unicode = 0059;
},
{
glyphname = Z;
layers = (
{
anchors = (
{
name = top;
position = "{345, 700}";
}
);
layerId = "137514A2-B611-49B0-92C3-D60BB464318D";
paths = (
{
closed = 1;
nodes = (
"48 700 LINE",
"48 583 LINE",
"448 583 LINE",
"35 95 LINE",
"35 0 LINE",
"633 0 LINE",
"634 117 LINE",
"216 117 LINE",
"628 606 LINE",
"628 700 LINE"
);
}
);
width = 668;
}
);
leftKerningGroup = Z;
rightKerningGroup = Z;
unicode = 005A;
},
{
glyphname = A.ss01;
layers = (
{
anchors = (
{
name = ogonek;
position = "{727, 10}";
},
{
name = top;
position = "{383, 700}";
}
);
layerId = "137514A2-B611-49B0-92C3-D60BB464318D";
paths = (
{
closed = 1;
nodes = (
"190 705 OFFCURVE",
"72 591 OFFCURVE",
"72 407 CURVE SMOOTH",
"72 0 LINE",
"206 0 LINE",
"206 181 LINE",
"559 181 LINE",
"559 0 LINE",
"693 0 LINE",
"693 407 LINE SMOOTH",
"693 591 OFFCURVE",
"574 705 OFFCURVE",
"381 705 CURVE SMOOTH"
);
},
{
closed = 1;
nodes = (
"492 585 OFFCURVE",
"559 517 OFFCURVE",
"559 407 CURVE SMOOTH",
"560 296 LINE",
"206 296 LINE",
"206 407 LINE SMOOTH",
"206 517 OFFCURVE",
"273 585 OFFCURVE",
"382 585 CURVE SMOOTH"
);
}
);
width = 765;
}
);
leftKerningGroup = A.ss01;
leftMetricsKey = U;
rightKerningGroup = A.ss01;
rightMetricsKey = U;
},
{
glyphname = Aogonek.ss01;
layers = (
{
layerId = "137514A2-B611-49B0-92C3-D60BB464318D";
paths = (
{
closed = 1;
nodes = (
"190 705 OFFCURVE",
"72 591 OFFCURVE",
"72 407 CURVE SMOOTH",
"72 0 LINE",
"206 0 LINE",
"206 181 LINE",
"559 181 LINE",
"559 0 LINE",
"598 0 LINE",
"566 -45 OFFCURVE",
"547 -84 OFFCURVE",
"547 -122 CURVE SMOOTH",
"547 -180 OFFCURVE",
"590 -202 OFFCURVE",
"629 -202 CURVE SMOOTH",
"667 -202 OFFCURVE",
"704 -180 OFFCURVE",
"727 -141 CURVE",
"691 -98 LINE",
"677 -117 OFFCURVE",
"661 -130 OFFCURVE",
"644 -130 CURVE SMOOTH",
"628 -130 OFFCURVE",
"616 -119 OFFCURVE",
"616 -101 CURVE SMOOTH",
"616 -79 OFFCURVE",
"631 -45 OFFCURVE",
"664 0 CURVE",
"693 0 LINE",
"693 407 LINE SMOOTH",
"693 591 OFFCURVE",
"574 705 OFFCURVE",
"381 705 CURVE SMOOTH"
);
},
{
closed = 1;
nodes = (
"492 585 OFFCURVE",
"559 517 OFFCURVE",
"559 407 CURVE SMOOTH",
"559 296 LINE",
"206 296 LINE",
"206 407 LINE SMOOTH",
"206 517 OFFCURVE",
"273 585 OFFCURVE",
"382 585 CURVE SMOOTH"
);
}
);
width = 772;
}
);
leftKerningGroup = Aogonek.ss01;
rightKerningGroup = Aogonek.ss01;
},
{
glyphname = E.ss01;
layers = (
{
anchors = (
{
name = bottom;
position = "{296, 0}";
},
{
name = ogonek;
position = "{532, 10}";
},
{
name = top;
position = "{296, 700}";
}
);
layerId = "137514A2-B611-49B0-92C3-D60BB464318D";
paths = (
{
closed = 1;
nodes = (
"180 706 OFFCURVE",
"77 632 OFFCURVE",
"77 525 CURVE SMOOTH",
"77 452 OFFCURVE",
"125 391 OFFCURVE",
"194 370 CURVE",
"101 347 OFFCURVE",
"41 273 OFFCURVE",
"41 191 CURVE SMOOTH",
"41 74 OFFCURVE",
"157 -6 OFFCURVE",
"318 -6 CURVE SMOOTH",
"411 -6 OFFCURVE",
"514 22 OFFCURVE",
"573 59 CURVE",
"521 164 LINE",
"480 139 OFFCURVE",
"396 112 OFFCURVE",
"327 112 CURVE SMOOTH",
"244 112 OFFCURVE",
"179 148 OFFCURVE",
"179 207 CURVE SMOOTH",
"179 264 OFFCURVE",
"238 305 OFFCURVE",
"321 305 CURVE SMOOTH",
"469 305 LINE",
"469 419 LINE",
"321 419 LINE SMOOTH",
"251 419 OFFCURVE",
"203 458 OFFCURVE",
"203 506 CURVE SMOOTH",
"203 560 OFFCURVE",
"262 588 OFFCURVE",
"341 588 CURVE SMOOTH",
"392 588 OFFCURVE",
"454 576 OFFCURVE",
"502 554 CURVE",
"546 659 LINE",
"495 687 OFFCURVE",
"405 706 OFFCURVE",
"331 706 CURVE SMOOTH"
);
}
);
width = 590;
}
);
leftKerningGroup = E.ss01;
leftMetricsKey = eight;
rightKerningGroup = E.ss01;
},
{
glyphname = Eogonek.ss01;
layers = (
{
layerId = "137514A2-B611-49B0-92C3-D60BB464318D";
paths = (
{
closed = 1;
nodes = (
"180 706 OFFCURVE",
"77 632 OFFCURVE",
"77 525 CURVE SMOOTH",
"77 452 OFFCURVE",
"125 391 OFFCURVE",
"194 370 CURVE",
"101 347 OFFCURVE",
"41 273 OFFCURVE",
"41 191 CURVE SMOOTH",
"41 74 OFFCURVE",
"157 -6 OFFCURVE",
"318 -6 CURVE SMOOTH",
"411 -6 OFFCURVE",
"514 22 OFFCURVE",
"573 59 CURVE",
"521 164 LINE",
"480 139 OFFCURVE",
"396 112 OFFCURVE",
"327 112 CURVE SMOOTH",
"244 112 OFFCURVE",
"179 148 OFFCURVE",
"179 207 CURVE SMOOTH",
"179 264 OFFCURVE",
"238 305 OFFCURVE",
"321 305 CURVE SMOOTH",
"469 305 LINE",
"469 419 LINE",
"321 419 LINE SMOOTH",
"251 419 OFFCURVE",
"203 458 OFFCURVE",
"203 506 CURVE SMOOTH",
"203 560 OFFCURVE",
"262 588 OFFCURVE",
"341 588 CURVE SMOOTH",
"392 588 OFFCURVE",
"454 576 OFFCURVE",
"502 554 CURVE",
"546 659 LINE",
"495 687 OFFCURVE",
"405 706 OFFCURVE",
"331 706 CURVE SMOOTH"
);
},
{
closed = 1;
nodes = (
"413 15 LINE",
"375 -35 OFFCURVE",
"352 -79 OFFCURVE",
"352 -122 CURVE SMOOTH",
"352 -180 OFFCURVE",
"394 -202 OFFCURVE",
"433 -202 CURVE SMOOTH",
"471 -202 OFFCURVE",
"508 -180 OFFCURVE",
"532 -141 CURVE",
"496 -98 LINE",
"481 -117 OFFCURVE",
"465 -130 OFFCURVE",
"448 -130 CURVE SMOOTH",
"432 -130 OFFCURVE",
"420 -119 OFFCURVE",
"420 -101 CURVE SMOOTH",
"420 -71 OFFCURVE",
"445 -27 OFFCURVE",
"496 36 CURVE"
);
}
);
width = 590;
}
);
leftKerningGroup = Eogonek.ss01;
rightKerningGroup = Eogonek.ss01;
},
{
glyphname = F.ss01;
layers = (
{
layerId = "137514A2-B611-49B0-92C3-D60BB464318D";
paths = (
{
closed = 1;
nodes = (
"206 0 LINE",
"206 471 LINE SMOOTH",
"206 541 OFFCURVE",
"253 586 OFFCURVE",
"323 586 CURVE SMOOTH",
"378 586 OFFCURVE",
"450 567 OFFCURVE",
"504 543 CURVE",
"537 661 LINE",
"480 688 OFFCURVE",
"393 706 OFFCURVE",
"311 706 CURVE SMOOTH",
"166 706 OFFCURVE",
"72 615 OFFCURVE",
"72 474 CURVE SMOOTH",
"72 0 LINE"
);
},
{
closed = 1;
nodes = (
"104 382 LINE",
"104 265 LINE SMOOTH",
"477 265 LINE",
"477 382 LINE"
);
}
);
width = 538;
}
);
leftKerningGroup = F.ss01;
leftMetricsKey = U;
rightKerningGroup = F.ss01;
},
{
glyphname = G.ss01;
layers = (
{
anchors = (
{
name = bottom;
position = "{375, 0}";
},
{
name = top;
position = "{375, 700}";
}
);
layerId = "137514A2-B611-49B0-92C3-D60BB464318D";
paths = (
{
closed = 1;
nodes = (
"194 704 OFFCURVE",
"31 551 OFFCURVE",
"31 350 CURVE SMOOTH",
"31 149 OFFCURVE",
"186 -6 OFFCURVE",
"388 -6 CURVE SMOOTH",
"488 -6 OFFCURVE",
"589 53 OFFCURVE",
"646 135 CURVE",
"581 212 LINE",
"543 153 OFFCURVE",
"475 114 OFFCURVE",
"402 114 CURVE SMOOTH",
"271 114 OFFCURVE",
"168 217 OFFCURVE",
"168 350 CURVE SMOOTH",
"168 482 OFFCURVE",
"274 585 OFFCURVE",
"409 585 CURVE SMOOTH",
"480 585 OFFCURVE",
"554 555 OFFCURVE",
"607 506 CURVE",
"684 604 LINE",
"613 665 OFFCURVE",
"509 704 OFFCURVE",
"407 704 CURVE SMOOTH"
);
},
{
closed = 1;
nodes = (
"561 358 LINE",
"561 108 LINE",
"577 92 LINE",
"577 0 LINE",
"678 0 LINE",
"678 358 LINE"
);
}
);
width = 748;
}
);
leftKerningGroup = O;
leftMetricsKey = O;
rightKerningGroup = G;
},
{
glyphname = I.ss01;
layers = (
{
anchors = (
{
name = ogonek;
position = "{440, 10}";
},
{
name = top;
position = "{245, 700}";
}
);
layerId = "137514A2-B611-49B0-92C3-D60BB464318D";
paths = (
{
closed = 1;
nodes = (
"49 583 LINE",
"440 583 LINE",
"440 700 LINE",
"49 700 LINE"
);
},
{
closed = 1;
nodes = (
"49 0 LINE",
"440 0 LINE",
"440 117 LINE",
"49 117 LINE"
);
},
{
closed = 1;
nodes = (
"178 700 LINE",
"178 0 LINE",
"312 0 LINE",
"312 700 LINE"
);
}
);
width = 490;
}
);
leftKerningGroup = I.ss01;
rightKerningGroup = I.ss01;
},
{
glyphname = J.ss01;
layers = (
{
anchors = (
{
name = top;
position = "{259, 700}";
}
);
layerId = "137514A2-B611-49B0-92C3-D60BB464318D";
paths = (
{
closed = 1;
nodes = (
"61 700 LINE",
"61 581 LINE",
"302 581 LINE",
"302 123 LINE SMOOTH",
"302 57 OFFCURVE",
"267 21 OFFCURVE",
"209 21 CURVE SMOOTH",
"163 21 OFFCURVE",
"108 48 OFFCURVE",
"60 99 CURVE",
"-3 -1 LINE",
"52 -68 OFFCURVE",
"125 -106 OFFCURVE",
"212 -106 CURVE SMOOTH",
"352 -106 OFFCURVE",
"437 -24 OFFCURVE",
"437 120 CURVE SMOOTH",
"437 700 LINE"
);
}
);
width = 509;
}
);
leftKerningGroup = J.ss01;
leftMetricsKey = J;
rightKerningGroup = J.ss01;
rightMetricsKey = J;
},
{
glyphname = M.ss01;
layers = (
{
anchors = (
{
name = ogonek;
position = "{256, 10}";
},
{
name = top;
position = "{153, 700}";
}
);
layerId = "137514A2-B611-49B0-92C3-D60BB464318D";
paths = (
{
closed = 1;
nodes = (
"276 699 OFFCURVE",
"168 579 OFFCURVE",
"168 402 CURVE",
"220 377 LINE",
"220 485 OFFCURVE",
"290 569 OFFCURVE",
"390 571 CURVE SMOOTH",
"476 571 OFFCURVE",
"533 506 OFFCURVE",
"533 411 CURVE SMOOTH",
"533 0 LINE",
"669 0 LINE",
"669 444 LINE SMOOTH",
"669 597 OFFCURVE",
"574 700 OFFCURVE",
"439 700 CURVE SMOOTH"
);
},
{
closed = 1;
nodes = (
"726 699 OFFCURVE",
"618 579 OFFCURVE",
"618 402 CURVE",
"670 377 LINE",
"670 485 OFFCURVE",
"740 569 OFFCURVE",
"839 571 CURVE SMOOTH",
"925 571 OFFCURVE",
"983 506 OFFCURVE",
"983 411 CURVE SMOOTH",
"983 0 LINE",
"1119 0 LINE",
"1119 444 LINE SMOOTH",
"1119 597 OFFCURVE",
"1023 700 OFFCURVE",
"889 700 CURVE SMOOTH"
);
},
{
closed = 1;
nodes = (
"86 700 LINE",
"86 0 LINE",
"220 0 LINE",
"220 700 LINE"
);
}
);
width = 1191;
}
);
leftKerningGroup = M.ss01;
leftMetricsKey = H;
rightKerningGroup = M.ss01;
rightMetricsKey = U;
},
{
glyphname = N.ss01;
layers = (
{
anchors = (
{
name = bottom;
position = "{384, 0}";
},
{
name = ogonek;
position = "{256, 10}";
},
{
name = top;
position = "{387, 700}";
}
);
layerId = "137514A2-B611-49B0-92C3-D60BB464318D";
paths = (
{
closed = 1;
nodes = (
"282 699 OFFCURVE",
"167 579 OFFCURVE",
"167 402 CURVE",
"220 377 LINE",
"220 485 OFFCURVE",
"296 569 OFFCURVE",
"405 571 CURVE SMOOTH",
"497 571 OFFCURVE",
"560 506 OFFCURVE",
"560 412 CURVE SMOOTH",
"560 0 LINE",
"696 0 LINE",
"696 444 LINE SMOOTH",
"696 597 OFFCURVE",
"596 700 OFFCURVE",
"453 700 CURVE SMOOTH"
);
},
{
closed = 1;
nodes = (
"86 700 LINE",
"86 0 LINE",
"220 0 LINE",
"220 700 LINE"
);
}
);
width = 768;
}
);
leftKerningGroup = N.ss01;
leftMetricsKey = H;
rightKerningGroup = N.ss01;
rightMetricsKey = U;
},
{
glyphname = Eng.ss01;
layers = (
{
anchors = (
{
name = bottom;
position = "{384, 0}";
},
{
name = ogonek;
position = "{256, 10}";
},
{
name = top;
position = "{387, 700}";
}
);
layerId = "137514A2-B611-49B0-92C3-D60BB464318D";
paths = (
{
closed = 1;
nodes = (
"560 -46 OFFCURVE",
"524 -80 OFFCURVE",
"467 -80 CURVE SMOOTH",
"428 -80 OFFCURVE",
"380 -64 OFFCURVE",
"337 -31 CURVE",
"279 -137 LINE",
"328 -182 OFFCURVE",
"393 -208 OFFCURVE",
"471 -208 CURVE SMOOTH",
"607 -208 OFFCURVE",
"694 -128 OFFCURVE",
"696 0 CURVE",
"560 18 LINE"
);
},
{
closed = 1;
nodes = (
"282 699 OFFCURVE",
"167 579 OFFCURVE",
"167 402 CURVE",
"220 377 LINE",
"220 485 OFFCURVE",
"296 569 OFFCURVE",
"405 571 CURVE SMOOTH",
"497 571 OFFCURVE",
"560 506 OFFCURVE",
"560 412 CURVE SMOOTH",
"560 0 LINE",
"696 0 LINE",
"696 444 LINE SMOOTH",
"696 597 OFFCURVE",
"596 700 OFFCURVE",
"453 700 CURVE SMOOTH"
);
},
{
closed = 1;
nodes = (
"86 700 LINE",
"86 0 LINE",
"220 0 LINE",
"220 700 LINE"
);
}
);
width = 769;
}
);
leftKerningGroup = H;
rightKerningGroup = H;
},
{
glyphname = Q.ss01;
layers = (
{
components = (
{
name = O;
}
);
layerId = "137514A2-B611-49B0-92C3-D60BB464318D";
paths = (
{
closed = 1;
nodes = (
"346 -124 LINE",
"452 -124 LINE",
"452 276 LINE",
"346 276 LINE"
);
}
);
width = 809;
}
);
leftKerningGroup = O;
leftMetricsKey = O;
rightKerningGroup = O;
rightMetricsKey = O;
},
{
glyphname = T.ss01;
layers = (
{
anchors = (
{
name = bottom;
position = "{317, 0}";
},
{
name = center;
position = "{331, 350}";
},
{
name = top;
position = "{331, 700}";
}
);
layerId = "137514A2-B611-49B0-92C3-D60BB464318D";
paths = (
{
closed = 1;
nodes = (
"219 706 OFFCURVE",
"113 679 OFFCURVE",
"25 631 CURVE",
"68 517 LINE",
"143 557 OFFCURVE",
"235 580 OFFCURVE",
"327 580 CURVE SMOOTH",
"420 580 OFFCURVE",
"511 558 OFFCURVE",
"588 517 CURVE",
"631 630 LINE",
"542 679 OFFCURVE",
"435 706 OFFCURVE",
"327 706 CURVE SMOOTH"
);
},
{
closed = 1;
nodes = (
"261 637 LINE",
"261 0 LINE",
"395 0 LINE",
"395 637 LINE"
);
}
);
width = 661;
}
);
leftKerningGroup = T;
rightKerningGroup = T;
},
{
glyphname = W.ss01;
layers = (
{
anchors = (
{
name = top;
position = "{588, 700}";
}
);
layerId = "137514A2-B611-49B0-92C3-D60BB464318D";
paths = (
{
closed = 1;
nodes = (
"969 700 LINE",
"969 265 LINE SMOOTH",
"969 175 OFFCURVE",
"908 114 OFFCURVE",
"816 114 CURVE SMOOTH",
"721 114 OFFCURVE",
"655 175 OFFCURVE",
"655 265 CURVE SMOOTH",
"655 700 LINE",
"521 700 LINE",
"521 265 LINE SMOOTH",
"521 175 OFFCURVE",
"457 114 OFFCURVE",
"363 114 CURVE SMOOTH",
"270 114 OFFCURVE",
"206 175 OFFCURVE",
"206 265 CURVE SMOOTH",
"206 700 LINE",
"72 700 LINE",
"72 265 LINE SMOOTH",
"72 105 OFFCURVE",
"183 -6 OFFCURVE",
"342 -6 CURVE SMOOTH",
"455 -6 OFFCURVE",
"549 49 OFFCURVE",
"589 128 CURVE",
"628 49 OFFCURVE",
"724 -6 OFFCURVE",
"836 -6 CURVE SMOOTH",
"994 -6 OFFCURVE",
"1104 105 OFFCURVE",
"1104 265 CURVE SMOOTH",
"1104 700 LINE"
);
}
);
width = 1176;
}
);
leftKerningGroup = W.ss01;
leftMetricsKey = U;
rightKerningGroup = W.ss01;
rightMetricsKey = U;
},
{
glyphname = Y.ss01;
layers = (
{
anchors = (
{
name = top;
position = "{370, 700}";
}
);
layerId = "137514A2-B611-49B0-92C3-D60BB464318D";
paths = (
{
closed = 1;
nodes = (
"483 157 OFFCURVE",
"586 278 OFFCURVE",
"586 457 CURVE",
"535 472 LINE",
"535 359 OFFCURVE",
"463 280 OFFCURVE",
"362 279 CURVE SMOOTH",
"270 279 OFFCURVE",
"206 342 OFFCURVE",
"206 432 CURVE SMOOTH",
"206 700 LINE",
"72 700 LINE",
"72 419 LINE SMOOTH",
"72 262 OFFCURVE",
"177 155 OFFCURVE",
"329 155 CURVE SMOOTH"
);
},
{
closed = 1;
nodes = (
"535 700 LINE",
"535 179 LINE SMOOTH",
"535 82 OFFCURVE",
"459 14 OFFCURVE",
"350 14 CURVE",
"276 14 OFFCURVE",
"191 50 OFFCURVE",
"140 100 CURVE",
"79 4 LINE",
"142 -61 OFFCURVE",
"257 -106 OFFCURVE",
"367 -106 CURVE SMOOTH",
"546 -106 OFFCURVE",
"668 8 OFFCURVE",
"668 176 CURVE SMOOTH",
"668 700 LINE"
);
}
);
width = 740;
}
);
leftKerningGroup = Y.ss01;
leftMetricsKey = U;
rightKerningGroup = Y.ss01;
rightMetricsKey = J;
},
{
glyphname = Z.ss01;
layers = (
{
anchors = (
{
name = top;
position = "{334, 700}";
}
);
layerId = "137514A2-B611-49B0-92C3-D60BB464318D";
paths = (
{
closed = 1;
nodes = (
"307 400 LINE",
"307 299 LINE",
"540 299 LINE",
"540 400 LINE"
);
},
{
closed = 1;
nodes = (
"118 400 LINE",
"118 298 LINE",
"346 298 LINE",
"346 400 LINE"
);
},
{
closed = 1;
nodes = (
"48 700 LINE",
"48 583 LINE",
"448 583 LINE",
"35 95 LINE",
"35 0 LINE",
"633 0 LINE",
"634 117 LINE",
"216 117 LINE",
"628 606 LINE",
"628 700 LINE"
);
}
);
width = 668;
}
);
leftKerningGroup = Z.ss01;
leftMetricsKey = Z;
rightKerningGroup = Z.ss01;
rightMetricsKey = Z;
},
{
glyphname = a;
layers = (
{
anchors = (
{
name = ogonek;
position = "{553, 10}";
},
{
name = top;
position = "{293, 535}";
}
);
layerId = "137514A2-B611-49B0-92C3-D60BB464318D";
paths = (
{
closed = 1;
nodes = (
"206 540 OFFCURVE",
"146 517 OFFCURVE",
"69 474 CURVE",
"116 384 LINE",
"171 417 OFFCURVE",
"225 434 OFFCURVE",
"275 434 CURVE SMOOTH",
"355 434 OFFCURVE",
"396 397 OFFCURVE",
"396 335 CURVE",
"397 0 LINE",
"525 0 LINE",
"524 350 LINE SMOOTH",
"523 469 OFFCURVE",
"444 540 OFFCURVE",
"304 540 CURVE SMOOTH"
);
},
{
closed = 1;
nodes = (
"240 321 LINE SMOOTH",
"110 320 OFFCURVE",
"37 259 OFFCURVE",
"37 160 CURVE SMOOTH",
"37 65 OFFCURVE",
"108 -6 OFFCURVE",
"223 -6 CURVE SMOOTH",
"318 -6 OFFCURVE",
"387 31 OFFCURVE",
"419 101 CURVE",
"396 191 LINE",
"392 136 OFFCURVE",
"332 94 OFFCURVE",
"255 94 CURVE SMOOTH",
"196 94 OFFCURVE",
"160 123 OFFCURVE",
"160 168 CURVE SMOOTH",
"160 215 OFFCURVE",
"192 234 OFFCURVE",
"261 234 CURVE SMOOTH",
"411 234 LINE",
"411 321 LINE"
);
}
);
width = 590;
}
);
leftKerningGroup = a;
rightKerningGroup = n;
unicode = 0061;
},
{
glyphname = aogonek;
layers = (
{
layerId = "137514A2-B611-49B0-92C3-D60BB464318D";
paths = (
{
closed = 1;
nodes = (
"205 540 OFFCURVE",
"146 517 OFFCURVE",
"69 474 CURVE",
"116 384 LINE",
"171 417 OFFCURVE",
"225 434 OFFCURVE",
"274 434 CURVE SMOOTH",
"355 434 OFFCURVE",
"395 397 OFFCURVE",
"396 335 CURVE",
"396 321 LINE",
"239 321 LINE SMOOTH",
"110 320 OFFCURVE",
"37 259 OFFCURVE",
"37 160 CURVE SMOOTH",
"37 65 OFFCURVE",
"108 -6 OFFCURVE",
"224 -6 CURVE SMOOTH",
"300 -6 OFFCURVE",
"360 17 OFFCURVE",
"397 64 CURVE",
"397 0 LINE",
"425 0 LINE",
"391 -45 OFFCURVE",
"372 -84 OFFCURVE",
"372 -122 CURVE SMOOTH",
"372 -180 OFFCURVE",
"414 -202 OFFCURVE",
"454 -202 CURVE SMOOTH",
"493 -202 OFFCURVE",
"529 -180 OFFCURVE",
"552 -141 CURVE",
"516 -98 LINE",
"502 -117 OFFCURVE",
"486 -130 OFFCURVE",
"469 -130 CURVE SMOOTH",
"452 -130 OFFCURVE",
"441 -119 OFFCURVE",
"441 -101 CURVE SMOOTH",
"441 -79 OFFCURVE",
"456 -45 OFFCURVE",
"490 0 CURVE",
"525 0 LINE",
"525 350 LINE SMOOTH",
"524 469 OFFCURVE",
"444 540 OFFCURVE",
"304 540 CURVE SMOOTH"
);
},
{
closed = 1;
nodes = (
"397 184 LINE",
"392 136 OFFCURVE",
"329 94 OFFCURVE",
"256 94 CURVE SMOOTH",
"196 94 OFFCURVE",
"160 123 OFFCURVE",
"160 168 CURVE SMOOTH",
"160 215 OFFCURVE",
"192 234 OFFCURVE",
"261 234 CURVE SMOOTH",
"397 234 LINE"
);
}
);
width = 594;
}
);
leftKerningGroup = a;
rightKerningGroup = n;
unicode = 0105;
},
{
glyphname = ae;
layers = (
{
anchors = (
{
name = top;
position = "{487, 535}";
}
);
layerId = "137514A2-B611-49B0-92C3-D60BB464318D";
paths = (
{
closed = 0;
nodes = (
"556 124 LINE"
);
},
{
closed = 1;
nodes = (
"226 540 OFFCURVE",
"147 517 OFFCURVE",
"69 477 CURVE",
"101 384 LINE",
"160 416 OFFCURVE",
"221 434 OFFCURVE",
"276 434 CURVE SMOOTH",
"356 434 OFFCURVE",
"398 397 OFFCURVE",
"398 335 CURVE",
"399 190 LINE",
"527 160 LINE",
"526 350 LINE SMOOTH",
"525 469 OFFCURVE",
"445 540 OFFCURVE",
"304 540 CURVE SMOOTH"
);
},
{
closed = 1;
nodes = (
"241 309 LINE SMOOTH",
"112 308 OFFCURVE",
"37 254 OFFCURVE",
"37 157 CURVE SMOOTH",
"37 60 OFFCURVE",
"110 -6 OFFCURVE",
"226 -6 CURVE SMOOTH",
"340 -6 OFFCURVE",
"422 44 OFFCURVE",
"461 141 CURVE",
"405 185 LINE",
"374 113 OFFCURVE",
"321 85 OFFCURVE",
"256 85 CURVE SMOOTH",
"198 85 OFFCURVE",
"160 118 OFFCURVE",
"160 168 CURVE SMOOTH",
"160 215 OFFCURVE",
"198 241 OFFCURVE",
"266 241 CURVE SMOOTH",
"413 241 LINE",
"413 309 LINE"
);
},
{
closed = 1;
nodes = (
"507 238 LINE",
"941 238 LINE",
"948 418 OFFCURVE",
"843 539 OFFCURVE",
"673 539 CURVE SMOOTH",
"518 539 OFFCURVE",
"417 429 OFFCURVE",
"417 266 CURVE SMOOTH",
"417 104 OFFCURVE",
"516 -5 OFFCURVE",
"676 -5 CURVE SMOOTH",
"771 -5 OFFCURVE",
"848 29 OFFCURVE",
"901 87 CURVE",
"832 160 LINE",
"793 121 OFFCURVE",
"742 100 OFFCURVE",
"687 100 CURVE SMOOTH",
"593 100 OFFCURVE",
"527 167 OFFCURVE",
"527 274 CURVE SMOOTH",
"527 372 OFFCURVE",
"586 444 OFFCURVE",
"674 444 CURVE SMOOTH",
"754 444 OFFCURVE",
"808 387 OFFCURVE",
"810 307 CURVE",
"507 307 LINE"
);
}
);
width = 972;
}
);
leftKerningGroup = a;
leftMetricsKey = a;
rightKerningGroup = e;
rightMetricsKey = e;
unicode = 00E6;
},
{
glyphname = b;
layers = (
{
layerId = "137514A2-B611-49B0-92C3-D60BB464318D";
paths = (
{
closed = 1;
nodes = (
"86 742 LINE",
"86 0 LINE",
"217 0 LINE",
"217 742 LINE"
);
},
{
closed = 1;
nodes = (
"255 539 OFFCURVE",
"170 437 OFFCURVE",
"171 266 CURVE",
"170 98 OFFCURVE",
"255 -5 OFFCURVE",
"398 -5 CURVE SMOOTH",
"550 -5 OFFCURVE",
"649 104 OFFCURVE",
"649 265 CURVE SMOOTH",
"649 429 OFFCURVE",
"547 539 OFFCURVE",
"396 539 CURVE SMOOTH"
);
},
{
closed = 1;
nodes = (
"455 430 OFFCURVE",
"517 363 OFFCURVE",
"517 269 CURVE SMOOTH",
"517 174 OFFCURVE",
"455 107 OFFCURVE",
"366 107 CURVE SMOOTH",
"278 107 OFFCURVE",
"216 173 OFFCURVE",
"216 269 CURVE SMOOTH",
"216 363 OFFCURVE",
"278 430 OFFCURVE",
"366 430 CURVE SMOOTH"
);
}
);
width = 681;
}
);
leftKerningGroup = h;
rightKerningGroup = o;
unicode = 0062;
},
{
glyphname = c;
layers = (
{
anchors = (
{
name = bottom;
position = "{290, 0}";
},
{
name = top;
position = "{289, 534}";
}
);
layerId = "137514A2-B611-49B0-92C3-D60BB464318D";
paths = (
{
closed = 1;
nodes = (
"143 539 OFFCURVE",
"32 429 OFFCURVE",
"32 266 CURVE SMOOTH",
"32 105 OFFCURVE",
"142 -5 OFFCURVE",
"302 -5 CURVE SMOOTH",
"407 -5 OFFCURVE",
"487 35 OFFCURVE",
"534 103 CURVE",
"453 170 LINE",
"421 128 OFFCURVE",
"371 107 OFFCURVE",
"309 107 CURVE SMOOTH",
"223 107 OFFCURVE",
"163 171 OFFCURVE",
"163 267 CURVE SMOOTH",
"163 361 OFFCURVE",
"223 425 OFFCURVE",
"309 425 CURVE SMOOTH",
"368 425 OFFCURVE",
"415 403 OFFCURVE",
"449 366 CURVE",
"528 441 LINE",
"480 503 OFFCURVE",
"402 539 OFFCURVE",
"303 539 CURVE SMOOTH"
);
}
);
width = 564;
}
);
leftKerningGroup = o;
rightKerningGroup = c;
unicode = 0063;
},
{
glyphname = d;
layers = (
{
anchors = (
{
name = center;
position = "{-13, 0}";
}
);
layerId = "137514A2-B611-49B0-92C3-D60BB464318D";
paths = (
{
closed = 0;
nodes = (
"425 264 LINE"
);
},
{
closed = 1;
nodes = (
"134 540 OFFCURVE",
"32 431 OFFCURVE",
"32 269 CURVE SMOOTH",
"32 106 OFFCURVE",
"134 -6 OFFCURVE",
"286 -6 CURVE SMOOTH",
"430 -6 OFFCURVE",
"513 99 OFFCURVE",
"512 268 CURVE",
"513 436 OFFCURVE",
"428 540 OFFCURVE",
"284 540 CURVE SMOOTH"
);
},
{
closed = 1;
nodes = (
"405 429 OFFCURVE",
"467 362 OFFCURVE",
"467 266 CURVE SMOOTH",
"467 170 OFFCURVE",
"405 103 OFFCURVE",
"315 103 CURVE SMOOTH",
"225 103 OFFCURVE",
"164 170 OFFCURVE",
"163 266 CURVE SMOOTH",
"164 361 OFFCURVE",
"226 429 OFFCURVE",
"315 429 CURVE SMOOTH"
);
},
{
closed = 1;
nodes = (
"467 742 LINE",
"467 0 LINE",
"598 0 LINE",
"598 742 LINE"
);
}
);
width = 683;
}
);
leftKerningGroup = o;
rightKerningGroup = l;
unicode = 0064;
},
{
glyphname = eth;
layers = (
{
layerId = "137514A2-B611-49B0-92C3-D60BB464318D";
paths = (
{
closed = 1;
nodes = (
"118 689 LINE",
"270 616 OFFCURVE",
"394 491 OFFCURVE",
"433 369 CURVE",
"401 415 OFFCURVE",
"333 444 OFFCURVE",
"260 444 CURVE SMOOTH",
"122 444 OFFCURVE",
"33 358 OFFCURVE",
"33 225 CURVE SMOOTH",
"33 85 OFFCURVE",
"131 -6 OFFCURVE",
"283 -6 CURVE SMOOTH",
"453 -6 OFFCURVE",
"563 103 OFFCURVE",
"563 271 CURVE SMOOTH",
"563 466 OFFCURVE",
"422 653 OFFCURVE",
"205 748 CURVE"
);
},
{
closed = 1;
nodes = (
"371 350 OFFCURVE",
"424 302 OFFCURVE",
"424 228 CURVE SMOOTH",
"424 156 OFFCURVE",
"371 109 OFFCURVE",
"290 109 CURVE SMOOTH",
"210 109 OFFCURVE",
"158 157 OFFCURVE",
"158 232 CURVE SMOOTH",
"158 304 OFFCURVE",
"209 350 OFFCURVE",
"290 350 CURVE SMOOTH"
);
},
{
closed = 1;
nodes = (
"127 575 LINE",
"148 509 LINE",
"516 632 LINE",
"496 699 LINE"
);
}
);
width = 595;
}
);
leftKerningGroup = o;
rightKerningGroup = O;
rightMetricsKey = O;
unicode = 00F0;
},
{
glyphname = dcroat;
layers = (
{
components = (
{
name = d;
}
);
layerId = "137514A2-B611-49B0-92C3-D60BB464318D";
paths = (
{
closed = 1;
nodes = (
"371 683 LINE",
"371 609 LINE",
"665 609 LINE",
"665 683 LINE"
);
}
);
width = 684;
}
);
leftKerningGroup = o;
rightKerningGroup = l;
unicode = 0111;
},
{
glyphname = e;
layers = (
{
anchors = (
{
name = bottom;
position = "{301, 0}";
},
{
name = ogonek;
position = "{532, 10}";
},
{
name = top;
position = "{299, 534}";
}
);
layerId = "137514A2-B611-49B0-92C3-D60BB464318D";
paths = (
{
closed = 1;
nodes = (
"139 222 LINE",
"560 222 LINE",
"573 416 OFFCURVE",
"492 539 OFFCURVE",
"304 539 CURVE SMOOTH",
"144 539 OFFCURVE",
"32 429 OFFCURVE",
"32 266 CURVE SMOOTH",
"32 105 OFFCURVE",
"141 -5 OFFCURVE",
"307 -5 CURVE SMOOTH",
"401 -5 OFFCURVE",
"479 29 OFFCURVE",
"532 87 CURVE",
"462 160 LINE",
"424 121 OFFCURVE",
"373 100 OFFCURVE",
"318 100 CURVE SMOOTH",
"224 100 OFFCURVE",
"159 167 OFFCURVE",
"159 273 CURVE SMOOTH",
"159 372 OFFCURVE",
"217 438 OFFCURVE",
"305 438 CURVE SMOOTH",
"386 438 OFFCURVE",
"438 388 OFFCURVE",
"441 309 CURVE",
"139 309 LINE"
);
}
);
width = 592;
}
);
leftKerningGroup = o;
rightKerningGroup = o;
unicode = 0065;
},
{
glyphname = eogonek;
layers = (
{
layerId = "137514A2-B611-49B0-92C3-D60BB464318D";
paths = (
{
closed = 1;
nodes = (
"130 535 OFFCURVE",
"32 422 OFFCURVE",
"32 268 CURVE SMOOTH",
"32 104 OFFCURVE",
"142 -5 OFFCURVE",
"303 -5 CURVE SMOOTH",
"346 -5 OFFCURVE",
"382 4 OFFCURVE",
"418 25 CURVE",
"379 -28 OFFCURVE",
"357 -78 OFFCURVE",
"357 -121 CURVE SMOOTH",
"357 -180 OFFCURVE",
"399 -202 OFFCURVE",
"439 -202 CURVE SMOOTH",
"479 -202 OFFCURVE",
"514 -178 OFFCURVE",
"536 -141 CURVE",
"500 -98 LINE",
"488 -116 OFFCURVE",
"472 -130 OFFCURVE",
"454 -130 CURVE SMOOTH",
"437 -130 OFFCURVE",
"426 -120 OFFCURVE",
"426 -99 CURVE SMOOTH",
"426 -54 OFFCURVE",
"475 21 OFFCURVE",
"532 87 CURVE",
"463 160 LINE",
"424 121 OFFCURVE",
"372 99 OFFCURVE",
"318 99 CURVE SMOOTH",
"235 99 OFFCURVE",
"182 148 OFFCURVE",
"164 222 CURVE",
"560 222 LINE",
"573 420 OFFCURVE",
"483 543 OFFCURVE",
"304 539 CURVE SMOOTH"
);
},
{
closed = 1;
nodes = (
"386 438 OFFCURVE",
"439 385 OFFCURVE",
"442 309 CURVE",
"162 309 LINE",
"170 385 OFFCURVE",
"228 438 OFFCURVE",
"307 438 CURVE SMOOTH"
);
}
);
width = 592;
}
);
leftKerningGroup = o;
rightKerningGroup = e;
unicode = 0119;
},
{
glyphname = f;
layers = (
{
layerId = "137514A2-B611-49B0-92C3-D60BB464318D";
paths = (
{
closed = 1;
nodes = (
"196 748 OFFCURVE",
"105 687 OFFCURVE",
"105 564 CURVE SMOOTH",
"105 0 LINE",
"235 0 LINE",
"235 568 LINE",
"235 615 OFFCURVE",
"266 636 OFFCURVE",
"304 636 CURVE",
"327 636 OFFCURVE",
"353 627 OFFCURVE",
"374 612 CURVE",
"423 711 LINE",
"387 735 OFFCURVE",
"340 748 OFFCURVE",
"294 748 CURVE"
);
},
{
closed = 1;
nodes = (
"35 513 LINE",
"35 418 LINE",
"370 418 LINE",
"370 513 LINE"
);
}
);
width = 355;
}
);
leftKerningGroup = f;
rightKerningGroup = f;
unicode = 0066;
},
{
glyphname = g;
layers = (
{
anchors = (
{
name = top;
position = "{321, 535}";
}
);
layerId = "137514A2-B611-49B0-92C3-D60BB464318D";
paths = (
{
closed = 1;
nodes = (
"441 535 LINE",
"441 48 LINE SMOOTH",
"441 -37 OFFCURVE",
"379 -90 OFFCURVE",
"283 -90 CURVE SMOOTH",
"220 -90 OFFCURVE",
"166 -70 OFFCURVE",
"116 -34 CURVE",
"64 -128 LINE",
"128 -171 OFFCURVE",
"204 -199 OFFCURVE",
"290 -199 CURVE SMOOTH",
"459 -199 OFFCURVE",
"571 -102 OFFCURVE",
"571 51 CURVE SMOOTH",
"571 535 LINE"
);
},
{
closed = 1;
nodes = (
"127 539 OFFCURVE",
"32 436 OFFCURVE",
"32 285 CURVE SMOOTH",
"32 131 OFFCURVE",
"128 27 OFFCURVE",
"270 27 CURVE SMOOTH",
"406 27 OFFCURVE",
"484 124 OFFCURVE",
"484 284 CURVE",
"484 443 OFFCURVE",
"404 540 OFFCURVE",
"266 539 CURVE SMOOTH"
);
},
{
closed = 1;
nodes = (
"382 435 OFFCURVE",
"441 372 OFFCURVE",
"441 282 CURVE SMOOTH",
"441 192 OFFCURVE",
"382 129 OFFCURVE",
"299 129 CURVE SMOOTH",
"213 129 OFFCURVE",
"156 192 OFFCURVE",
"155 282 CURVE SMOOTH",
"156 371 OFFCURVE",
"214 435 OFFCURVE",
"299 435 CURVE SMOOTH"
);
}
);
width = 642;
}
);
leftKerningGroup = o;
rightKerningGroup = j;
unicode = 0067;
},
{
glyphname = h;
layers = (
{
anchors = (
{
name = bottom;
position = "{629, 0}";
},
{
name = center;
position = "{336, 268}";
},
{
name = top;
position = "{149, 742}";
},
{
name = topright;
position = "{269, 537}";
}
);
layerId = "137514A2-B611-49B0-92C3-D60BB464318D";
paths = (
{
closed = 1;
nodes = (
"607 0 LINE",
"607 334 LINE SMOOTH",
"607 461 OFFCURVE",
"532 540 OFFCURVE",
"409 540 CURVE SMOOTH",
"269 539 OFFCURVE",
"182 455 OFFCURVE",
"182 263 CURVE",
"217 263 LINE",
"217 351 OFFCURVE",
"269 416 OFFCURVE",
"357 417 CURVE SMOOTH",
"431 417 OFFCURVE",
"476 371 OFFCURVE",
"476 296 CURVE SMOOTH",
"476 0 LINE"
);
},
{
closed = 1;
nodes = (
"217 0 LINE",
"217 742 LINE",
"86 742 LINE",
"86 0 LINE"
);
}
);
width = 672;
}
);
leftKerningGroup = h;
rightKerningGroup = n;
unicode = 0068;
},
{
glyphname = hbar;
layers = (
{
components = (
{
name = h;
}
);
layerId = "137514A2-B611-49B0-92C3-D60BB464318D";
paths = (
{
closed = 1;
nodes = (
"3 662 LINE",
"3 585 LINE",
"351 585 LINE",
"351 662 LINE"
);
}
);
width = 795;
}
);
leftKerningGroup = h;
rightKerningGroup = n;
unicode = 0127;
},
{
glyphname = i;
layers = (
{
anchors = (
{
name = _top;
position = "{146, 535}";
},
{
name = ogonek;
position = "{255, 10}";
},
{
name = top;
position = "{146, 535}";
}
);
layerId = "137514A2-B611-49B0-92C3-D60BB464318D";
paths = (
{
closed = 1;
nodes = (
"81 535 LINE",
"81 0 LINE",
"211 0 LINE",
"211 535 LINE"
);
},
{
closed = 1;
nodes = (
"104 765 OFFCURVE",
"73 733 OFFCURVE",
"73 688 CURVE SMOOTH",
"73 644 OFFCURVE",
"104 611 OFFCURVE",
"146 611 CURVE SMOOTH",
"189 611 OFFCURVE",
"220 644 OFFCURVE",
"220 688 CURVE SMOOTH",
"220 733 OFFCURVE",
"189 765 OFFCURVE",
"146 765 CURVE SMOOTH"
);
}
);
width = 291;
}
);
leftKerningGroup = dotlessi;
rightKerningGroup = dotlessi;
unicode = 0069;
},
{
glyphname = idotless;
layers = (
{
anchors = (
{
name = ogonek;
position = "{255, 10}";
},
{
name = top;
position = "{146, 535}";
}
);
layerId = "137514A2-B611-49B0-92C3-D60BB464318D";
paths = (
{
closed = 1;
nodes = (
"81 535 LINE",
"81 0 LINE",
"211 0 LINE",
"211 535 LINE"
);
}
);
width = 291;
}
);
leftKerningGroup = i;
rightKerningGroup = i;
unicode = 0131;
},
{
glyphname = iogonek;
layers = (
{
layerId = "137514A2-B611-49B0-92C3-D60BB464318D";
paths = (
{
closed = 1;
nodes = (
"73 535 LINE",
"73 0 LINE",
"110 0 LINE",
"78 -45 OFFCURVE",
"59 -84 OFFCURVE",
"59 -122 CURVE SMOOTH",
"59 -180 OFFCURVE",
"101 -202 OFFCURVE",
"140 -202 CURVE SMOOTH",
"179 -202 OFFCURVE",
"215 -180 OFFCURVE",
"239 -141 CURVE",
"203 -98 LINE",
"188 -117 OFFCURVE",
"173 -130 OFFCURVE",
"156 -130 CURVE SMOOTH",
"139 -130 OFFCURVE",
"128 -119 OFFCURVE",
"128 -101 CURVE SMOOTH",
"128 -79 OFFCURVE",
"143 -45 OFFCURVE",
"175 0 CURVE",
"204 0 LINE",
"204 535 LINE"
);
},
{
closed = 1;
nodes = (
"96 765 OFFCURVE",
"64 733 OFFCURVE",
"64 687 CURVE SMOOTH",
"64 642 OFFCURVE",
"96 610 OFFCURVE",
"138 610 CURVE SMOOTH",
"181 610 OFFCURVE",
"211 642 OFFCURVE",
"211 687 CURVE SMOOTH",
"211 733 OFFCURVE",
"181 765 OFFCURVE",
"138 765 CURVE SMOOTH"
);
}
);
width = 273;
}
);
leftKerningGroup = i;
rightKerningGroup = i;
unicode = 012F;
},
{
glyphname = j;
layers = (
{
layerId = "137514A2-B611-49B0-92C3-D60BB464318D";
paths = (
{
closed = 1;
nodes = (
"81 535 LINE",
"81 -19 LINE",
"81 -66 OFFCURVE",
"55 -87 OFFCURVE",
"21 -87 CURVE",
"-1 -87 OFFCURVE",
"-25 -79 OFFCURVE",
"-45 -64 CURVE",
"-85 -164 LINE",
"-52 -187 OFFCURVE",
"-10 -200 OFFCURVE",
"32 -200 CURVE",
"124 -200 OFFCURVE",
"211 -140 OFFCURVE",
"211 -15 CURVE",
"211 535 LINE"
);
},
{
closed = 1;
nodes = (
"101 765 OFFCURVE",
"68 733 OFFCURVE",
"68 687 CURVE SMOOTH",
"68 643 OFFCURVE",
"101 610 OFFCURVE",
"146 610 CURVE SMOOTH",
"192 610 OFFCURVE",
"224 643 OFFCURVE",
"224 687 CURVE SMOOTH",
"224 733 OFFCURVE",
"192 765 OFFCURVE",
"146 765 CURVE SMOOTH"
);
}
);
width = 296;
}
);
leftKerningGroup = j;
rightKerningGroup = j;
unicode = 006A;
},
{
glyphname = jdotless;
layers = (
{
anchors = (
{
name = top;
position = "{141, 535}";
}
);
layerId = "137514A2-B611-49B0-92C3-D60BB464318D";
paths = (
{
closed = 1;
nodes = (
"81 535 LINE",
"81 -3 LINE",
"81 -61 OFFCURVE",
"57 -91 OFFCURVE",
"13 -90 CURVE",
"-12 -89 OFFCURVE",
"-36 -82 OFFCURVE",
"-58 -67 CURVE",
"-90 -164 LINE",
"-53 -186 OFFCURVE",
"-8 -198 OFFCURVE",
"41 -199 CURVE",
"147 -200 OFFCURVE",
"212 -135 OFFCURVE",
"212 -22 CURVE",
"212 535 LINE"
);
}
);
width = 283;
}
);
leftKerningGroup = j;
rightKerningGroup = j;
rightMetricsKey = i;
unicode = 0237;
},
{
glyphname = k;
layers = (
{
anchors = (
{
name = bottom;
position = "{126, 0}";
},
{
name = top;
position = "{152, 742}";
},
{
name = topright;
position = "{273, 535}";
}
);
layerId = "137514A2-B611-49B0-92C3-D60BB464318D";
paths = (
{
closed = 0;
nodes = (
"230 111 LINE"
);
},
{
closed = 1;
nodes = (
"86 742 LINE",
"86 0 LINE",
"217 0 LINE",
"217 742 LINE"
);
},
{
closed = 1;
nodes = (
"436 534 LINE",
"207 303 LINE",
"207 139 LINE",
"586 534 LINE"
);
},
{
closed = 1;
nodes = (
"280 262 LINE",
"443 0 LINE",
"598 0 LINE",
"377 346 LINE"
);
}
);
width = 605;
}
);
leftKerningGroup = h;
rightKerningGroup = x;
unicode = 006B;
},
{
glyphname = kgreenlandic;
layers = (
{
anchors = (
{
name = bottom;
position = "{297, 0}";
},
{
name = ogonek;
position = "{255, 10}";
},
{
name = top;
position = "{146, 535}";
}
);
layerId = "137514A2-B611-49B0-92C3-D60BB464318D";
paths = (
{
closed = 0;
nodes = (
"230 111 LINE"
);
},
{
closed = 1;
nodes = (
"81 535 LINE",
"81 0 LINE",
"211 0 LINE",
"211 535 LINE"
);
},
{
closed = 1;
nodes = (
"431 535 LINE",
"202 303 LINE",
"202 139 LINE",
"580 535 LINE"
);
},
{
closed = 1;
nodes = (
"275 262 LINE",
"438 0 LINE",
"593 0 LINE",
"372 346 LINE"
);
}
);
width = 600;
}
);
leftKerningGroup = h;
leftMetricsKey = n;
rightKerningGroup = k;
rightMetricsKey = k;
unicode = 0138;
},
{
glyphname = l;
layers = (
{
anchors = (
{
name = bottom;
position = "{152, 0}";
},
{
name = top;
position = "{152, 742}";
},
{
name = topright;
position = "{273, 535}";
}
);
layerId = "137514A2-B611-49B0-92C3-D60BB464318D";
paths = (
{
closed = 1;
nodes = (
"86 742 LINE",
"86 0 LINE",
"217 0 LINE",
"217 742 LINE"
);
}
);
width = 302;
}
);
leftKerningGroup = h;
rightKerningGroup = l;
unicode = 006C;
},
{
glyphname = ldot;
layers = (
{
components = (
{
name = l;
}
);
layerId = "137514A2-B611-49B0-92C3-D60BB464318D";
paths = (
{
closed = 1;
nodes = (
"275 381 OFFCURVE",
"247 352 OFFCURVE",
"247 310 CURVE SMOOTH",
"247 270 OFFCURVE",
"275 240 OFFCURVE",
"315 240 CURVE SMOOTH",
"353 240 OFFCURVE",
"382 270 OFFCURVE",
"382 310 CURVE SMOOTH",
"382 352 OFFCURVE",
"353 381 OFFCURVE",
"315 381 CURVE SMOOTH"
);
}
);
width = 348;
}
);
leftKerningGroup = h;
leftMetricsKey = l;
rightKerningGroup = l;
unicode = 0140;
},
{
glyphname = lslash;
layers = (
{
components = (
{
name = l;
transform = "{1, 0, 0, 1, 38, 0}";
}
);
layerId = "137514A2-B611-49B0-92C3-D60BB464318D";
paths = (
{
closed = 1;
nodes = (
"-4 431 LINE",
"18 345 LINE",
"369 448 LINE",
"346 535 LINE"
);
}
);
width = 359;
}
);
leftKerningGroup = lslash;
rightKerningGroup = lslash;
unicode = 0142;
},
{
glyphname = m;
layers = (
{
layerId = "137514A2-B611-49B0-92C3-D60BB464318D";
paths = (
{
closed = 1;
nodes = (
"81 535 LINE",
"81 0 LINE",
"211 0 LINE",
"211 535 LINE"
);
},
{
closed = 1;
nodes = (
"262 539 OFFCURVE",
"176 455 OFFCURVE",
"176 264 CURVE",
"211 264 LINE",
"211 351 OFFCURVE",
"262 415 OFFCURVE",
"347 418 CURVE SMOOTH",
"419 418 OFFCURVE",
"463 372 OFFCURVE",
"463 296 CURVE SMOOTH",
"463 0 LINE",
"594 0 LINE",
"594 334 LINE SMOOTH",
"594 461 OFFCURVE",
"520 540 OFFCURVE",
"399 540 CURVE SMOOTH"
);
},
{
closed = 1;
nodes = (
"645 539 OFFCURVE",
"559 455 OFFCURVE",
"559 264 CURVE",
"594 264 LINE",
"594 351 OFFCURVE",
"645 415 OFFCURVE",
"729 418 CURVE SMOOTH",
"802 418 OFFCURVE",
"846 372 OFFCURVE",
"846 296 CURVE SMOOTH",
"846 0 LINE",
"977 0 LINE",
"977 334 LINE SMOOTH",
"977 461 OFFCURVE",
"903 540 OFFCURVE",
"782 540 CURVE SMOOTH"
);
}
);
width = 1041;
}
);
leftKerningGroup = n;
rightKerningGroup = n;
unicode = 006D;
},
{
glyphname = n;
layers = (
{
anchors = (
{
name = bottom;
position = "{338, 0}";
},
{
name = top;
position = "{348, 535}";
}
);
layerId = "137514A2-B611-49B0-92C3-D60BB464318D";
paths = (
{
closed = 1;
nodes = (
"81 535 LINE",
"81 0 LINE",
"212 0 LINE",
"212 535 LINE"
);
},
{
closed = 1;
nodes = (
"263 539 OFFCURVE",
"176 455 OFFCURVE",
"176 263 CURVE",
"211 263 LINE",
"211 351 OFFCURVE",
"263 416 OFFCURVE",
"351 417 CURVE SMOOTH",
"425 417 OFFCURVE",
"470 371 OFFCURVE",
"470 296 CURVE SMOOTH",
"470 0 LINE",
"601 0 LINE",
"601 334 LINE SMOOTH",
"601 461 OFFCURVE",
"526 540 OFFCURVE",
"403 540 CURVE SMOOTH"
);
}
);
width = 666;
}
);
leftKerningGroup = n;
rightKerningGroup = n;
unicode = 006E;
},
{
glyphname = eng;
layers = (
{
anchors = (
{
name = bottom;
position = "{338, 0}";
},
{
name = top;
position = "{348, 535}";
}
);
layerId = "137514A2-B611-49B0-92C3-D60BB464318D";
paths = (
{
closed = 1;
nodes = (
"263 539 OFFCURVE",
"176 455 OFFCURVE",
"176 263 CURVE",
"211 263 LINE",
"211 351 OFFCURVE",
"263 416 OFFCURVE",
"351 417 CURVE SMOOTH",
"425 417 OFFCURVE",
"470 371 OFFCURVE",
"470 296 CURVE SMOOTH",
"470 -19 LINE SMOOTH",
"470 -66 OFFCURVE",
"444 -87 OFFCURVE",
"410 -87 CURVE",
"388 -87 OFFCURVE",
"364 -79 OFFCURVE",
"344 -64 CURVE",
"304 -164 LINE",
"337 -187 OFFCURVE",
"379 -200 OFFCURVE",
"422 -200 CURVE SMOOTH",
"513 -200 OFFCURVE",
"601 -140 OFFCURVE",
"601 -17 CURVE SMOOTH",
"601 334 LINE SMOOTH",
"601 461 OFFCURVE",
"526 540 OFFCURVE",
"403 540 CURVE SMOOTH"
);
},
{
closed = 1;
nodes = (
"81 535 LINE",
"81 0 LINE",
"212 0 LINE",
"212 535 LINE"
);
}
);
width = 666;
}
);
leftKerningGroup = i;
rightKerningGroup = i;
unicode = 014B;
},
{
glyphname = o;
layers = (
{
anchors = (
{
name = top;
position = "{314, 534}";
}
);
layerId = "137514A2-B611-49B0-92C3-D60BB464318D";
paths = (
{
closed = 1;
nodes = (
"147 539 OFFCURVE",
"32 430 OFFCURVE",
"32 268 CURVE SMOOTH",
"32 105 OFFCURVE",
"147 -5 OFFCURVE",
"314 -5 CURVE SMOOTH",
"482 -5 OFFCURVE",
"596 105 OFFCURVE",
"596 268 CURVE SMOOTH",
"596 430 OFFCURVE",
"482 539 OFFCURVE",
"314 539 CURVE SMOOTH"
);
},
{
closed = 1;
nodes = (
"404 427 OFFCURVE",
"466 362 OFFCURVE",
"466 266 CURVE SMOOTH",
"466 170 OFFCURVE",
"404 104 OFFCURVE",
"315 104 CURVE SMOOTH",
"226 104 OFFCURVE",
"164 170 OFFCURVE",
"164 266 CURVE SMOOTH",
"164 362 OFFCURVE",
"226 427 OFFCURVE",
"315 427 CURVE SMOOTH"
);
}
);
width = 629;
}
);
leftKerningGroup = o;
rightKerningGroup = o;
unicode = 006F;
},
{
glyphname = oslash;
layers = (
{
anchors = (
{
name = top;
position = "{314, 534}";
}
);
layerId = "137514A2-B611-49B0-92C3-D60BB464318D";
paths = (
{
closed = 1;
nodes = (
"415 667 LINE",
"153 -144 LINE",
"210 -144 LINE",
"472 667 LINE"
);
},
{
closed = 1;
nodes = (
"147 539 OFFCURVE",
"32 430 OFFCURVE",
"32 268 CURVE SMOOTH",
"32 105 OFFCURVE",
"147 -5 OFFCURVE",
"314 -5 CURVE SMOOTH",
"482 -5 OFFCURVE",
"596 105 OFFCURVE",
"596 268 CURVE SMOOTH",
"596 430 OFFCURVE",
"482 539 OFFCURVE",
"314 539 CURVE SMOOTH"
);
},
{
closed = 1;
nodes = (
"407 438 OFFCURVE",
"473 369 OFFCURVE",
"473 266 CURVE SMOOTH",
"473 163 OFFCURVE",
"407 93 OFFCURVE",
"314 93 CURVE SMOOTH",
"220 93 OFFCURVE",
"155 163 OFFCURVE",
"155 266 CURVE SMOOTH",
"155 369 OFFCURVE",
"220 438 OFFCURVE",
"314 438 CURVE SMOOTH"
);
}
);
width = 629;
}
);
leftKerningGroup = o;
leftMetricsKey = o;
rightKerningGroup = o;
rightMetricsKey = o;
unicode = 00F8;
},
{
glyphname = oe;
layers = (
{
anchors = (
{
name = top;
position = "{520, 534}";
}
);
layerId = "137514A2-B611-49B0-92C3-D60BB464318D";
paths = (
{
closed = 0;
nodes = (
"352 224 LINE"
);
},
{
closed = 1;
nodes = (
"147 539 OFFCURVE",
"32 430 OFFCURVE",
"32 268 CURVE SMOOTH",
"32 105 OFFCURVE",
"147 -5 OFFCURVE",
"314 -5 CURVE SMOOTH",
"472 -5 OFFCURVE",
"570 105 OFFCURVE",
"570 268 CURVE SMOOTH",
"570 430 OFFCURVE",
"472 539 OFFCURVE",
"314 539 CURVE SMOOTH"
);
},
{
closed = 1;
nodes = (
"404 427 OFFCURVE",
"466 362 OFFCURVE",
"466 266 CURVE SMOOTH",
"466 170 OFFCURVE",
"404 104 OFFCURVE",
"315 104 CURVE SMOOTH",
"226 104 OFFCURVE",
"164 170 OFFCURVE",
"164 266 CURVE SMOOTH",
"164 362 OFFCURVE",
"226 427 OFFCURVE",
"315 427 CURVE SMOOTH"
);
},
{
closed = 1;
nodes = (
"567 238 LINE",
"1003 238 LINE",
"1010 418 OFFCURVE",
"904 539 OFFCURVE",
"734 539 CURVE SMOOTH",
"582 539 OFFCURVE",
"487 429 OFFCURVE",
"487 266 CURVE SMOOTH",
"487 105 OFFCURVE",
"579 -5 OFFCURVE",
"737 -5 CURVE SMOOTH",
"832 -5 OFFCURVE",
"910 29 OFFCURVE",
"963 87 CURVE",
"894 160 LINE",
"855 121 OFFCURVE",
"804 100 OFFCURVE",
"748 100 CURVE SMOOTH",
"653 100 OFFCURVE",
"587 167 OFFCURVE",
"587 273 CURVE SMOOTH",
"587 372 OFFCURVE",
"646 444 OFFCURVE",
"735 444 CURVE SMOOTH",
"816 444 OFFCURVE",
"870 387 OFFCURVE",
"873 307 CURVE",
"567 307 LINE"
);
}
);
width = 1034;
}
);
leftKerningGroup = o;
leftMetricsKey = o;
rightKerningGroup = e;
rightMetricsKey = e;
unicode = 0153;
},
{
glyphname = p;
layers = (
{
layerId = "137514A2-B611-49B0-92C3-D60BB464318D";
paths = (
{
closed = 1;
nodes = (
"86 535 LINE",
"86 -194 LINE",
"217 -194 LINE",
"217 535 LINE"
);
},
{
closed = 0;
nodes = (
"265 27 LINE"
);
},
{
closed = 1;
nodes = (
"255 539 OFFCURVE",
"170 437 OFFCURVE",
"171 266 CURVE",
"170 98 OFFCURVE",
"255 -5 OFFCURVE",
"398 -5 CURVE SMOOTH",
"550 -5 OFFCURVE",
"649 104 OFFCURVE",
"649 265 CURVE SMOOTH",
"649 429 OFFCURVE",
"547 539 OFFCURVE",
"396 539 CURVE SMOOTH"
);
},
{
closed = 1;
nodes = (
"455 430 OFFCURVE",
"517 363 OFFCURVE",
"517 269 CURVE SMOOTH",
"517 174 OFFCURVE",
"455 107 OFFCURVE",
"366 107 CURVE SMOOTH",
"278 107 OFFCURVE",
"216 173 OFFCURVE",
"216 269 CURVE SMOOTH",
"216 363 OFFCURVE",
"278 430 OFFCURVE",
"366 430 CURVE SMOOTH"
);
}
);
width = 681;
}
);
leftKerningGroup = p;
rightKerningGroup = o;
unicode = 0070;
},
{
glyphname = thorn;
layers = (
{
anchors = (
{
name = bottom;
position = "{152, 0}";
},
{
name = top;
position = "{152, 742}";
},
{
name = topright;
position = "{273, 535}";
}
);
layerId = "137514A2-B611-49B0-92C3-D60BB464318D";
paths = (
{
closed = 0;
nodes = (
"329 301 LINE"
);
},
{
closed = 1;
nodes = (
"86 535 LINE",
"86 -194 LINE",
"217 -194 LINE",
"217 535 LINE"
);
},
{
closed = 0;
nodes = (
"265 27 LINE"
);
},
{
closed = 1;
nodes = (
"255 539 OFFCURVE",
"170 437 OFFCURVE",
"171 266 CURVE",
"170 98 OFFCURVE",
"255 -5 OFFCURVE",
"398 -5 CURVE SMOOTH",
"550 -5 OFFCURVE",
"649 104 OFFCURVE",
"649 265 CURVE SMOOTH",
"649 429 OFFCURVE",
"547 539 OFFCURVE",
"396 539 CURVE SMOOTH"
);
},
{
closed = 1;
nodes = (
"455 430 OFFCURVE",
"517 363 OFFCURVE",
"517 269 CURVE SMOOTH",
"517 174 OFFCURVE",
"455 107 OFFCURVE",
"366 107 CURVE SMOOTH",
"278 107 OFFCURVE",
"216 173 OFFCURVE",
"216 269 CURVE SMOOTH",
"216 363 OFFCURVE",
"278 430 OFFCURVE",
"366 430 CURVE SMOOTH"
);
},
{
closed = 1;
nodes = (
"86 742 LINE",
"86 0 LINE",
"217 0 LINE",
"217 742 LINE"
);
}
);
width = 682;
}
);
leftKerningGroup = h;
leftMetricsKey = l;
rightKerningGroup = o;
rightMetricsKey = o;
unicode = 00FE;
},
{
glyphname = q;
layers = (
{
layerId = "137514A2-B611-49B0-92C3-D60BB464318D";
paths = (
{
closed = 1;
nodes = (
"467 535 LINE",
"467 -194 LINE",
"598 -194 LINE",
"598 535 LINE"
);
},
{
closed = 0;
nodes = (
"436 170 LINE"
);
},
{
closed = 1;
nodes = (
"134 540 OFFCURVE",
"32 431 OFFCURVE",
"32 269 CURVE SMOOTH",
"32 106 OFFCURVE",
"134 -6 OFFCURVE",
"286 -6 CURVE SMOOTH",
"430 -6 OFFCURVE",
"513 99 OFFCURVE",
"512 268 CURVE",
"513 436 OFFCURVE",
"428 540 OFFCURVE",
"284 540 CURVE SMOOTH"
);
},
{
closed = 1;
nodes = (
"405 429 OFFCURVE",
"467 362 OFFCURVE",
"467 266 CURVE SMOOTH",
"467 170 OFFCURVE",
"405 103 OFFCURVE",
"315 103 CURVE SMOOTH",
"225 103 OFFCURVE",
"164 170 OFFCURVE",
"163 266 CURVE SMOOTH",
"164 361 OFFCURVE",
"226 429 OFFCURVE",
"315 429 CURVE SMOOTH"
);
}
);
width = 683;
}
);
leftKerningGroup = o;
rightKerningGroup = q;
unicode = 0071;
},
{
glyphname = r;
layers = (
{
anchors = (
{
name = bottom;
position = "{143, 0}";
},
{
name = top;
position = "{209, 535}";
}
);
layerId = "137514A2-B611-49B0-92C3-D60BB464318D";
paths = (
{
closed = 1;
nodes = (
"81 535 LINE",
"81 0 LINE",
"212 0 LINE",
"212 535 LINE"
);
},
{
closed = 1;
nodes = (
"258 539 OFFCURVE",
"176 440 OFFCURVE",
"176 263 CURVE",
"211 258 LINE",
"211 355 OFFCURVE",
"280 421 OFFCURVE",
"393 414 CURVE",
"393 540 LINE"
);
}
);
width = 403;
}
);
leftKerningGroup = n;
rightKerningGroup = r;
unicode = 0072;
},
{
glyphname = s;
layers = (
{
anchors = (
{
name = bottom;
position = "{240, 0}";
},
{
name = top;
position = "{248, 535}";
}
);
layerId = "137514A2-B611-49B0-92C3-D60BB464318D";
paths = (
{
closed = 1;
nodes = (
"141 541 OFFCURVE",
"47 490 OFFCURVE",
"47 380 CURVE SMOOTH",
"46 190 OFFCURVE",
"326 244 OFFCURVE",
"326 145 CURVE SMOOTH",
"326 110 OFFCURVE",
"291 95 OFFCURVE",
"246 95 CURVE SMOOTH",
"188 95 OFFCURVE",
"115 119 OFFCURVE",
"65 161 CURVE",
"20 70 LINE",
"76 21 OFFCURVE",
"160 -5 OFFCURVE",
"242 -5 CURVE SMOOTH",
"355 -5 OFFCURVE",
"452 48 OFFCURVE",
"452 157 CURVE SMOOTH",
"453 349 OFFCURVE",
"170 302 OFFCURVE",
"170 392 CURVE SMOOTH",
"170 425 OFFCURVE",
"200 439 OFFCURVE",
"241 439 CURVE SMOOTH",
"287 439 OFFCURVE",
"347 421 OFFCURVE",
"398 390 CURVE",
"445 484 LINE",
"392 520 OFFCURVE",
"319 541 OFFCURVE",
"249 541 CURVE SMOOTH"
);
}
);
width = 482;
}
);
leftKerningGroup = s;
rightKerningGroup = s;
unicode = 0073;
},
{
glyphname = germandbls;
layers = (
{
layerId = "137514A2-B611-49B0-92C3-D60BB464318D";
paths = (
{
closed = 1;
nodes = (
"170 748 OFFCURVE",
"72 647 OFFCURVE",
"72 489 CURVE SMOOTH",
"72 0 LINE",
"202 0 LINE",
"202 499 LINE SMOOTH",
"202 588 OFFCURVE",
"250 643 OFFCURVE",
"330 643 CURVE SMOOTH",
"399 643 OFFCURVE",
"445 601 OFFCURVE",
"445 533 CURVE SMOOTH",
"445 461 OFFCURVE",
"394 418 OFFCURVE",
"313 418 CURVE",
"313 318 LINE",
"328 318 LINE SMOOTH",
"424 318 OFFCURVE",
"485 279 OFFCURVE",
"485 210 CURVE SMOOTH",
"485 144 OFFCURVE",
"432 100 OFFCURVE",
"349 100 CURVE SMOOTH",
"294 100 LINE",
"294 0 LINE",
"345 0 LINE SMOOTH",
"507 0 OFFCURVE",
"612 87 OFFCURVE",
"612 212 CURVE SMOOTH",
"612 304 OFFCURVE",
"548 362 OFFCURVE",
"461 382 CURVE",
"528 410 OFFCURVE",
"571 477 OFFCURVE",
"571 552 CURVE SMOOTH",
"571 671 OFFCURVE",
"473 748 OFFCURVE",
"331 748 CURVE SMOOTH"
);
}
);
width = 656;
}
);
leftKerningGroup = f;
leftMetricsKey = U;
rightKerningGroup = B;
rightMetricsKey = B;
unicode = 00DF;
},
{
glyphname = t;
layers = (
{
anchors = (
{
name = bottom;
position = "{249, 0}";
},
{
name = center;
position = "{207, 268}";
}
);
layerId = "137514A2-B611-49B0-92C3-D60BB464318D";
paths = (
{
closed = 1;
nodes = (
"103 660 LINE",
"103 154 LINE",
"103 44 OFFCURVE",
"174 -6 OFFCURVE",
"260 -6 CURVE",
"307 -6 OFFCURVE",
"354 8 OFFCURVE",
"395 33 CURVE",
"364 131 LINE",
"335 117 OFFCURVE",
"310 109 OFFCURVE",
"288 109 CURVE",
"253 109 OFFCURVE",
"233 126 OFFCURVE",
"233 177 CURVE",
"233 660 LINE"
);
},
{
closed = 1;
nodes = (
"27 513 LINE",
"27 418 LINE",
"385 418 LINE",
"385 513 LINE"
);
}
);
width = 415;
}
);
leftKerningGroup = u;
rightKerningGroup = t;
unicode = 0074;
},
{
glyphname = tbar;
layers = (
{
anchors = (
{
name = bottom;
position = "{249, 0}";
},
{
name = center;
position = "{207, 268}";
}
);
layerId = "137514A2-B611-49B0-92C3-D60BB464318D";
paths = (
{
closed = 1;
nodes = (
"103 660 LINE",
"103 154 LINE",
"103 44 OFFCURVE",
"174 -6 OFFCURVE",
"260 -6 CURVE",
"307 -6 OFFCURVE",
"354 8 OFFCURVE",
"395 33 CURVE",
"364 131 LINE",
"335 117 OFFCURVE",
"310 109 OFFCURVE",
"288 109 CURVE",
"253 109 OFFCURVE",
"233 126 OFFCURVE",
"233 177 CURVE",
"233 660 LINE"
);
},
{
closed = 1;
nodes = (
"27 513 LINE",
"27 424 LINE",
"385 423 LINE",
"385 513 LINE"
);
},
{
closed = 1;
nodes = (
"28 336 LINE",
"28 246 LINE",
"386 246 LINE",
"386 336 LINE"
);
}
);
width = 415;
}
);
leftKerningGroup = t;
rightKerningGroup = t;
unicode = 0167;
},
{
glyphname = u;
layers = (
{
anchors = (
{
name = ogonek;
position = "{599, 10}";
},
{
name = top;
position = "{324, 535}";
}
);
layerId = "137514A2-B611-49B0-92C3-D60BB464318D";
paths = (
{
closed = 1;
nodes = (
"575 0 LINE",
"575 535 LINE",
"444 535 LINE",
"444 0 LINE"
);
},
{
closed = 1;
nodes = (
"394 -5 OFFCURVE",
"478 80 OFFCURVE",
"478 271 CURVE",
"444 271 LINE",
"444 185 OFFCURVE",
"394 119 OFFCURVE",
"310 118 CURVE SMOOTH",
"238 118 OFFCURVE",
"195 163 OFFCURVE",
"195 238 CURVE SMOOTH",
"195 535 LINE",
"64 535 LINE",
"64 200 LINE SMOOTH",
"64 74 OFFCURVE",
"138 -5 OFFCURVE",
"258 -5 CURVE SMOOTH"
);
}
);
width = 656;
}
);
leftKerningGroup = u;
rightKerningGroup = i;
unicode = 0075;
},
{
glyphname = uogonek;
layers = (
{
layerId = "137514A2-B611-49B0-92C3-D60BB464318D";
paths = (
{
closed = 1;
nodes = (
"445 535 LINE",
"445 253 LINE SMOOTH",
"438 176 OFFCURVE",
"389 119 OFFCURVE",
"310 118 CURVE SMOOTH",
"239 118 OFFCURVE",
"194 163 OFFCURVE",
"194 238 CURVE SMOOTH",
"194 535 LINE",
"64 535 LINE",
"64 200 LINE SMOOTH",
"64 74 OFFCURVE",
"137 -5 OFFCURVE",
"258 -5 CURVE SMOOTH",
"343 -5 OFFCURVE",
"408 27 OFFCURVE",
"445 96 CURVE",
"445 0 LINE",
"479 0 LINE",
"447 -45 OFFCURVE",
"428 -84 OFFCURVE",
"428 -122 CURVE SMOOTH",
"428 -180 OFFCURVE",
"471 -202 OFFCURVE",
"509 -202 CURVE SMOOTH",
"548 -202 OFFCURVE",
"584 -180 OFFCURVE",
"608 -141 CURVE",
"572 -98 LINE",
"557 -117 OFFCURVE",
"542 -130 OFFCURVE",
"524 -130 CURVE SMOOTH",
"508 -130 OFFCURVE",
"497 -119 OFFCURVE",
"497 -101 CURVE SMOOTH",
"497 -79 OFFCURVE",
"511 -45 OFFCURVE",
"545 0 CURVE",
"575 0 LINE",
"575 535 LINE"
);
}
);
width = 650;
}
);
leftKerningGroup = u;
leftMetricsKey = u;
rightKerningGroup = u;
unicode = 0173;
},
{
glyphname = v;
layers = (
{
layerId = "137514A2-B611-49B0-92C3-D60BB464318D";
paths = (
{
closed = 1;
nodes = (
"413 535 LINE",
"275 128 LINE",
"136 535 LINE",
"-1 534 LINE",
"205 0 LINE",
"339 0 LINE",
"543 535 LINE"
);
}
);
width = 537;
}
);
leftKerningGroup = v;
rightKerningGroup = v;
unicode = 0076;
},
{
glyphname = w;
layers = (
{
anchors = (
{
name = top;
position = "{453, 535}";
}
);
layerId = "137514A2-B611-49B0-92C3-D60BB464318D";
paths = (
{
closed = 1;
nodes = (
"780 535 LINE",
"651 131 LINE",
"523 535 LINE",
"391 535 LINE",
"264 131 LINE",
"134 535 LINE",
"-1 534 LINE",
"196 0 LINE",
"329 0 LINE",
"455 377 LINE",
"583 0 LINE",
"716 0 LINE",
"911 535 LINE"
);
}
);
width = 905;
}
);
leftKerningGroup = v;
rightKerningGroup = v;
unicode = 0077;
},
{
glyphname = x;
layers = (
{
layerId = "137514A2-B611-49B0-92C3-D60BB464318D";
paths = (
{
closed = 1;
nodes = (
"24 535 LINE",
"198 274 LINE",
"11 0 LINE",
"156 0 LINE",
"285 187 LINE",
"404 0 LINE",
"554 0 LINE",
"371 274 LINE",
"542 535 LINE",
"399 535 LINE",
"285 361 LINE",
"174 535 LINE"
);
}
);
width = 568;
}
);
leftKerningGroup = x;
rightKerningGroup = x;
unicode = 0078;
},
{
glyphname = y;
layers = (
{
anchors = (
{
name = top;
position = "{273, 535}";
}
);
layerId = "137514A2-B611-49B0-92C3-D60BB464318D";
paths = (
{
closed = 1;
nodes = (
"420 535 LINE",
"280 146 LINE",
"128 535 LINE",
"-7 535 LINE",
"214 9 LINE",
"198 -26 LINE SMOOTH",
"181 -63 OFFCURVE",
"154 -80 OFFCURVE",
"121 -80 CURVE SMOOTH",
"96 -80 OFFCURVE",
"76 -72 OFFCURVE",
"51 -53 CURVE",
"-4 -152 LINE",
"36 -185 OFFCURVE",
"77 -200 OFFCURVE",
"128 -200 CURVE SMOOTH",
"213 -200 OFFCURVE",
"276 -156 OFFCURVE",
"311 -67 CURVE SMOOTH",
"550 535 LINE"
);
}
);
width = 544;
}
);
leftKerningGroup = v;
rightKerningGroup = v;
unicode = 0079;
},
{
glyphname = z;
layers = (
{
anchors = (
{
name = top;
position = "{271, 534}";
}
);
layerId = "137514A2-B611-49B0-92C3-D60BB464318D";
paths = (
{
closed = 1;
nodes = (
"52 534 LINE",
"52 429 LINE",
"336 428 LINE",
"42 86 LINE",
"42 0 LINE",
"506 -1 LINE",
"506 105 LINE",
"204 106 LINE",
"498 448 LINE",
"498 534 LINE"
);
}
);
width = 541;
}
);
leftKerningGroup = z;
rightKerningGroup = z;
unicode = 007A;
},
{
glyphname = a.ss01;
layers = (
{
anchors = (
{
name = ogonek;
position = "{629, 10}";
},
{
name = top;
position = "{334, 535}";
}
);
layerId = "137514A2-B611-49B0-92C3-D60BB464318D";
paths = (
{
closed = 1;
nodes = (
"466 535 LINE",
"466 0 LINE",
"596 0 LINE",
"596 535 LINE"
);
},
{
closed = 1;
nodes = (
"132 539 OFFCURVE",
"32 430 OFFCURVE",
"32 269 CURVE SMOOTH",
"32 106 OFFCURVE",
"134 -6 OFFCURVE",
"286 -6 CURVE SMOOTH",
"430 -6 OFFCURVE",
"513 99 OFFCURVE",
"512 268 CURVE",
"513 437 OFFCURVE",
"427 541 OFFCURVE",
"282 540 CURVE SMOOTH"
);
},
{
closed = 1;
nodes = (
"405 429 OFFCURVE",
"466 362 OFFCURVE",
"467 266 CURVE SMOOTH",
"466 170 OFFCURVE",
"405 103 OFFCURVE",
"315 103 CURVE SMOOTH",
"225 103 OFFCURVE",
"164 170 OFFCURVE",
"163 266 CURVE SMOOTH",
"164 361 OFFCURVE",
"226 429 OFFCURVE",
"315 429 CURVE SMOOTH"
);
}
);
width = 676;
}
);
leftKerningGroup = o;
leftMetricsKey = o;
rightKerningGroup = dotlessi;
rightMetricsKey = dotlessi;
},
{
glyphname = ae.ss01;
layers = (
{
anchors = (
{
name = top;
position = "{477, 535}";
}
);
layerId = "137514A2-B611-49B0-92C3-D60BB464318D";
paths = (
{
closed = 0;
nodes = (
"553 124 LINE"
);
},
{
closed = 1;
nodes = (
"239 321 LINE SMOOTH",
"110 320 OFFCURVE",
"37 259 OFFCURVE",
"37 161 CURVE SMOOTH",
"37 65 OFFCURVE",
"109 -6 OFFCURVE",
"227 -6 CURVE SMOOTH",
"343 -6 OFFCURVE",
"427 44 OFFCURVE",
"468 141 CURVE",
"398 193 LINE",
"393 136 OFFCURVE",
"333 94 OFFCURVE",
"255 94 CURVE SMOOTH",
"196 94 OFFCURVE",
"160 123 OFFCURVE",
"160 168 CURVE SMOOTH",
"160 215 OFFCURVE",
"192 234 OFFCURVE",
"261 234 CURVE SMOOTH",
"412 234 LINE",
"412 321 LINE"
);
},
{
closed = 1;
nodes = (
"116 384 LINE",
"171 417 OFFCURVE",
"225 434 OFFCURVE",
"274 434 CURVE SMOOTH",
"355 434 OFFCURVE",
"396 397 OFFCURVE",
"396 334 CURVE",
"397 149 LINE",
"526 138 LINE",
"525 350 LINE SMOOTH",
"524 469 OFFCURVE",
"444 540 OFFCURVE",
"304 540 CURVE SMOOTH",
"205 540 OFFCURVE",
"146 517 OFFCURVE",
"69 474 CURVE"
);
},
{
closed = 1;
nodes = (
"804 125 OFFCURVE",
"752 99 OFFCURVE",
"696 99 CURVE SMOOTH",
"602 99 OFFCURVE",
"537 169 OFFCURVE",
"537 275 CURVE SMOOTH",
"537 379 OFFCURVE",
"594 437 OFFCURVE",
"684 437 CURVE SMOOTH",
"743 437 OFFCURVE",
"786 413 OFFCURVE",
"808 355 CURVE",
"513 271 LINE",
"517 181 LINE",
"934 299 LINE",
"926 448 OFFCURVE",
"829 541 OFFCURVE",
"680 539 CURVE SMOOTH",
"514 538 OFFCURVE",
"412 426 OFFCURVE",
"412 268 CURVE SMOOTH",
"412 104 OFFCURVE",
"523 -5 OFFCURVE",
"687 -5 CURVE SMOOTH",
"781 -5 OFFCURVE",
"861 30 OFFCURVE",
"922 104 CURVE",
"847 173 LINE"
);
}
);
width = 965;
}
);
leftKerningGroup = ae.ss01;
leftMetricsKey = a;
rightKerningGroup = ae.ss01;
rightMetricsKey = e;
},
{
glyphname = e.ss01;
layers = (
{
anchors = (
{
name = bottom;
position = "{303, 0}";
},
{
name = ogonek;
position = "{545, 10}";
},
{
name = top;
position = "{303, 535}";
}
);
layerId = "137514A2-B611-49B0-92C3-D60BB464318D";
paths = (
{
closed = 1;
nodes = (
"143 182 LINE",
"559 300 LINE",
"552 449 OFFCURVE",
"452 541 OFFCURVE",
"303 539 CURVE SMOOTH",
"137 538 OFFCURVE",
"32 426 OFFCURVE",
"32 267 CURVE SMOOTH",
"32 104 OFFCURVE",
"146 -5 OFFCURVE",
"313 -5 CURVE SMOOTH",
"407 -5 OFFCURVE",
"487 31 OFFCURVE",
"547 104 CURVE",
"472 174 LINE",
"430 125 OFFCURVE",
"378 99 OFFCURVE",
"321 99 CURVE SMOOTH",
"227 99 OFFCURVE",
"163 169 OFFCURVE",
"163 274 CURVE SMOOTH",
"163 380 OFFCURVE",
"220 437 OFFCURVE",
"310 437 CURVE SMOOTH",
"368 437 OFFCURVE",
"410 412 OFFCURVE",
"432 356 CURVE",
"139 272 LINE"
);
}
);
width = 601;
}
);
leftKerningGroup = o;
leftMetricsKey = o;
rightKerningGroup = e;
},
{
glyphname = eogonek.ss01;
layers = (
{
layerId = "137514A2-B611-49B0-92C3-D60BB464318D";
paths = (
{
closed = 1;
nodes = (
"227 99 OFFCURVE",
"163 169 OFFCURVE",
"163 274 CURVE SMOOTH",
"163 380 OFFCURVE",
"220 437 OFFCURVE",
"310 437 CURVE SMOOTH",
"368 437 OFFCURVE",
"410 412 OFFCURVE",
"432 356 CURVE",
"139 272 LINE",
"143 182 LINE",
"559 300 LINE",
"552 449 OFFCURVE",
"452 541 OFFCURVE",
"303 539 CURVE SMOOTH",
"137 538 OFFCURVE",
"32 426 OFFCURVE",
"32 267 CURVE SMOOTH",
"32 104 OFFCURVE",
"146 -5 OFFCURVE",
"313 -5 CURVE",
"352 -5 OFFCURVE",
"390 6 OFFCURVE",
"423 25 CURVE",
"383 -30 OFFCURVE",
"363 -78 OFFCURVE",
"363 -122 CURVE SMOOTH",
"363 -180 OFFCURVE",
"405 -202 OFFCURVE",
"444 -202 CURVE SMOOTH",
"483 -202 OFFCURVE",
"518 -180 OFFCURVE",
"542 -141 CURVE",
"505 -98 LINE",
"492 -117 OFFCURVE",
"476 -130 OFFCURVE",
"459 -130 CURVE SMOOTH",
"443 -130 OFFCURVE",
"431 -119 OFFCURVE",
"431 -101 CURVE SMOOTH",
"431 -52 OFFCURVE",
"481 22 OFFCURVE",
"537 87 CURVE",
"468 160 LINE",
"430 121 OFFCURVE",
"377 99 OFFCURVE",
"321 99 CURVE"
);
}
);
width = 601;
}
);
leftKerningGroup = o;
rightKerningGroup = e;
},
{
glyphname = f.ss01;
layers = (
{
layerId = "137514A2-B611-49B0-92C3-D60BB464318D";
paths = (
{
closed = 1;
nodes = (
"161 748 OFFCURVE",
"70 687 OFFCURVE",
"70 564 CURVE",
"70 0 LINE",
"200 0 LINE",
"200 568 LINE",
"200 615 OFFCURVE",
"231 636 OFFCURVE",
"269 636 CURVE",
"292 636 OFFCURVE",
"318 627 OFFCURVE",
"339 612 CURVE",
"388 711 LINE",
"352 735 OFFCURVE",
"305 748 OFFCURVE",
"259 748 CURVE"
);
},
{
closed = 1;
nodes = (
"82 513 LINE",
"82 418 LINE",
"334 418 LINE",
"334 513 LINE"
);
}
);
width = 330;
}
);
leftKerningGroup = f.ss01;
rightKerningGroup = f.ss01;
},
{
glyphname = g.ss01;
layers = (
{
anchors = (
{
name = top;
position = "{316, 535}";
}
);
layerId = "137514A2-B611-49B0-92C3-D60BB464318D";
paths = (
{
closed = 1;
nodes = (
"440 535 LINE",
"440 48 LINE SMOOTH",
"440 -37 OFFCURVE",
"378 -91 OFFCURVE",
"283 -90 CURVE SMOOTH",
"216 -89 OFFCURVE",
"160 -51 OFFCURVE",
"124 3 CURVE",
"57 -76 LINE",
"100 -152 OFFCURVE",
"191 -198 OFFCURVE",
"289 -199 CURVE SMOOTH",
"459 -200 OFFCURVE",
"570 -102 OFFCURVE",
"570 51 CURVE SMOOTH",
"570 535 LINE"
);
},
{
closed = 1;
nodes = (
"126 538 OFFCURVE",
"32 436 OFFCURVE",
"32 285 CURVE SMOOTH",
"32 131 OFFCURVE",
"127 27 OFFCURVE",
"271 27 CURVE SMOOTH",
"406 27 OFFCURVE",
"484 124 OFFCURVE",
"483 284 CURVE",
"484 443 OFFCURVE",
"404 540 OFFCURVE",
"267 539 CURVE SMOOTH"
);
},
{
closed = 1;
nodes = (
"382 434 OFFCURVE",
"440 372 OFFCURVE",
"441 282 CURVE SMOOTH",
"440 192 OFFCURVE",
"382 129 OFFCURVE",
"299 129 CURVE SMOOTH",
"213 129 OFFCURVE",
"156 192 OFFCURVE",
"155 282 CURVE SMOOTH",
"156 371 OFFCURVE",
"214 434 OFFCURVE",
"299 434 CURVE SMOOTH"
);
}
);
width = 642;
}
);
leftKerningGroup = o;
leftMetricsKey = o;
rightKerningGroup = j;
rightMetricsKey = j;
},
{
glyphname = l.ss01;
layers = (
{
anchors = (
{
name = bottom;
position = "{161, 0}";
},
{
name = top;
position = "{161, 535}";
},
{
name = topright;
position = "{302, 535}";
}
);
layerId = "137514A2-B611-49B0-92C3-D60BB464318D";
paths = (
{
closed = 1;
nodes = (
"72 162 LINE SMOOTH",
"72 50 OFFCURVE",
"137 -6 OFFCURVE",
"218 -6 CURVE SMOOTH",
"250 -6 OFFCURVE",
"285 3 OFFCURVE",
"319 20 CURVE",
"303 129 LINE",
"283 119 OFFCURVE",
"266 113 OFFCURVE",
"250 113 CURVE SMOOTH",
"221 113 OFFCURVE",
"202 132 OFFCURVE",
"202 173 CURVE SMOOTH",
"202 742 LINE",
"72 742 LINE"
);
}
);
width = 318;
}
);
leftKerningGroup = l.ss01;
rightKerningGroup = l.ss01;
},
{
glyphname = oe.ss01;
layers = (
{
anchors = (
{
name = bottom;
position = "{931, 0}";
},
{
name = ogonek;
position = "{1173, 10}";
},
{
name = top;
position = "{931, 535}";
}
);
layerId = "137514A2-B611-49B0-92C3-D60BB464318D";
paths = (
{
closed = 1;
nodes = (
"147 539 OFFCURVE",
"32 430 OFFCURVE",
"32 268 CURVE SMOOTH",
"32 105 OFFCURVE",
"147 -5 OFFCURVE",
"314 -5 CURVE SMOOTH",
"472 -5 OFFCURVE",
"570 105 OFFCURVE",
"570 268 CURVE SMOOTH",
"570 430 OFFCURVE",
"472 539 OFFCURVE",
"314 539 CURVE SMOOTH"
);
},
{
closed = 1;
nodes = (
"403 428 OFFCURVE",
"465 362 OFFCURVE",
"465 266 CURVE SMOOTH",
"465 170 OFFCURVE",
"403 104 OFFCURVE",
"314 104 CURVE SMOOTH",
"225 104 OFFCURVE",
"163 170 OFFCURVE",
"163 266 CURVE SMOOTH",
"163 362 OFFCURVE",
"225 428 OFFCURVE",
"314 428 CURVE SMOOTH"
);
},
{
closed = 1;
nodes = (
"578 538 OFFCURVE",
"488 426 OFFCURVE",
"488 267 CURVE SMOOTH",
"488 104 OFFCURVE",
"587 -5 OFFCURVE",
"746 -5 CURVE SMOOTH",
"840 -5 OFFCURVE",
"920 31 OFFCURVE",
"981 104 CURVE",
"905 174 LINE",
"863 125 OFFCURVE",
"811 99 OFFCURVE",
"755 99 CURVE SMOOTH",
"660 99 OFFCURVE",
"596 169 OFFCURVE",
"596 274 CURVE SMOOTH",
"596 380 OFFCURVE",
"653 437 OFFCURVE",
"743 437 CURVE SMOOTH",
"802 437 OFFCURVE",
"843 412 OFFCURVE",
"865 356 CURVE",
"572 272 LINE",
"576 182 LINE",
"992 300 LINE",
"985 449 OFFCURVE",
"885 541 OFFCURVE",
"736 539 CURVE SMOOTH"
);
}
);
width = 1034;
}
);
leftKerningGroup = o;
leftMetricsKey = "=o";
rightKerningGroup = o;
rightMetricsKey = e.ss01;
},
{
glyphname = t.ss01;
layers = (
{
anchors = (
{
name = bottom;
position = "{202, 0}";
},
{
name = center;
position = "{173, 268}";
}
);
layerId = "137514A2-B611-49B0-92C3-D60BB464318D";
paths = (
{
closed = 1;
nodes = (
"68 660 LINE",
"68 170 LINE",
"68 54 OFFCURVE",
"138 -6 OFFCURVE",
"228 -6 CURVE",
"271 -6 OFFCURVE",
"319 8 OFFCURVE",
"360 33 CURVE",
"329 131 LINE",
"300 117 OFFCURVE",
"274 109 OFFCURVE",
"255 109 CURVE",
"218 109 OFFCURVE",
"198 135 OFFCURVE",
"198 193 CURVE",
"198 660 LINE"
);
},
{
closed = 1;
nodes = (
"93 513 LINE",
"93 418 LINE",
"351 418 LINE",
"351 513 LINE"
);
}
);
width = 380;
}
);
leftKerningGroup = u;
rightKerningGroup = t;
rightMetricsKey = t;
},
{
glyphname = tbar.ss01;
layers = (
{
anchors = (
{
name = bottom;
position = "{202, 0}";
},
{
name = center;
position = "{173, 268}";
}
);
layerId = "137514A2-B611-49B0-92C3-D60BB464318D";
paths = (
{
closed = 1;
nodes = (
"68 660 LINE",
"68 170 LINE",
"68 54 OFFCURVE",
"138 -6 OFFCURVE",
"228 -6 CURVE",
"271 -6 OFFCURVE",
"319 8 OFFCURVE",
"360 33 CURVE",
"329 131 LINE",
"300 117 OFFCURVE",
"274 109 OFFCURVE",
"255 109 CURVE",
"218 109 OFFCURVE",
"198 135 OFFCURVE",
"198 193 CURVE",
"198 660 LINE"
);
},
{
closed = 1;
nodes = (
"93 513 LINE",
"93 423 LINE",
"351 423 LINE",
"351 513 LINE"
);
},
{
closed = 1;
nodes = (
"93 336 LINE",
"93 246 LINE",
"351 246 LINE",
"351 336 LINE"
);
}
);
width = 380;
}
);
leftKerningGroup = tbar.ss01;
rightKerningGroup = tbar.ss01;
},
{
glyphname = w.ss01;
layers = (
{
anchors = (
{
name = top;
position = "{486, 535}";
}
);
layerId = "137514A2-B611-49B0-92C3-D60BB464318D";
paths = (
{
closed = 1;
nodes = (
"780 535 LINE",
"780 230 LINE SMOOTH",
"780 161 OFFCURVE",
"735 117 OFFCURVE",
"669 117 CURVE SMOOTH",
"598 117 OFFCURVE",
"552 161 OFFCURVE",
"552 230 CURVE SMOOTH",
"552 535 LINE",
"421 535 LINE",
"421 230 LINE SMOOTH",
"421 161 OFFCURVE",
"377 117 OFFCURVE",
"308 117 CURVE SMOOTH",
"239 117 OFFCURVE",
"193 161 OFFCURVE",
"193 230 CURVE SMOOTH",
"193 535 LINE",
"63 535 LINE",
"63 224 LINE SMOOTH",
"63 86 OFFCURVE",
"153 -6 OFFCURVE",
"287 -6 CURVE SMOOTH",
"372 -6 OFFCURVE",
"453 39 OFFCURVE",
"487 107 CURVE",
"523 39 OFFCURVE",
"604 -6 OFFCURVE",
"688 -6 CURVE SMOOTH",
"822 -6 OFFCURVE",
"910 86 OFFCURVE",
"910 224 CURVE SMOOTH",
"910 535 LINE"
);
}
);
width = 973;
}
);
leftKerningGroup = u;
rightKerningGroup = w.ss01;
},
{
glyphname = y.ss01;
layers = (
{
anchors = (
{
name = top;
position = "{323, 535}";
}
);
layerId = "137514A2-B611-49B0-92C3-D60BB464318D";
paths = (
{
closed = 1;
nodes = (
"417 46 OFFCURVE",
"494 141 OFFCURVE",
"494 329 CURVE",
"453 329 LINE",
"453 230 OFFCURVE",
"401 169 OFFCURVE",
"314 168 CURVE SMOOTH",
"240 168 OFFCURVE",
"195 213 OFFCURVE",
"195 288 CURVE SMOOTH",
"195 535 LINE",
"64 535 LINE",
"64 251 LINE SMOOTH",
"64 124 OFFCURVE",
"139 44 OFFCURVE",
"260 44 CURVE SMOOTH"
);
},
{
closed = 1;
nodes = (
"454 535 LINE",
"454 59 LINE",
"454 -33 OFFCURVE",
"393 -90 OFFCURVE",
"298 -90 CURVE SMOOTH",
"237 -88 OFFCURVE",
"166 -63 OFFCURVE",
"116 -26 CURVE",
"82 -121 LINE",
"139 -167 OFFCURVE",
"232 -198 OFFCURVE",
"312 -199 CURVE",
"476 -200 OFFCURVE",
"583 -98 OFFCURVE",
"583 57 CURVE",
"583 535 LINE"
);
}
);
width = 654;
}
);
leftKerningGroup = u;
leftMetricsKey = u;
rightKerningGroup = j;
rightMetricsKey = g;
},
{
glyphname = z.ss01;
layers = (
{
anchors = (
{
name = top;
position = "{271, 535}";
}
);
layerId = "137514A2-B611-49B0-92C3-D60BB464318D";
paths = (
{
closed = 1;
nodes = (
"256 311 LINE",
"256 220 LINE",
"459 220 LINE",
"459 311 LINE"
);
},
{
closed = 1;
nodes = (
"79 318 LINE",
"79 227 LINE",
"265 227 LINE",
"265 318 LINE"
);
},
{
closed = 1;
nodes = (
"52 534 LINE",
"52 429 LINE",
"336 428 LINE",
"42 86 LINE",
"42 0 LINE",
"506 -1 LINE",
"506 105 LINE",
"204 106 LINE",
"498 448 LINE",
"498 534 LINE"
);
}
);
width = 541;
}
);
leftKerningGroup = z;
leftMetricsKey = z;
rightKerningGroup = z;
rightMetricsKey = z;
},
{
glyphname = fi;
layers = (
{
components = (
{
name = i;
transform = "{1, 0, 0, 1, 355, 0}";
}
);
layerId = "137514A2-B611-49B0-92C3-D60BB464318D";
paths = (
{
closed = 1;
nodes = (
"198 748 OFFCURVE",
"105 689 OFFCURVE",
"105 564 CURVE",
"105 0 LINE",
"235 0 LINE",
"235 568 LINE",
"235 616 OFFCURVE",
"264 635 OFFCURVE",
"304 635 CURVE",
"330 635 OFFCURVE",
"362 626 OFFCURVE",
"391 613 CURVE",
"395 725 LINE",
"367 740 OFFCURVE",
"331 748 OFFCURVE",
"294 748 CURVE"
);
},
{
closed = 1;
nodes = (
"35 515 LINE",
"35 420 LINE",
"370 420 LINE",
"370 515 LINE"
);
}
);
width = 646;
}
);
leftKerningGroup = f;
leftMetricsKey = f;
rightKerningGroup = dotlessi;
rightMetricsKey = i;
unicode = FB01;
},
{
glyphname = fl;
layers = (
{
components = (
{
name = l;
transform = "{1, 0, 0, 1, 366, 0}";
}
);
layerId = "137514A2-B611-49B0-92C3-D60BB464318D";
paths = (
{
closed = 1;
nodes = (
"183 753 OFFCURVE",
"105 681 OFFCURVE",
"105 576 CURVE",
"105 0 LINE",
"235 0 LINE",
"235 556 LINE",
"235 608 OFFCURVE",
"271 644 OFFCURVE",
"321 643 CURVE",
"345 642 OFFCURVE",
"371 633 OFFCURVE",
"392 618 CURVE",
"396 731 LINE",
"370 744 OFFCURVE",
"331 751 OFFCURVE",
"295 752 CURVE"
);
},
{
closed = 1;
nodes = (
"36 515 LINE",
"35 421 LINE",
"370 421 LINE",
"371 515 LINE"
);
}
);
width = 668;
}
);
leftKerningGroup = f;
leftMetricsKey = f;
rightKerningGroup = l;
rightMetricsKey = l;
unicode = FB02;
},
{
glyphname = fi.ss01;
lastChange = "2016-05-14 08:45:33 +0000";
layers = (
{
components = (
{
name = i;
transform = "{1, 0, 0, 1, 329, 0}";
}
);
layerId = "137514A2-B611-49B0-92C3-D60BB464318D";
paths = (
{
closed = 1;
nodes = (
"163 748 OFFCURVE",
"70 689 OFFCURVE",
"70 564 CURVE",
"70 0 LINE",
"200 0 LINE",
"200 568 LINE",
"200 616 OFFCURVE",
"229 635 OFFCURVE",
"269 635 CURVE",
"295 635 OFFCURVE",
"327 626 OFFCURVE",
"356 613 CURVE",
"360 725 LINE",
"332 740 OFFCURVE",
"296 748 OFFCURVE",
"259 748 CURVE"
);
},
{
closed = 1;
nodes = (
"99 513 LINE",
"99 418 LINE",
"334 418 LINE",
"334 513 LINE"
);
}
);
width = 620;
}
);
leftKerningGroup = f;
leftMetricsKey = f.ss01;
rightKerningGroup = dotlessi;
rightMetricsKey = i;
},
{
glyphname = fl.ss01;
layers = (
{
anchors = (
{
name = caret_1;
position = "{344, 0}";
}
);
layerId = "137514A2-B611-49B0-92C3-D60BB464318D";
paths = (
{
closed = 1;
nodes = (
"668 29 LINE",
"649 19 OFFCURVE",
"632 13 OFFCURVE",
"616 13 CURVE SMOOTH",
"586 13 OFFCURVE",
"567 32 OFFCURVE",
"567 73 CURVE SMOOTH",
"567 557 LINE SMOOTH",
"567 679 OFFCURVE",
"489 747 OFFCURVE",
"341 747 CURVE SMOOTH",
"188 748 OFFCURVE",
"107 686 OFFCURVE",
"106 570 CURVE SMOOTH",
"106 504 LINE",
"35 504 LINE",
"35 409 LINE",
"106 409 LINE",
"106 0 LINE",
"235 0 LINE",
"236 409 LINE",
"345 409 LINE",
"345 504 LINE",
"236 504 LINE",
"235 567 LINE SMOOTH",
"235 612 OFFCURVE",
"269 637 OFFCURVE",
"333 636 CURVE SMOOTH",
"402 635 OFFCURVE",
"437 605 OFFCURVE",
"437 549 CURVE SMOOTH",
"437 62 LINE SMOOTH",
"437 -50 OFFCURVE",
"502 -106 OFFCURVE",
"583 -106 CURVE SMOOTH",
"615 -106 OFFCURVE",
"650 -97 OFFCURVE",
"684 -80 CURVE"
);
}
);
width = 683;
}
);
leftKerningGroup = f;
leftMetricsKey = f;
rightKerningGroup = l;
rightMetricsKey = l.ss01;
},
{
glyphname = ordfeminine;
layers = (
{
layerId = "137514A2-B611-49B0-92C3-D60BB464318D";
paths = (
{
closed = 1;
nodes = (
"151 780 OFFCURVE",
"99 766 OFFCURVE",
"49 744 CURVE",
"71 681 LINE",
"109 699 OFFCURVE",
"146 709 OFFCURVE",
"178 709 CURVE",
"226 709 OFFCURVE",
"250 689 OFFCURVE",
"251 655 CURVE",
"251 458 LINE",
"340 458 LINE",
"340 666 LINE",
"341 737 OFFCURVE",
"288 780 OFFCURVE",
"199 780 CURVE"
);
},
{
closed = 1;
nodes = (
"261 644 LINE",
"156 644 LINE",
"75 643 OFFCURVE",
"29 611 OFFCURVE",
"29 551 CURVE",
"29 493 OFFCURVE",
"71 454 OFFCURVE",
"139 454 CURVE",
"201 454 OFFCURVE",
"244 481 OFFCURVE",
"265 532 CURVE",
"251 560 LINE",
"234 528 OFFCURVE",
"205 515 OFFCURVE",
"169 515 CURVE",
"136 515 OFFCURVE",
"115 532 OFFCURVE",
"115 559 CURVE",
"115 584 OFFCURVE",
"137 598 OFFCURVE",
"174 598 CURVE",
"261 598 LINE"
);
}
);
width = 387;
}
);
leftKerningGroup = asterisk;
rightKerningGroup = asterisk;
unicode = 00AA;
},
{
glyphname = ordmasculine;
layers = (
{
layerId = "137514A2-B611-49B0-92C3-D60BB464318D";
paths = (
{
closed = 1;
nodes = (
"98 779 OFFCURVE",
"27 714 OFFCURVE",
"27 617 CURVE SMOOTH",
"27 520 OFFCURVE",
"98 455 OFFCURVE",
"204 455 CURVE SMOOTH",
"309 455 OFFCURVE",
"381 520 OFFCURVE",
"381 617 CURVE SMOOTH",
"381 714 OFFCURVE",
"309 779 OFFCURVE",
"204 779 CURVE SMOOTH"
);
},
{
closed = 1;
nodes = (
"254 704 OFFCURVE",
"289 669 OFFCURVE",
"289 616 CURVE SMOOTH",
"289 563 OFFCURVE",
"254 528 OFFCURVE",
"204 528 CURVE SMOOTH",
"154 528 OFFCURVE",
"119 563 OFFCURVE",
"119 616 CURVE SMOOTH",
"119 669 OFFCURVE",
"154 704 OFFCURVE",
"204 704 CURVE SMOOTH"
);
}
);
width = 408;
}
);
leftKerningGroup = asterisk;
rightKerningGroup = asterisk;
unicode = 00BA;
},
{
glyphname = Delta;
layers = (
{
layerId = "137514A2-B611-49B0-92C3-D60BB464318D";
paths = (
{
closed = 1;
nodes = (
"307 700 LINE",
"-1 0 LINE",
"139 0 LINE",
"372 557 LINE",
"604 0 LINE",
"748 0 LINE",
"445 700 LINE"
);
},
{
closed = 1;
nodes = (
"114 105 LINE",
"114 0 LINE SMOOTH",
"624 0 LINE",
"624 105 LINE"
);
}
);
width = 747;
}
);
leftKerningGroup = A;
rightKerningGroup = A;
unicode = 0394;
},
{
glyphname = Omega;
lastChange = "2016-05-14 08:45:33 +0000";
layers = (
{
anchors = (
{
name = topleft;
position = "{20, 700}";
}
);
layerId = "137514A2-B611-49B0-92C3-D60BB464318D";
paths = (
{
closed = 1;
nodes = (
"230 707 OFFCURVE",
"78 566 OFFCURVE",
"78 375 CURVE SMOOTH",
"78 279 OFFCURVE",
"132 172 OFFCURVE",
"209 113 CURVE",
"8 113 LINE",
"8 0 LINE",
"346 0 LINE",
"346 104 LINE",
"259 157 OFFCURVE",
"197 266 OFFCURVE",
"197 363 CURVE SMOOTH",
"197 494 OFFCURVE",
"298 589 OFFCURVE",
"437 589 CURVE SMOOTH",
"576 589 OFFCURVE",
"678 494 OFFCURVE",
"678 363 CURVE SMOOTH",
"678 266 OFFCURVE",
"616 157 OFFCURVE",
"529 105 CURVE",
"529 0 LINE",
"866 0 LINE",
"866 113 LINE",
"666 113 LINE",
"743 172 OFFCURVE",
"797 280 OFFCURVE",
"797 375 CURVE SMOOTH",
"797 566 OFFCURVE",
"644 707 OFFCURVE",
"437 707 CURVE SMOOTH"
);
}
);
width = 875;
}
);
leftMetricsKey = T;
rightMetricsKey = T;
unicode = 03A9;
},
{
glyphname = pi;
layers = (
{
layerId = "137514A2-B611-49B0-92C3-D60BB464318D";
paths = (
{
closed = 1;
nodes = (
"163 535 LINE",
"62 535 OFFCURVE",
"-12 468 OFFCURVE",
"-11 381 CURVE",
"-11 339 OFFCURVE",
"4 288 OFFCURVE",
"26 250 CURVE",
"116 285 LINE",
"101 308 OFFCURVE",
"91 337 OFFCURVE",
"91 359 CURVE",
"90 403 OFFCURVE",
"128 436 OFFCURVE",
"180 436 CURVE",
"716 436 LINE",
"716 535 LINE"
);
},
{
closed = 1;
nodes = (
"466 453 LINE",
"466 0 LINE",
"575 0 LINE",
"575 453 LINE"
);
},
{
closed = 1;
nodes = (
"227 453 LINE",
"177 0 LINE",
"286 0 LINE",
"336 453 LINE"
);
}
);
width = 726;
}
);
unicode = 03C0;
},
{
glyphname = "aaMatra-gurmukhi";
layers = (
{
anchors = (
{
name = bindu;
position = "{140, 680}";
},
{
name = candra;
position = "{140, 690}";
},
{
name = top;
position = "{140, 670}";
}
);
layerId = "137514A2-B611-49B0-92C3-D60BB464318D";
paths = (
{
closed = 1;
nodes = (
"204 271 LINE",
"204 579 LINE",
"286 579 LINE",
"286 689 LINE",
"0 689 LINE",
"0 579 LINE",
"76 579 LINE",
"76 271 LINE"
);
}
);
width = 286;
}
);
unicode = 0A3E;
},
{
glyphname = "iMatra-gurmukhi";
layers = (
{
anchors = (
{
name = bindu;
position = "{584, 670}";
},
{
name = candra;
position = "{707, 690}";
}
);
layerId = "137514A2-B611-49B0-92C3-D60BB464318D";
paths = (
{
closed = 1;
nodes = (
"208 579 LINE",
"208 739 LINE SMOOTH",
"208 801 OFFCURVE",
"241 831 OFFCURVE",
"289 831 CURVE SMOOTH",
"341 831 OFFCURVE",
"375 805 OFFCURVE",
"409 752 CURVE",
"493 802 LINE",
"440 902 OFFCURVE",
"357 939 OFFCURVE",
"272 939 CURVE SMOOTH",
"168 939 OFFCURVE",
"85 871 OFFCURVE",
"85 749 CURVE SMOOTH",
"85 689 LINE",
"0 689 LINE",
"0 579 LINE"
);
},
{
closed = 1;
nodes = (
"209 0 LINE",
"209 633 LINE",
"176 579 LINE",
"290 579 LINE",
"290 689 LINE",
"80 689 LINE",
"80 0 LINE"
);
}
);
width = 290;
}
);
unicode = 0A3F;
},
{
glyphname = "iiMatra-gurmukhi";
layers = (
{
anchors = (
{
name = bindu;
position = "{283, 670}";
},
{
name = candra;
position = "{415, 690}";
}
);
layerId = "137514A2-B611-49B0-92C3-D60BB464318D";
paths = (
{
closed = 1;
nodes = (
"195 579 LINE",
"195 718 LINE SMOOTH",
"195 844 OFFCURVE",
"107 939 OFFCURVE",
"-19 939 CURVE SMOOTH",
"-124 939 OFFCURVE",
"-183 884 OFFCURVE",
"-201 803 CURVE",
"-94 755 LINE",
"-80 794 OFFCURVE",
"-60 831 OFFCURVE",
"-8 831 CURVE SMOOTH",
"50 831 OFFCURVE",
"71 787 OFFCURVE",
"71 729 CURVE SMOOTH",
"71 629 LINE",
"127 689 LINE",
"-43 689 LINE",
"-43 579 LINE"
);
},
{
closed = 1;
nodes = (
"195 0 LINE",
"195 633 LINE",
"162 579 LINE",
"276 579 LINE",
"276 689 LINE",
"66 689 LINE",
"66 0 LINE"
);
}
);
width = 276;
}
);
rightMetricsKey = "STEM-GURM";
unicode = 0A40;
},
{
glyphname = "a-gurmukhi";
layers = (
{
anchors = (
{
name = bindu;
position = "{700, 689}";
},
{
name = candra;
position = "{700, 699}";
},
{
name = top;
position = "{700, 679}";
}
);
layerId = "137514A2-B611-49B0-92C3-D60BB464318D";
paths = (
{
closed = 1;
nodes = (
"504 183 OFFCURVE",
"533 272 OFFCURVE",
"533 368 CURVE SMOOTH",
"533 533 OFFCURVE",
"448 619 OFFCURVE",
"331 619 CURVE SMOOTH",
"265 619 OFFCURVE",
"216 592 OFFCURVE",
"180 547 CURVE",
"214 547 LINE",
"178 644 OFFCURVE",
"95 689 OFFCURVE",
"3 689 CURVE SMOOTH",
"-14 689 LINE",
"-14 579 LINE",
"12 579 LINE SMOOTH",
"92 579 OFFCURVE",
"139 516 OFFCURVE",
"132 446 CURVE",
"143 498 LINE",
"100 423 OFFCURVE",
"65 330 OFFCURVE",
"61 197 CURVE",
"166 169 LINE",
"219 277 OFFCURVE",
"243 348 OFFCURVE",
"241 432 CURVE",
"236 382 LINE",
"248 468 OFFCURVE",
"293 501 OFFCURVE",
"344 501 CURVE SMOOTH",
"412 501 OFFCURVE",
"432 442 OFFCURVE",
"428 356 CURVE",
"444 423 LINE",
"380 338 OFFCURVE",
"360 280 OFFCURVE",
"348 149 CURVE SMOOTH",
"346 129 OFFCURVE",
"344 102 OFFCURVE",
"344 85 CURVE",
"450 71 LINE"
);
},
{
closed = 1;
nodes = (
"710 312 LINE",
"710 422 LINE",
"463 422 LINE",
"461 312 LINE"
);
},
{
closed = 1;
nodes = (
"782 0 LINE",
"782 633 LINE",
"749 579 LINE",
"863 579 LINE",
"863 689 LINE",
"653 689 LINE",
"653 0 LINE"
);
}
);
width = 863;
}
);
rightMetricsKey = "STEM-GURM";
unicode = 0A05;
},
{
glyphname = "ee-gurmukhi";
layers = (
{
anchors = (
{
name = _top;
position = "{469, 670}";
},
{
name = bindu;
position = "{626, 680}";
},
{
name = bottom;
position = "{384, 2}";
},
{
name = candra;
position = "{714, 690}";
},
{
name = caret_1;
position = "{382, 30}";
},
{
name = nukta;
position = "{103, -41}";
},
{
name = top;
position = "{500, 670}";
}
);
components = (
{
name = "iri-gurmukhi";
}
);
layerId = "137514A2-B611-49B0-92C3-D60BB464318D";
paths = (
{
closed = 1;
nodes = (
"519 643 LINE",
"519 828 OFFCURVE",
"414 943 OFFCURVE",
"226 943 CURVE SMOOTH",
"181 943 OFFCURVE",
"135 936 OFFCURVE",
"96 922 CURVE",
"122 820 LINE",
"160 829 OFFCURVE",
"201 834 OFFCURVE",
"239 834 CURVE SMOOTH",
"371 834 OFFCURVE",
"416 764 OFFCURVE",
"422 643 CURVE"
);
}
);
width = 633;
}
);
unicode = 0A0F;
},
{
glyphname = "ai-gurmukhi";
layers = (
{
anchors = (
{
name = _top;
position = "{700, 679}";
},
{
name = bindu;
position = "{864, 680}";
},
{
name = candra;
position = "{952, 690}";
},
{
name = top;
position = "{729, 679}";
}
);
components = (
{
name = "a-gurmukhi";
}
);
layerId = "137514A2-B611-49B0-92C3-D60BB464318D";
paths = (
{
closed = 1;
nodes = (
"750 664 LINE",
"748 927 OFFCURVE",
"626 1059 OFFCURVE",
"439 1059 CURVE",
"443 965 LINE",
"574 965 OFFCURVE",
"665 896 OFFCURVE",
"682 725 CURVE",
"694 749 LINE",
"650 850 OFFCURVE",
"534 906 OFFCURVE",
"406 906 CURVE SMOOTH",
"352 906 OFFCURVE",
"299 896 OFFCURVE",
"256 877 CURVE",
"281 782 LINE",
"318 795 OFFCURVE",
"369 803 OFFCURVE",
"422 803 CURVE SMOOTH",
"541 803 OFFCURVE",
"653 770 OFFCURVE",
"653 664 CURVE"
);
}
);
width = 863;
}
);
unicode = 0A10;
},
{
glyphname = "oo-gurmukhi";
layers = (
{
anchors = (
{
name = bindu;
position = "{645, 680}";
},
{
name = bottom;
position = "{390, 2}";
},
{
name = candra;
position = "{752, 650}";
},
{
name = caret_1;
position = "{387, 30}";
},
{
name = nukta;
position = "{92, -15}";
},
{
name = top;
position = "{533, 670}";
}
);
layerId = "137514A2-B611-49B0-92C3-D60BB464318D";
paths = (
{
closed = 1;
nodes = (
"524 -11 OFFCURVE",
"605 72 OFFCURVE",
"605 169 CURVE SMOOTH",
"605 257 OFFCURVE",
"537 346 OFFCURVE",
"390 371 CURVE",
"398 319 LINE",
"547 366 OFFCURVE",
"614 470 OFFCURVE",
"614 609 CURVE",
"489 628 LINE",
"489 506 OFFCURVE",
"438 414 OFFCURVE",
"271 414 CURVE SMOOTH",
"124 414 LINE",
"124 316 LINE",
"308 316 LINE SMOOTH",
"430 316 OFFCURVE",
"479 251 OFFCURVE",
"479 192 CURVE SMOOTH",
"479 138 OFFCURVE",
"437 101 OFFCURVE",
"373 101 CURVE SMOOTH",
"215 101 OFFCURVE",
"169 344 OFFCURVE",
"169 536 CURVE SMOOTH",
"169 700 OFFCURVE",
"208 835 OFFCURVE",
"362 835 CURVE SMOOTH",
"392 835 OFFCURVE",
"444 830 OFFCURVE",
"491 820 CURVE",
"516 922 LINE",
"463 937 OFFCURVE",
"400 944 OFFCURVE",
"354 944 CURVE SMOOTH",
"121 944 OFFCURVE",
"47 774 OFFCURVE",
"47 545 CURVE SMOOTH",
"47 265 OFFCURVE",
"146 -11 OFFCURVE",
"390 -11 CURVE SMOOTH"
);
},
{
closed = 1;
nodes = (
"674 579 LINE",
"674 689 LINE",
"-14 689 LINE",
"-14 579 LINE"
);
}
);
width = 660;
}
);
leftMetricsKey = "ura-gurmukhi";
rightMetricsKey = "ura-gurmukhi";
unicode = 0A13;
},
{
glyphname = "ka-gurmukhi";
layers = (
{
anchors = (
{
name = bindu;
position = "{548, 682}";
},
{
name = bottom;
position = "{572, 0}";
},
{
name = candra;
position = "{548, 692}";
},
{
name = caret_1;
position = "{326, 7}";
},
{
name = nukta;
position = "{109, -30}";
},
{
name = top;
position = "{555, 672}";
}
);
layerId = "137514A2-B611-49B0-92C3-D60BB464318D";
paths = (
{
closed = 1;
nodes = (
"635 0 LINE",
"635 17 LINE SMOOTH",
"635 112 OFFCURVE",
"603 221 OFFCURVE",
"545 312 CURVE",
"548 265 LINE",
"592 356 OFFCURVE",
"613 464 OFFCURVE",
"613 556 CURVE SMOOTH",
"613 600 LINE",
"491 600 LINE",
"491 561 LINE SMOOTH",
"491 504 OFFCURVE",
"484 450 OFFCURVE",
"468 401 CURVE",
"412 460 OFFCURVE",
"334 493 OFFCURVE",
"249 493 CURVE SMOOTH",
"105 493 OFFCURVE",
"29 392 OFFCURVE",
"29 289 CURVE SMOOTH",
"29 171 OFFCURVE",
"130 67 OFFCURVE",
"276 67 CURVE SMOOTH",
"375 67 OFFCURVE",
"446 113 OFFCURVE",
"497 189 CURVE",
"474 196 LINE",
"496 141 OFFCURVE",
"507 80 OFFCURVE",
"507 20 CURVE SMOOTH",
"507 0 LINE"
);
},
{
closed = 1;
nodes = (
"203 179 OFFCURVE",
"159 225 OFFCURVE",
"159 280 CURVE SMOOTH",
"159 336 OFFCURVE",
"201 381 OFFCURVE",
"275 381 CURVE SMOOTH",
"345 381 OFFCURVE",
"407 340 OFFCURVE",
"450 269 CURVE",
"448 316 LINE",
"412 228 OFFCURVE",
"351 179 OFFCURVE",
"276 179 CURVE SMOOTH"
);
},
{
closed = 1;
nodes = (
"694 579 LINE",
"694 689 LINE",
"0 689 LINE",
"0 579 LINE"
);
}
);
width = 694;
}
);
leftMetricsKey = "ra-gurmukhi";
rightMetricsKey = "STEM-GURM";
unicode = 0A15;
},
{
glyphname = "kha-gurmukhi";
layers = (
{
anchors = (
{
name = bindu;
position = "{519, 680}";
},
{
name = bottom;
position = "{537, 0}";
},
{
name = candra;
position = "{519, 690}";
},
{
name = caret_1;
position = "{328, 30}";
},
{
name = nukta;
position = "{103, 20}";
},
{
name = top;
position = "{519, 670}";
}
);
components = (
{
name = "pa-gurmukhi";
}
);
layerId = "137514A2-B611-49B0-92C3-D60BB464318D";
paths = (
{
closed = 1;
nodes = (
"529 372.007 LINE",
"529 482 LINE",
"182 482 LINE",
"183 372.007 LINE"
);
}
);
width = 682;
}
);
leftMetricsKey = "pa-gurmukhi";
rightMetricsKey = "pa-gurmukhi";
unicode = 0A16;
},
{
glyphname = "ga-gurmukhi";
layers = (
{
anchors = (
{
name = bindu;
position = "{674, 682}";
},
{
name = bottom;
position = "{692, 0}";
},
{
name = candra;
position = "{674, 690}";
},
{
name = caret_1;
position = "{448, 30}";
},
{
name = nukta;
position = "{63, -21}";
},
{
name = top;
position = "{684, 672}";
}
);
layerId = "137514A2-B611-49B0-92C3-D60BB464318D";
paths = (
{
closed = 1;
nodes = (
"435 -11 OFFCURVE",
"510 38 OFFCURVE",
"510 150 CURVE SMOOTH",
"511 635 LINE",
"382 635 LINE",
"382 409 LINE",
"418 448 LINE",
"216 448 LINE SMOOTH",
"103 448 OFFCURVE",
"32 381 OFFCURVE",
"32 271 CURVE SMOOTH",
"32 110 OFFCURVE",
"206 -11 OFFCURVE",
"343 -11 CURVE SMOOTH"
);
},
{
closed = 1;
nodes = (
"243 100 OFFCURVE",
"162 173 OFFCURVE",
"162 254 CURVE SMOOTH",
"162 302 OFFCURVE",
"188 337 OFFCURVE",
"244 337 CURVE SMOOTH",
"419 337 LINE",
"383 357 LINE",
"383 167 LINE SMOOTH",
"383 129 OFFCURVE",
"375 100 OFFCURVE",
"326 100 CURVE SMOOTH"
);
},
{
closed = 1;
nodes = (
"658 579 LINE",
"658 689 LINE",
"0 689 LINE",
"0 579 LINE"
);
},
{
closed = 1;
nodes = (
"756 0 LINE",
"756 633 LINE",
"723 579 LINE",
"837 579 LINE",
"837 689 LINE",
"627 689 LINE",
"627 0 LINE"
);
}
);
width = 837;
}
);
leftMetricsKey = "ra-gurmukhi";
rightMetricsKey = "STEM-GURM";
unicode = 0A17;
},
{
glyphname = "gha-gurmukhi";
layers = (
{
anchors = (
{
name = bindu;
position = "{706, 680}";
},
{
name = bottom;
position = "{724, 0}";
},
{
name = candra;
position = "{706, 690}";
},
{
name = caret_1;
position = "{442, 30}";
},
{
name = nukta;
position = "{105, 0}";
},
{
name = top;
position = "{706, 670}";
}
);
layerId = "137514A2-B611-49B0-92C3-D60BB464318D";
paths = (
{
closed = 1;
nodes = (
"351 102 OFFCURVE",
"415 127 OFFCURVE",
"444 186 CURVE",
"408 186 LINE",
"447 133 OFFCURVE",
"504 102 OFFCURVE",
"569 102 CURVE SMOOTH",
"631 102 OFFCURVE",
"678 119 OFFCURVE",
"713 150 CURVE",
"689 305 LINE",
"660 233 OFFCURVE",
"605 213 OFFCURVE",
"568 213 CURVE SMOOTH",
"509 213 OFFCURVE",
"480 247 OFFCURVE",
"469 284 CURVE",
"469 232 LINE",
"504 314 OFFCURVE",
"519 392 OFFCURVE",
"519 464 CURVE SMOOTH",
"519 522 OFFCURVE",
"511 579 OFFCURVE",
"499 636 CURVE",
"383 636 LINE",
"383 283 LINE",
"359 227 OFFCURVE",
"308 213 OFFCURVE",
"273 213 CURVE SMOOTH",
"204 213 OFFCURVE",
"172 252 OFFCURVE",
"163 295 CURVE",
"152 264 LINE",
"212 298 OFFCURVE",
"265 362 OFFCURVE",
"265 457 CURVE SMOOTH",
"265 565 OFFCURVE",
"183 689 OFFCURVE",
"27 689 CURVE SMOOTH",
"0 689 LINE",
"0 579 LINE",
"32 579 LINE SMOOTH",
"107 579 OFFCURVE",
"139 528 OFFCURVE",
"139 469 CURVE SMOOTH",
"139 407 OFFCURVE",
"105 361 OFFCURVE",
"44 322 CURVE",
"64 179 OFFCURVE",
"169 102 OFFCURVE",
"274 102 CURVE SMOOTH"
);
},
{
closed = 1;
nodes = (
"789 0 LINE",
"789 633 LINE",
"756 579 LINE",
"870 579 LINE",
"870 689 LINE",
"660 689 LINE",
"660 0 LINE"
);
}
);
width = 870;
}
);
leftMetricsKey = "pa-gurmukhi";
rightMetricsKey = "STEM-GURM";
unicode = 0A18;
},
{
glyphname = "nga-gurmukhi";
layers = (
{
anchors = (
{
name = bindu;
position = "{490, 680}";
},
{
name = bottom;
position = "{307, 0}";
},
{
name = candra;
position = "{490, 690}";
},
{
name = caret_1;
position = "{311, 30}";
},
{
name = nukta;
position = "{83, -69}";
},
{
name = top;
position = "{490, 670}";
}
);
layerId = "137514A2-B611-49B0-92C3-D60BB464318D";
paths = (
{
closed = 1;
nodes = (
"479 155 LINE",
"424 231 OFFCURVE",
"326 280 OFFCURVE",
"215 280 CURVE SMOOTH",
"111 280 OFFCURVE",
"45 237 OFFCURVE",
"45 159 CURVE SMOOTH",
"45 61 OFFCURVE",
"147 -11 OFFCURVE",
"299 -11 CURVE SMOOTH",
"497 -11 OFFCURVE",
"604 110 OFFCURVE",
"604 237 CURVE SMOOTH",
"604 357 OFFCURVE",
"510 471 OFFCURVE",
"325 471 CURVE SMOOTH",
"227 471 LINE",
"227 633 LINE",
"99 633 LINE",
"99 361 LINE",
"332 361 LINE SMOOTH",
"438 361 OFFCURVE",
"480 303 OFFCURVE",
"480 243 CURVE SMOOTH",
"480 166 OFFCURVE",
"413 85 OFFCURVE",
"286 85 CURVE SMOOTH",
"210 85 OFFCURVE",
"160 114 OFFCURVE",
"160 151 CURVE SMOOTH",
"160 178 OFFCURVE",
"188 194 OFFCURVE",
"236 194 CURVE SMOOTH",
"303 194 OFFCURVE",
"372 162 OFFCURVE",
"413 110 CURVE"
);
},
{
closed = 1;
nodes = (
"646 579 LINE",
"646 689 LINE",
"0 689 LINE",
"0 579 LINE"
);
}
);
width = 646;
}
);
rightMetricsKey = "ttha-gurmukhi";
unicode = 0A19;
},
{
glyphname = "ca-gurmukhi";
layers = (
{
anchors = (
{
name = bindu;
position = "{546, 680}";
},
{
name = bottom;
position = "{455, 0}";
},
{
name = candra;
position = "{546, 690}";
},
{
name = caret_1;
position = "{435, 30}";
},
{
name = nukta;
position = "{114, 0}";
},
{
name = top;
position = "{556, 670}";
}
);
layerId = "137514A2-B611-49B0-92C3-D60BB464318D";
paths = (
{
closed = 1;
nodes = (
"546 -11 OFFCURVE",
"628 39 OFFCURVE",
"628 156 CURVE",
"628 633 LINE",
"500 633 LINE",
"500 175 LINE",
"500 131 OFFCURVE",
"493 101 OFFCURVE",
"438 101 CURVE SMOOTH",
"340 101 OFFCURVE",
"252 197 OFFCURVE",
"252 303 CURVE",
"121 320 LINE",
"121 129 OFFCURVE",
"309 -11 OFFCURVE",
"455 -11 CURVE SMOOTH"
);
},
{
closed = 1;
nodes = (
"251 383 LINE",
"225 443 OFFCURVE",
"129 446 OFFCURVE",
"39 438 CURVE",
"19 334 LINE",
"71 299 OFFCURVE",
"141 292 OFFCURVE",
"198 302 CURVE"
);
},
{
closed = 1;
nodes = (
"521 298 LINE",
"521 409 LINE",
"147 409 LINE",
"147 298 LINE"
);
},
{
closed = 1;
nodes = (
"710 579 LINE",
"710 689 LINE",
"0 689 LINE",
"0 579 LINE"
);
}
);
width = 710;
}
);
leftMetricsKey = "da-gurmukhi";
rightMetricsKey = "STEM-GURM";
unicode = 0A1A;
},
{
glyphname = "cha-gurmukhi";
layers = (
{
anchors = (
{
name = bindu;
position = "{489, 680}";
},
{
name = bottom;
position = "{335, 2}";
},
{
name = candra;
position = "{489, 690}";
},
{
name = caret_1;
position = "{335, 30}";
},
{
name = nukta;
position = "{83, -69}";
},
{
name = top;
position = "{499, 670}";
}
);
layerId = "137514A2-B611-49B0-92C3-D60BB464318D";
paths = (
{
closed = 1;
nodes = (
"515 -11 OFFCURVE",
"635 42 OFFCURVE",
"635 151 CURVE SMOOTH",
"635 261 OFFCURVE",
"496 309 OFFCURVE",
"332 309 CURVE SMOOTH",
"309 309 OFFCURVE",
"286 309 OFFCURVE",
"264 309 CURVE SMOOTH",
"225 308 OFFCURVE",
"195 324 OFFCURVE",
"195 353 CURVE SMOOTH",
"195 372 OFFCURVE",
"207 396 OFFCURVE",
"255 396 CURVE SMOOTH",
"571 396 LINE",
"571 632 LINE",
"442 632 LINE",
"442 501 LINE",
"225 501 LINE SMOOTH",
"122 501 OFFCURVE",
"65 452 OFFCURVE",
"65 390 CURVE SMOOTH",
"65 339 OFFCURVE",
"97 303 OFFCURVE",
"144 282 CURVE",
"72 258 OFFCURVE",
"32 214 OFFCURVE",
"32 153 CURVE SMOOTH",
"32 43 OFFCURVE",
"160 -11 OFFCURVE",
"336 -11 CURVE SMOOTH"
);
},
{
closed = 1;
nodes = (
"222 89 OFFCURVE",
"156 102 OFFCURVE",
"156 151 CURVE SMOOTH",
"156 197 OFFCURVE",
"214 209 OFFCURVE",
"316 209 CURVE SMOOTH",
"437 209 OFFCURVE",
"512 199 OFFCURVE",
"512 149 CURVE SMOOTH",
"512 103 OFFCURVE",
"446 89 OFFCURVE",
"334 89 CURVE SMOOTH"
);
},
{
closed = 1;
nodes = (
"366 74 LINE",
"366 221 LINE",
"300 221 LINE",
"300 74 LINE"
);
},
{
closed = 1;
nodes = (
"669 579 LINE",
"669 689 LINE",
"0 689 LINE",
"0 579 LINE"
);
}
);
width = 669;
}
);
leftMetricsKey = "ttha-gurmukhi";
rightMetricsKey = "ttha-gurmukhi";
unicode = 0A1B;
},
{
glyphname = "ja-gurmukhi";
layers = (
{
anchors = (
{
name = bindu;
position = "{547, 680}";
},
{
name = bottom;
position = "{565, 0}";
},
{
name = candra;
position = "{547, 690}";
},
{
name = caret_1;
position = "{380, 30}";
},
{
name = nukta;
position = "{380, -86}";
},
{
name = top;
position = "{557, 670}";
}
);
layerId = "137514A2-B611-49B0-92C3-D60BB464318D";
paths = (
{
closed = 1;
nodes = (
"257 53 OFFCURVE",
"264 109 OFFCURVE",
"267 164 CURVE SMOOTH",
"268 199 OFFCURVE",
"269 233 OFFCURVE",
"267 267 CURVE",
"535 267 LINE",
"535 377 LINE",
"227 377 LINE",
"188 410 OFFCURVE",
"131 423 OFFCURVE",
"60 435 CURVE",
"20 335 LINE",
"49 309 OFFCURVE",
"94 286 OFFCURVE",
"144 274 CURVE",
"146 244 OFFCURVE",
"145 213 OFFCURVE",
"143 180 CURVE SMOOTH",
"139 125 OFFCURVE",
"131 67 OFFCURVE",
"121 15 CURVE",
"120 2 LINE",
"249 0 LINE"
);
},
{
closed = 1;
nodes = (
"619 579 LINE",
"619 689 LINE",
"0 689 LINE",
"0 579 LINE"
);
},
{
closed = 1;
nodes = (
"629 0 LINE",
"629 633 LINE",
"596 579 LINE",
"710 579 LINE",
"710 689 LINE",
"500 689 LINE",
"500 0 LINE"
);
}
);
width = 710;
}
);
leftMetricsKey = "da-gurmukhi";
rightMetricsKey = "STEM-GURM";
unicode = 0A1C;
},
{
glyphname = "jha-gurmukhi";
layers = (
{
anchors = (
{
name = bindu;
position = "{523, 680}";
},
{
name = bottom;
position = "{228, -69}";
},
{
name = candra;
position = "{523, 690}";
},
{
name = caret_1;
position = "{329, -15}";
},
{
name = nukta;
position = "{68, -27}";
},
{
name = top;
position = "{541, 670}";
}
);
layerId = "137514A2-B611-49B0-92C3-D60BB464318D";
paths = (
{
closed = 1;
nodes = (
"292 -69 LINE",
"305 70 LINE",
"272 33 LINE",
"288 32 OFFCURVE",
"305 31 OFFCURVE",
"319 31 CURVE SMOOTH",
"504 31 OFFCURVE",
"602 117 OFFCURVE",
"602 223 CURVE SMOOTH",
"602 298 OFFCURVE",
"551 363 OFFCURVE",
"425 401 CURVE",
"433 370 LINE",
"543 399 OFFCURVE",
"602 486 OFFCURVE",
"605 594 CURVE",
"479 598 LINE",
"470 486 OFFCURVE",
"394 436 OFFCURVE",
"323 436 CURVE SMOOTH",
"254 436 OFFCURVE",
"188 484 OFFCURVE",
"189 599 CURVE",
"60 592 LINE",
"63 524 OFFCURVE",
"100 473 OFFCURVE",
"152 437 CURVE",
"78 437 LINE",
"80 345 LINE",
"313 345 LINE SMOOTH",
"432 345 OFFCURVE",
"477 296 OFFCURVE",
"477 245 CURVE SMOOTH",
"477 190 OFFCURVE",
"429 135 OFFCURVE",
"302 135 CURVE SMOOTH",
"279 135 OFFCURVE",
"256 136 OFFCURVE",
"233 141 CURVE",
"285 129 LINE",
"258 163 OFFCURVE",
"216 180 OFFCURVE",
"181 191 CURVE SMOOTH",
"151 201 OFFCURVE",
"118 207 OFFCURVE",
"87 210 CURVE",
"48 117 LINE",
"79 86 OFFCURVE",
"125 61 OFFCURVE",
"173 47 CURVE",
"164 -56 LINE",
"164 -69 LINE"
);
},
{
closed = 1;
nodes = (
"656 579 LINE",
"656 689 LINE",
"0 689 LINE",
"0 579 LINE"
);
}
);
width = 656;
}
);
leftMetricsKey = "ta-gurmukhi";
rightMetricsKey = "ta-gurmukhi";
unicode = 0A1D;
},
{
glyphname = "nya-gurmukhi";
layers = (
{
anchors = (
{
name = bindu;
position = "{477, 680}";
},
{
name = bottom;
position = "{403, 0}";
},
{
name = candra;
position = "{477, 690}";
},
{
name = caret_1;
position = "{384, 30}";
},
{
name = nukta;
position = "{102, -33}";
},
{
name = top;
position = "{487, 670}";
}
);
components = (
{
name = "va-gurmukhi";
}
);
layerId = "137514A2-B611-49B0-92C3-D60BB464318D";
paths = (
{
closed = 1;
nodes = (
"367 485 LINE",
"259 485 OFFCURVE",
"179 526 OFFCURVE",
"178 601 CURVE",
"49 606 LINE",
"49 507 OFFCURVE",
"186 440 OFFCURVE",
"361 440 CURVE"
);
}
);
width = 639;
}
);
leftMetricsKey = "va-gurmukhi";
rightMetricsKey = "va-gurmukhi";
unicode = 0A1E;
},
{
glyphname = "tta-gurmukhi";
layers = (
{
anchors = (
{
name = bindu;
position = "{478, 680}";
},
{
name = bottom;
position = "{377, 0}";
},
{
name = candra;
position = "{478, 690}";
},
{
name = caret_1;
position = "{373, 30}";
},
{
name = nukta;
position = "{89, -30}";
},
{
name = top;
position = "{468, 670}";
}
);
layerId = "137514A2-B611-49B0-92C3-D60BB464318D";
paths = (
{
closed = 1;
nodes = (
"452 -11 OFFCURVE",
"520 3 OFFCURVE",
"572 29 CURVE",
"545 133 LINE",
"494 113 OFFCURVE",
"432 101 OFFCURVE",
"375 101 CURVE SMOOTH",
"245 101 OFFCURVE",
"163 170 OFFCURVE",
"143 247 CURVE",
"142 189 LINE",
"173 256 OFFCURVE",
"258 347 OFFCURVE",
"484 348 CURVE",
"527 348 LINE",
"527 635 LINE",
"398 635 LINE",
"398 397 LINE",
"444 459 LINE",
"206 456 OFFCURVE",
"81 343 OFFCURVE",
"32 248 CURVE",
"68 93 OFFCURVE",
"213 -11 OFFCURVE",
"386 -11 CURVE SMOOTH"
);
},
{
closed = 1;
nodes = (
"609 579 LINE",
"609 689 LINE",
"0 689 LINE",
"0 579 LINE"
);
}
);
width = 609;
}
);
leftMetricsKey = "ra-gurmukhi";
rightMetricsKey = "STEM-GURM";
unicode = 0A1F;
},
{
glyphname = "ttha-gurmukhi";
layers = (
{
anchors = (
{
name = bindu;
position = "{500, 680}";
},
{
name = bottom;
position = "{330, 2}";
},
{
name = candra;
position = "{330, 690}";
},
{
name = caret_1;
position = "{330, 30}";
},
{
name = nukta;
position = "{51, -30}";
},
{
name = top;
position = "{500, 670}";
}
);
layerId = "137514A2-B611-49B0-92C3-D60BB464318D";
paths = (
{
closed = 1;
nodes = (
"494 -11 OFFCURVE",
"627 78 OFFCURVE",
"627 227 CURVE SMOOTH",
"627 375 OFFCURVE",
"487 461 OFFCURVE",
"330 461 CURVE SMOOTH",
"167 461 OFFCURVE",
"32 375 OFFCURVE",
"32 227 CURVE SMOOTH",
"32 78 OFFCURVE",
"174 -11 OFFCURVE",
"330 -11 CURVE SMOOTH"
);
},
{
closed = 1;
nodes = (
"232 101 OFFCURVE",
"162 151 OFFCURVE",
"162 225 CURVE SMOOTH",
"162 301 OFFCURVE",
"234 349 OFFCURVE",
"329 349 CURVE SMOOTH",
"425 349 OFFCURVE",
"497 301 OFFCURVE",
"497 225 CURVE SMOOTH",
"497 151 OFFCURVE",
"427 101 OFFCURVE",
"330 101 CURVE SMOOTH"
);
},
{
closed = 1;
nodes = (
"394 390 LINE",
"394 646 LINE",
"266 646 LINE",
"266 390 LINE"
);
},
{
closed = 1;
nodes = (
"660 579 LINE",
"660 689 LINE",
"0 689 LINE",
"0 579 LINE"
);
}
);
width = 660;
}
);
unicode = 0A20;
},
{
glyphname = "dda-gurmukhi";
layers = (
{
anchors = (
{
name = bindu;
position = "{494, 680}";
},
{
name = bottom;
position = "{294, 2}";
},
{
name = candra;
position = "{494, 690}";
},
{
name = caret_1;
position = "{286, 30}";
},
{
name = nukta;
position = "{67, -57}";
},
{
name = top;
position = "{484, 670}";
}
);
layerId = "137514A2-B611-49B0-92C3-D60BB464318D";
paths = (
{
closed = 1;
nodes = (
"462 -11 OFFCURVE",
"562 94 OFFCURVE",
"562 207 CURVE SMOOTH",
"562 288 OFFCURVE",
"511 371 OFFCURVE",
"391 402 CURVE",
"401 376 LINE",
"495 413 OFFCURVE",
"544 494 OFFCURVE",
"544 615 CURVE",
"415 615 LINE",
"415 528 OFFCURVE",
"385 468 OFFCURVE",
"287 457 CURVE",
"345 456 LINE",
"308 475 OFFCURVE",
"253 482 OFFCURVE",
"205 482 CURVE SMOOTH",
"164 482 OFFCURVE",
"124 477 OFFCURVE",
"92 467 CURVE",
"99 358 LINE",
"135 348 OFFCURVE",
"174 343 OFFCURVE",
"214 343 CURVE SMOOTH",
"261 343 OFFCURVE",
"314 350 OFFCURVE",
"356 361 CURVE",
"290 362 LINE",
"399 356 OFFCURVE",
"436 290 OFFCURVE",
"436 229 CURVE SMOOTH",
"436 156 OFFCURVE",
"382 85 OFFCURVE",
"272 85 CURVE SMOOTH",
"200 85 OFFCURVE",
"149 115 OFFCURVE",
"149 150 CURVE SMOOTH",
"149 178 OFFCURVE",
"180 193 OFFCURVE",
"222 193 CURVE SMOOTH",
"283 193 OFFCURVE",
"352 161 OFFCURVE",
"394 111 CURVE",
"447 164 LINE",
"396 231 OFFCURVE",
"300 280 OFFCURVE",
"198 280 CURVE SMOOTH",
"105 280 OFFCURVE",
"34 239 OFFCURVE",
"34 159 CURVE SMOOTH",
"34 61 OFFCURVE",
"139 -11 OFFCURVE",
"285 -11 CURVE SMOOTH"
);
},
{
closed = 1;
nodes = (
"603 579 LINE",
"603 689 LINE",
"0 689 LINE",
"0 579 LINE"
);
}
);
width = 603;
}
);
leftMetricsKey = "ta-gurmukhi";
rightMetricsKey = "ta-gurmukhi";
unicode = 0A21;
},
{
glyphname = "ddha-gurmukhi";
layers = (
{
anchors = (
{
name = bindu;
position = "{561, 680}";
},
{
name = bottom;
position = "{444, 0}";
},
{
name = candra;
position = "{561, 690}";
},
{
name = caret_1;
position = "{421, 30}";
},
{
name = nukta;
position = "{112, 0}";
},
{
name = top;
position = "{551, 670}";
}
);
layerId = "137514A2-B611-49B0-92C3-D60BB464318D";
paths = (
{
closed = 1;
nodes = (
"592 -11 OFFCURVE",
"676 65 OFFCURVE",
"676 150 CURVE SMOOTH",
"676 236 OFFCURVE",
"591 284 OFFCURVE",
"483 284 CURVE SMOOTH",
"383 284 OFFCURVE",
"280 241 OFFCURVE",
"235 164 CURVE",
"292 115 LINE",
"332 166 OFFCURVE",
"407 197 OFFCURVE",
"476 197 CURVE SMOOTH",
"527 197 OFFCURVE",
"560 180 OFFCURVE",
"560 150 CURVE SMOOTH",
"560 114 OFFCURVE",
"508 85 OFFCURVE",
"427 85 CURVE SMOOTH",
"303 85 OFFCURVE",
"236 153 OFFCURVE",
"236 261 CURVE SMOOTH",
"236 386 LINE",
"206 351 LINE",
"611 351 LINE",
"611 661 LINE",
"484 661 LINE",
"484 450 LINE",
"179 450 LINE",
"241 435 LINE",
"200 466 OFFCURVE",
"136 480 OFFCURVE",
"39 481 CURVE",
"19 375 LINE",
"49 359 OFFCURVE",
"85 348 OFFCURVE",
"124 345 CURVE",
"124 273 LINE SMOOTH",
"124 109 OFFCURVE",
"259 -11 OFFCURVE",
"444 -11 CURVE SMOOTH"
);
},
{
closed = 1;
nodes = (
"708 579 LINE",
"708 689 LINE",
"0 689 LINE",
"0 579 LINE"
);
}
);
width = 708;
}
);
leftMetricsKey = "da-gurmukhi";
rightMetricsKey = "ttha-gurmukhi";
unicode = 0A22;
},
{
glyphname = "nna-gurmukhi";
layers = (
{
anchors = (
{
name = bindu;
position = "{449, 680}";
},
{
name = bottom;
position = "{393, 0}";
},
{
name = candra;
position = "{449, 690}";
},
{
name = caret_1;
position = "{371, 30}";
},
{
name = nukta;
position = "{92, -35}";
},
{
name = top;
position = "{449, 670}";
}
);
layerId = "137514A2-B611-49B0-92C3-D60BB464318D";
paths = (
{
closed = 1;
nodes = (
"455 -11 OFFCURVE",
"525 4 OFFCURVE",
"578 30 CURVE",
"549 135 LINE",
"495 115 OFFCURVE",
"429 101 OFFCURVE",
"367 101 CURVE SMOOTH",
"241 101 OFFCURVE",
"158 161 OFFCURVE",
"139 231 CURVE",
"139 168 LINE",
"165 210 OFFCURVE",
"239 266 OFFCURVE",
"410 271 CURVE",
"410 450 LINE",
"282 454 LINE",
"282 297 LINE",
"334 374 LINE",
"172 371 OFFCURVE",
"67 291 OFFCURVE",
"32 226 CURVE",
"66 82 OFFCURVE",
"213 -11 OFFCURVE",
"385 -11 CURVE SMOOTH"
);
},
{
closed = 1;
nodes = (
"563 457 LINE",
"365 465 OFFCURVE",
"278 526 OFFCURVE",
"277 621 CURVE",
"155 634 LINE",
"156 473 OFFCURVE",
"351 351 OFFCURVE",
"558 347 CURVE"
);
},
{
closed = 1;
nodes = (
"627 579 LINE",
"627 689 LINE",
"0 689 LINE",
"0 579 LINE"
);
}
);
width = 627;
}
);
leftMetricsKey = "ra-gurmukhi";
unicode = 0A23;
},
{
glyphname = "ta-gurmukhi";
layers = (
{
anchors = (
{
name = bindu;
position = "{489, 680}";
},
{
name = bottom;
position = "{281, 0}";
},
{
name = candra;
position = "{489, 690}";
},
{
name = caret_1;
position = "{268, 30}";
},
{
name = nukta;
position = "{69, -85}";
},
{
name = top;
position = "{479, 670}";
}
);
layerId = "137514A2-B611-49B0-92C3-D60BB464318D";
paths = (
{
closed = 1;
nodes = (
"450 -11 OFFCURVE",
"553 90 OFFCURVE",
"553 194 CURVE SMOOTH",
"553 269 OFFCURVE",
"497 345 OFFCURVE",
"370 365 CURVE",
"383 345 LINE",
"479 371 OFFCURVE",
"538 456 OFFCURVE",
"538 577 CURVE SMOOTH",
"538 610 LINE",
"409 611 LINE",
"409 585 LINE SMOOTH",
"409 497 OFFCURVE",
"376 427 OFFCURVE",
"279 414 CURVE",
"331 418 LINE",
"306 426 OFFCURVE",
"262 430 OFFCURVE",
"214 430 CURVE SMOOTH",
"174 430 OFFCURVE",
"126 427 OFFCURVE",
"86 419 CURVE",
"93 310 LINE",
"129 301 OFFCURVE",
"167 296 OFFCURVE",
"208 296 CURVE SMOOTH",
"253 296 OFFCURVE",
"303 303 OFFCURVE",
"344 312 CURVE",
"270 311 LINE",
"384 312 OFFCURVE",
"424 263 OFFCURVE",
"424 214 CURVE SMOOTH",
"424 155 OFFCURVE",
"364 101 OFFCURVE",
"252 101 CURVE SMOOTH",
"193 101 OFFCURVE",
"114 116 OFFCURVE",
"61 137 CURVE",
"34 33 LINE",
"95 7 OFFCURVE",
"184 -11 OFFCURVE",
"264 -11 CURVE SMOOTH"
);
},
{
closed = 1;
nodes = (
"598 579 LINE",
"598 689 LINE",
"0 689 LINE",
"0 579 LINE"
);
}
);
width = 598;
}
);
unicode = 0A24;
},
{
glyphname = "tha-gurmukhi";
layers = (
{
anchors = (
{
name = bindu;
position = "{519, 680}";
},
{
name = bottom;
position = "{537, 0}";
},
{
name = candra;
position = "{519, 690}";
},
{
name = caret_1;
position = "{315, 30}";
},
{
name = nukta;
position = "{105, 0}";
},
{
name = top;
position = "{529, 670}";
}
);
components = (
{
name = "dha-gurmukhi";
}
);
layerId = "137514A2-B611-49B0-92C3-D60BB464318D";
paths = (
{
closed = 1;
nodes = (
"536 372.007 LINE",
"536 441 LINE",
"177 441 LINE",
"177 372 LINE"
);
}
);
width = 682;
}
);
leftMetricsKey = "pa-gurmukhi";
rightMetricsKey = "pa-gurmukhi";
unicode = 0A25;
},
{
glyphname = "da-gurmukhi";
layers = (
{
anchors = (
{
name = bindu;
position = "{554, 680}";
},
{
name = bottom;
position = "{442, 0}";
},
{
name = candra;
position = "{554, 690}";
},
{
name = caret_1;
position = "{440, 30}";
},
{
name = nukta;
position = "{116, 0}";
},
{
name = top;
position = "{544, 670}";
}
);
layerId = "137514A2-B611-49B0-92C3-D60BB464318D";
paths = (
{
closed = 1;
nodes = (
"520 -11 OFFCURVE",
"582 5 OFFCURVE",
"628 29 CURVE",
"601 133 LINE",
"550 115 OFFCURVE",
"495 101 OFFCURVE",
"439 101 CURVE SMOOTH",
"326 101 OFFCURVE",
"245 151 OFFCURVE",
"245 261 CURVE SMOOTH",
"245 360 LINE",
"211 324 LINE",
"603 324 LINE",
"603 634 LINE",
"475 634 LINE",
"475 435 LINE",
"185 435 LINE",
"249 418 LINE",
"203 452 OFFCURVE",
"150 468 OFFCURVE",
"39 469 CURVE",
"19 364 LINE",
"47 350 OFFCURVE",
"83 338 OFFCURVE",
"123 333 CURVE",
"123 274 LINE SMOOTH",
"123 104 OFFCURVE",
"269 -11 OFFCURVE",
"449 -11 CURVE SMOOTH"
);
},
{
closed = 1;
nodes = (
"685 579 LINE",
"685 689 LINE",
"0 689 LINE",
"0 579 LINE"
);
}
);
width = 685;
}
);
rightMetricsKey = "STEM-GURM";
unicode = 0A26;
},
{
glyphname = "dha-gurmukhi";
layers = (
{
anchors = (
{
name = bindu;
position = "{519, 680}";
},
{
name = bottom;
position = "{537, 0}";
},
{
name = candra;
position = "{519, 690}";
},
{
name = caret_1;
position = "{315, 30}";
},
{
name = nukta;
position = "{105, 0}";
},
{
name = top;
position = "{529, 670}";
}
);
components = (
{
name = "pa-gurmukhi";
}
);
layerId = "137514A2-B611-49B0-92C3-D60BB464318D";
paths = (
{
closed = 1;
nodes = (
"599 579 LINE",
"599 689 LINE",
"7 689 LINE",
"7 579 LINE"
);
}
);
width = 682;
}
);
leftMetricsKey = "pa-gurmukhi";
rightMetricsKey = "pa-gurmukhi";
unicode = 0A27;
},
{
glyphname = "na-gurmukhi";
layers = (
{
anchors = (
{
name = bindu;
position = "{500, 680}";
},
{
name = bottom;
position = "{415, 7}";
},
{
name = candra;
position = "{330, 690}";
},
{
name = caret_1;
position = "{330, 30}";
},
{
name = nukta;
position = "{48, -30}";
},
{
name = top;
position = "{500, 670}";
}
);
layerId = "137514A2-B611-49B0-92C3-D60BB464318D";
paths = (
{
closed = 1;
nodes = (
"278 104 LINE",
"209 117 OFFCURVE",
"162 162 OFFCURVE",
"162 225 CURVE SMOOTH",
"162 304 OFFCURVE",
"233 349 OFFCURVE",
"330 349 CURVE SMOOTH",
"426 349 OFFCURVE",
"497 304 OFFCURVE",
"497 225 CURVE SMOOTH",
"497 164 OFFCURVE",
"452 118 OFFCURVE",
"383 104 CURVE",
"395 -7 LINE",
"526 10 OFFCURVE",
"627 96 OFFCURVE",
"627 225 CURVE SMOOTH",
"627 377 OFFCURVE",
"488 461 OFFCURVE",
"329 461 CURVE SMOOTH",
"169 461 OFFCURVE",
"32 377 OFFCURVE",
"32 226 CURVE SMOOTH",
"32 95 OFFCURVE",
"137 13 OFFCURVE",
"266 -7 CURVE"
);
},
{
closed = 1;
nodes = (
"394 389 LINE",
"394 649 LINE",
"266 649 LINE",
"266 389 LINE"
);
},
{
closed = 1;
nodes = (
"660 579 LINE",
"660 689 LINE",
"0 689 LINE",
"0 579 LINE"
);
}
);
width = 660;
}
);
leftMetricsKey = "ttha-gurmukhi";
rightMetricsKey = "ttha-gurmukhi";
unicode = 0A28;
},
{
glyphname = "pa-gurmukhi";
layers = (
{
anchors = (
{
name = bindu;
position = "{519, 680}";
},
{
name = bottom;
position = "{537, 0}";
},
{
name = candra;
position = "{519, 690}";
},
{
name = caret_1;
position = "{315, 30}";
},
{
name = nukta;
position = "{105, 0}";
},
{
name = top;
position = "{519, 670}";
}
);
layerId = "137514A2-B611-49B0-92C3-D60BB464318D";
paths = (
{
closed = 1;
nodes = (
"393 102 OFFCURVE",
"460 121 OFFCURVE",
"508 152 CURVE",
"484 305 LINE",
"441 235 OFFCURVE",
"363 213 OFFCURVE",
"305 213 CURVE SMOOTH",
"195 213 OFFCURVE",
"167 273 OFFCURVE",
"159 315 CURVE",
"128 251 LINE",
"193 282 OFFCURVE",
"266 347 OFFCURVE",
"266 457 CURVE SMOOTH",
"266 565 OFFCURVE",
"183 689 OFFCURVE",
"27 689 CURVE SMOOTH",
"0 689 LINE",
"0 579 LINE",
"33 579 LINE SMOOTH",
"107 579 OFFCURVE",
"139 528 OFFCURVE",
"139 469 CURVE SMOOTH",
"139 407 OFFCURVE",
"105 361 OFFCURVE",
"44 322 CURVE",
"68 178 OFFCURVE",
"184 102 OFFCURVE",
"307 102 CURVE SMOOTH"
);
},
{
closed = 1;
nodes = (
"601 0 LINE",
"601 633 LINE",
"568 579 LINE",
"682 579 LINE",
"682 689 LINE",
"472 689 LINE",
"472 0 LINE"
);
}
);
width = 682;
}
);
leftMetricsKey = "ma-gurmukhi";
rightMetricsKey = "STEM-GURM";
unicode = 0A2A;
},
{
glyphname = "pha-gurmukhi";
layers = (
{
anchors = (
{
name = bindu;
position = "{479, 680}";
},
{
name = bottom;
position = "{361, 0}";
},
{
name = candra;
position = "{479, 690}";
},
{
name = caret_1;
position = "{342, 30}";
},
{
name = nukta;
position = "{66, -30}";
},
{
name = top;
position = "{469, 670}";
}
);
layerId = "137514A2-B611-49B0-92C3-D60BB464318D";
paths = (
{
closed = 1;
nodes = (
"207 111 LINE",
"244 164 OFFCURVE",
"323 197 OFFCURVE",
"393 197 CURVE SMOOTH",
"443 197 OFFCURVE",
"478 180 OFFCURVE",
"478 150 CURVE SMOOTH",
"478 114 OFFCURVE",
"425 85 OFFCURVE",
"344 85 CURVE SMOOTH",
"232 85 OFFCURVE",
"141 141 OFFCURVE",
"141 231 CURVE SMOOTH",
"141 297 OFFCURVE",
"191 362 OFFCURVE",
"315 362 CURVE SMOOTH",
"529 362 LINE",
"529 635 LINE",
"400 635 LINE",
"400 473 LINE",
"302 473 LINE SMOOTH",
"117 473 OFFCURVE",
"33 363 OFFCURVE",
"33 249 CURVE SMOOTH",
"33 116 OFFCURVE",
"147 -11 OFFCURVE",
"353 -11 CURVE SMOOTH",
"512 -11 OFFCURVE",
"593 64 OFFCURVE",
"593 149 CURVE SMOOTH",
"593 236 OFFCURVE",
"507 283 OFFCURVE",
"398 283 CURVE SMOOTH",
"290 283 OFFCURVE",
"183 237 OFFCURVE",
"143 152 CURVE"
);
},
{
closed = 1;
nodes = (
"626 579 LINE",
"626 689 LINE",
"0 689 LINE",
"0 579 LINE"
);
}
);
width = 626;
}
);
leftMetricsKey = "ra-gurmukhi";
rightMetricsKey = "ttha-gurmukhi";
unicode = 0A2B;
},
{
glyphname = "ba-gurmukhi";
layers = (
{
anchors = (
{
name = bindu;
position = "{520, 680}";
},
{
name = bottom;
position = "{539, 0}";
},
{
name = candra;
position = "{520, 690}";
},
{
name = caret_1;
position = "{336, 30}";
},
{
name = nukta;
position = "{105, -38}";
},
{
name = top;
position = "{530, 670}";
}
);
layerId = "137514A2-B611-49B0-92C3-D60BB464318D";
paths = (
{
closed = 1;
nodes = (
"388 31 OFFCURVE",
"457 49 OFFCURVE",
"509 85 CURVE",
"495 233 LINE",
"445 163 OFFCURVE",
"370 142 OFFCURVE",
"309 142 CURVE SMOOTH",
"221 142 OFFCURVE",
"166 187 OFFCURVE",
"156 228 CURVE",
"154 195 LINE",
"187 255 OFFCURVE",
"272 324 OFFCURVE",
"462 327 CURVE SMOOTH",
"531 327 LINE",
"531 423 LINE",
"430 423 LINE SMOOTH",
"291 424 OFFCURVE",
"202 504 OFFCURVE",
"202 608 CURVE",
"73 613 LINE",
"73 510 OFFCURVE",
"153 417 OFFCURVE",
"274 377 CURVE",
"281 401 LINE",
"146 373 OFFCURVE",
"72 299 OFFCURVE",
"40 242 CURVE",
"81 101 OFFCURVE",
"207 31 OFFCURVE",
"327 31 CURVE SMOOTH"
);
},
{
closed = 1;
nodes = (
"560 579 LINE",
"560 689 LINE",
"0 689 LINE",
"0 579 LINE"
);
},
{
closed = 1;
nodes = (
"603 0 LINE",
"603 633 LINE",
"570 579 LINE",
"684 579 LINE",
"684 689 LINE",
"474 689 LINE",
"474 0 LINE"
);
}
);
width = 684;
}
);
leftMetricsKey = "ra-gurmukhi";
rightMetricsKey = "STEM-GURM";
unicode = 0A2C;
},
{
glyphname = "bha-gurmukhi";
layers = (
{
anchors = (
{
name = bindu;
position = "{493, 680}";
},
{
name = bottom;
position = "{277, 2}";
},
{
name = candra;
position = "{493, 690}";
},
{
name = caret_1;
position = "{271, 30}";
},
{
name = nukta;
position = "{59, -84}";
},
{
name = top;
position = "{483, 670}";
}
);
layerId = "137514A2-B611-49B0-92C3-D60BB464318D";
paths = (
{
closed = 1;
nodes = (
"450 -11 OFFCURVE",
"551 90 OFFCURVE",
"551 206 CURVE SMOOTH",
"551 269 OFFCURVE",
"518 333 OFFCURVE",
"459 384 CURVE",
"464 341 LINE",
"516 405 OFFCURVE",
"545 489 OFFCURVE",
"545 573 CURVE SMOOTH",
"545 608 LINE",
"420 608 LINE",
"420 581 LINE SMOOTH",
"420 511 OFFCURVE",
"407 462 OFFCURVE",
"377 421 CURVE",
"406 432 LINE",
"347 467 OFFCURVE",
"277 487 OFFCURVE",
"213 487 CURVE SMOOTH",
"124 487 OFFCURVE",
"45 446 OFFCURVE",
"45 357 CURVE SMOOTH",
"45 259 OFFCURVE",
"142 217 OFFCURVE",
"236 217 CURVE SMOOTH",
"316 217 OFFCURVE",
"378 246 OFFCURVE",
"428 297 CURVE",
"402 303 LINE",
"426 281 OFFCURVE",
"442 253 OFFCURVE",
"442 222 CURVE SMOOTH",
"442 153 OFFCURVE",
"374 101 OFFCURVE",
"255 101 CURVE SMOOTH",
"189 101 OFFCURVE",
"113 117 OFFCURVE",
"61 137 CURVE",
"34 33 LINE",
"95 7 OFFCURVE",
"184 -11 OFFCURVE",
"264 -11 CURVE SMOOTH"
);
},
{
closed = 1;
nodes = (
"190 316 OFFCURVE",
"154 329 OFFCURVE",
"154 357 CURVE SMOOTH",
"154 383 OFFCURVE",
"187 398 OFFCURVE",
"235 398 CURVE SMOOTH",
"285 398 OFFCURVE",
"338 382 OFFCURVE",
"374 348 CURVE",
"367 385 LINE",
"344 340 OFFCURVE",
"293 316 OFFCURVE",
"236 316 CURVE SMOOTH"
);
},
{
closed = 1;
nodes = (
"594 579 LINE",
"594 689 LINE",
"0 689 LINE",
"0 579 LINE"
);
}
);
width = 594;
}
);
leftMetricsKey = "ta-gurmukhi";
rightMetricsKey = "ta-gurmukhi";
unicode = 0A2D;
},
{
glyphname = "ma-gurmukhi";
layers = (
{
anchors = (
{
name = bindu;
position = "{544, 680}";
},
{
name = bottom;
position = "{562, 0}";
},
{
name = candra;
position = "{544, 690}";
},
{
name = caret_1;
position = "{353, 30}";
},
{
name = nukta;
position = "{272, 15}";
},
{
name = top;
position = "{544, 670}";
}
);
layerId = "137514A2-B611-49B0-92C3-D60BB464318D";
paths = (
{
closed = 1;
nodes = (
"216 127 OFFCURVE",
"266 281 OFFCURVE",
"266 419 CURVE SMOOTH",
"266 589 OFFCURVE",
"171 689 OFFCURVE",
"22 689 CURVE SMOOTH",
"0 689 LINE",
"0 579 LINE",
"33 579 LINE SMOOTH",
"117 579 OFFCURVE",
"146 508 OFFCURVE",
"146 431 CURVE SMOOTH",
"146 381 OFFCURVE",
"141 340 OFFCURVE",
"133 306 CURVE",
"158 347 LINE",
"79 293 OFFCURVE",
"61 162 OFFCURVE",
"58 68 CURVE",
"164 47 LINE"
);
},
{
closed = 1;
nodes = (
"541 232 LINE",
"541 343 LINE",
"194 343 LINE",
"187 232 LINE"
);
},
{
closed = 1;
nodes = (
"626 0 LINE",
"626 633 LINE",
"593 579 LINE",
"707 579 LINE",
"707 689 LINE",
"497 689 LINE",
"497 0 LINE"
);
}
);
width = 707;
}
);
rightMetricsKey = "STEM-GURM";
unicode = 0A2E;
},
{
glyphname = "ya-gurmukhi";
layers = (
{
anchors = (
{
name = bindu;
position = "{643, 680}";
},
{
name = bottom;
position = "{662, 0}";
},
{
name = candra;
position = "{643, 690}";
},
{
name = caret_1;
position = "{389, 30}";
},
{
name = nukta;
position = "{113, -8}";
},
{
name = top;
position = "{653, 670}";
}
);
layerId = "137514A2-B611-49B0-92C3-D60BB464318D";
paths = (
{
closed = 1;
nodes = (
"394 102 OFFCURVE",
"495 158 OFFCURVE",
"495 288 CURVE",
"495 338 LINE",
"460 308 LINE",
"614 308 LINE",
"614 418 LINE",
"377 418 LINE",
"377 309 LINE",
"377 229 OFFCURVE",
"314 213 OFFCURVE",
"276 213 CURVE SMOOTH",
"203 213 OFFCURVE",
"173 251 OFFCURVE",
"163 293 CURVE",
"152 263 LINE",
"212 299 OFFCURVE",
"265 362 OFFCURVE",
"265 457 CURVE SMOOTH",
"265 565 OFFCURVE",
"183 689 OFFCURVE",
"27 689 CURVE SMOOTH",
"0 689 LINE",
"0 579 LINE",
"32 579 LINE SMOOTH",
"107 579 OFFCURVE",
"139 528 OFFCURVE",
"139 469 CURVE SMOOTH",
"139 407 OFFCURVE",
"105 361 OFFCURVE",
"44 322 CURVE",
"65 178 OFFCURVE",
"172 102 OFFCURVE",
"282 102 CURVE SMOOTH"
);
},
{
closed = 1;
nodes = (
"643 579 LINE",
"643 689 LINE",
"6 689 LINE",
"6 579 LINE"
);
},
{
closed = 1;
nodes = (
"726 0 LINE",
"726 633 LINE",
"693 579 LINE",
"807 579 LINE",
"807 689 LINE",
"597 689 LINE",
"597 0 LINE"
);
}
);
width = 807;
}
);
leftMetricsKey = "pa-gurmukhi";
rightMetricsKey = "STEM-GURM";
unicode = 0A2F;
},
{
glyphname = "ra-gurmukhi";
layers = (
{
anchors = (
{
name = bindu;
position = "{457, 680}";
},
{
name = bottom;
position = "{372, 0}";
},
{
name = candra;
position = "{457, 690}";
},
{
name = caret_1;
position = "{348, 30}";
},
{
name = nukta;
position = "{68, -23}";
},
{
name = top;
position = "{467, 670}";
}
);
layerId = "137514A2-B611-49B0-92C3-D60BB464318D";
paths = (
{
closed = 1;
nodes = (
"465 -11 OFFCURVE",
"540 37 OFFCURVE",
"540 150 CURVE SMOOTH",
"540 636 LINE",
"411 636 LINE",
"411 410 LINE",
"447 448 LINE",
"216 448 LINE SMOOTH",
"103 448 OFFCURVE",
"32 381 OFFCURVE",
"32 271 CURVE SMOOTH",
"32 110 OFFCURVE",
"222 -11 OFFCURVE",
"372 -11 CURVE SMOOTH"
);
},
{
closed = 1;
nodes = (
"257 99 OFFCURVE",
"162 172 OFFCURVE",
"162 255 CURVE SMOOTH",
"162 302 OFFCURVE",
"188 338 OFFCURVE",
"244 338 CURVE SMOOTH",
"448 338 LINE",
"412 358 LINE",
"412 167 LINE SMOOTH",
"412 128 OFFCURVE",
"405 99 OFFCURVE",
"355 99 CURVE SMOOTH"
);
},
{
closed = 1;
nodes = (
"622 579 LINE",
"622 689 LINE",
"0 689 LINE",
"0 579 LINE"
);
}
);
width = 622;
}
);
rightMetricsKey = "STEM-GURM";
unicode = 0A30;
},
{
glyphname = "la-gurmukhi";
layers = (
{
anchors = (
{
name = bindu;
position = "{589, 680}";
},
{
name = bottom;
position = "{526, 21}";
},
{
name = candra;
position = "{367, 690}";
},
{
name = caret_1;
position = "{366, 30}";
},
{
name = nukta;
position = "{368, -28}";
},
{
name = top;
position = "{579, 670}";
}
);
layerId = "137514A2-B611-49B0-92C3-D60BB464318D";
paths = (
{
closed = 1;
nodes = (
"286 104 LINE",
"218 117 OFFCURVE",
"171 162 OFFCURVE",
"171 224 CURVE SMOOTH",
"171 272 OFFCURVE",
"200 308 OFFCURVE",
"246 329 CURVE",
"288 297 OFFCURVE",
"335 272 OFFCURVE",
"378 253 CURVE",
"417 273 OFFCURVE",
"458 296 OFFCURVE",
"494 325 CURVE",
"537 304 OFFCURVE",
"562 269 OFFCURVE",
"562 224 CURVE SMOOTH",
"562 164 OFFCURVE",
"517 118 OFFCURVE",
"449 104 CURVE",
"462 -8 LINE",
"592 9 OFFCURVE",
"692 93 OFFCURVE",
"692 216 CURVE SMOOTH",
"692 296 OFFCURVE",
"649 363 OFFCURVE",
"579 404 CURVE",
"617 453 OFFCURVE",
"642 515 OFFCURVE",
"642 594 CURVE",
"512 594 LINE",
"514 483 OFFCURVE",
"428 411 OFFCURVE",
"357 378 CURVE",
"288 411 OFFCURVE",
"222 472 OFFCURVE",
"224 595 CURVE",
"94 594 LINE",
"94 520 OFFCURVE",
"118 460 OFFCURVE",
"154 412 CURVE",
"86 373 OFFCURVE",
"41 309 OFFCURVE",
"41 225 CURVE SMOOTH",
"41 96 OFFCURVE",
"144 13 OFFCURVE",
"274 -8 CURVE"
);
},
{
closed = 1;
nodes = (
"733 579 LINE",
"733 689 LINE",
"0 689 LINE",
"0 579 LINE"
);
}
);
width = 733;
}
);
rightMetricsKey = "ta-gurmukhi";
unicode = 0A32;
},
{
glyphname = "va-gurmukhi";
layers = (
{
anchors = (
{
name = bindu;
position = "{477, 680}";
},
{
name = bottom;
position = "{412, 0}";
},
{
name = candra;
position = "{477, 690}";
},
{
name = caret_1;
position = "{384, 30}";
},
{
name = nukta;
position = "{102, -33}";
},
{
name = top;
position = "{487, 670}";
}
);
layerId = "137514A2-B611-49B0-92C3-D60BB464318D";
paths = (
{
closed = 1;
nodes = (
"519 202 LINE",
"522 293 LINE",
"233 293 LINE",
"186 293 OFFCURVE",
"162 317 OFFCURVE",
"162 343 CURVE SMOOTH",
"162 363 OFFCURVE",
"178 384 OFFCURVE",
"223 384 CURVE",
"559 384 LINE",
"559 628 LINE",
"430 628 LINE",
"430 453 LINE",
"465 485 LINE",
"193 485 LINE",
"87 485 OFFCURVE",
"38 424 OFFCURVE",
"38 360 CURVE SMOOTH",
"38 281 OFFCURVE",
"109 202 OFFCURVE",
"241 202 CURVE"
);
},
{
closed = 1;
nodes = (
"466 -11 OFFCURVE",
"519 -4 OFFCURVE",
"564 10 CURVE",
"538 114 LINE",
"494 106 OFFCURVE",
"448 99 OFFCURVE",
"397 99 CURVE SMOOTH",
"308 99 OFFCURVE",
"246 120 OFFCURVE",
"246 181 CURVE SMOOTH",
"246 198 OFFCURVE",
"246 216 OFFCURVE",
"247 237 CURVE",
"130 237 LINE",
"128 220 OFFCURVE",
"128 205 OFFCURVE",
"128 193 CURVE SMOOTH",
"128 64 OFFCURVE",
"241 -11 OFFCURVE",
"411 -11 CURVE SMOOTH"
);
},
{
closed = 1;
nodes = (
"640 579 LINE",
"640 689 LINE",
"0 689 LINE",
"0 579 LINE"
);
}
);
width = 639;
}
);
leftMetricsKey = "ra-gurmukhi";
unicode = 0A35;
},
{
glyphname = "sa-gurmukhi";
layers = (
{
anchors = (
{
name = bindu;
position = "{545, 680}";
},
{
name = bottom;
position = "{562, 0}";
},
{
name = candra;
position = "{545, 690}";
},
{
name = caret_1;
position = "{353, 30}";
},
{
name = nukta;
position = "{353, 33}";
},
{
name = top;
position = "{555, 670}";
}
);
components = (
{
name = "ma-gurmukhi";
}
);
layerId = "137514A2-B611-49B0-92C3-D60BB464318D";
paths = (
{
closed = 1;
nodes = (
"617 579 LINE",
"617 689 LINE",
"4 689 LINE",
"4 579 LINE"
);
}
);
width = 707;
}
);
leftMetricsKey = "ma-gurmukhi";
rightMetricsKey = "ma-gurmukhi";
unicode = 0A38;
},
{
glyphname = "ha-gurmukhi";
layers = (
{
anchors = (
{
name = bindu;
position = "{457, 680}";
},
{
name = bottom;
position = "{372, 0}";
},
{
name = candra;
position = "{457, 690}";
},
{
name = caret_1;
position = "{345, 30}";
},
{
name = nukta;
position = "{72, -23}";
},
{
name = top;
position = "{467, 670}";
}
);
layerId = "137514A2-B611-49B0-92C3-D60BB464318D";
paths = (
{
closed = 1;
nodes = (
"466 -11 OFFCURVE",
"540 37 OFFCURVE",
"540 150 CURVE",
"540 636 LINE",
"411 636 LINE",
"412 167 LINE",
"412 125 OFFCURVE",
"405 99 OFFCURVE",
"354 99 CURVE SMOOTH",
"268 99 OFFCURVE",
"162 163 OFFCURVE",
"162 257 CURVE SMOOTH",
"162 319 OFFCURVE",
"199 338 OFFCURVE",
"292 338 CURVE",
"279 448 LINE",
"118 448 OFFCURVE",
"32 401 OFFCURVE",
"32 275 CURVE SMOOTH",
"32 106 OFFCURVE",
"224 -11 OFFCURVE",
"369 -11 CURVE SMOOTH"
);
},
{
closed = 1;
nodes = (
"622 579 LINE",
"622 689 LINE",
"0 689 LINE",
"0 579 LINE"
);
}
);
width = 622;
}
);
rightMetricsKey = "STEM-GURM";
unicode = 0A39;
},
{
glyphname = "rra-gurmukhi";
layers = (
{
anchors = (
{
name = bindu;
position = "{494, 680}";
},
{
name = bottom;
position = "{318, 29}";
},
{
name = candra;
position = "{494, 690}";
},
{
name = caret_1;
position = "{318, 53}";
},
{
name = top;
position = "{484, 670}";
}
);
layerId = "137514A2-B611-49B0-92C3-D60BB464318D";
paths = (
{
closed = 1;
nodes = (
"147 0 LINE",
"147 38 LINE SMOOTH",
"147 62 OFFCURVE",
"158 74 OFFCURVE",
"180 74 CURVE SMOOTH",
"220 74 OFFCURVE",
"234 33 OFFCURVE",
"327 33 CURVE SMOOTH",
"367 33 OFFCURVE",
"404 39 OFFCURVE",
"429 54 CURVE",
"393 77 LINE",
"452 -3 LINE",
"561 0 LINE",
"559 15 LINE",
"485 125 LINE",
"485 78 LINE",
"533 112 OFFCURVE",
"560 162 OFFCURVE",
"560 214 CURVE SMOOTH",
"560 283 OFFCURVE",
"512 355 OFFCURVE",
"398 378 CURVE",
"412 352 LINE",
"496 389 OFFCURVE",
"545 467 OFFCURVE",
"545 585 CURVE",
"545 601 LINE",
"417 601 LINE",
"417 586 LINE",
"417 502 OFFCURVE",
"390 441 OFFCURVE",
"289 430 CURVE",
"348 429 LINE",
"311 448 OFFCURVE",
"257 455 OFFCURVE",
"204 455 CURVE SMOOTH",
"167 455 OFFCURVE",
"126 450 OFFCURVE",
"94 440 CURVE",
"101 331 LINE",
"136 321 OFFCURVE",
"174 316 OFFCURVE",
"216 316 CURVE SMOOTH",
"264 316 OFFCURVE",
"317 322 OFFCURVE",
"362 335 CURVE",
"291 335 LINE",
"396 333 OFFCURVE",
"436 277 OFFCURVE",
"436 230 CURVE SMOOTH",
"436 180 OFFCURVE",
"391 138 OFFCURVE",
"310 138 CURVE SMOOTH",
"231 138 OFFCURVE",
"221 183 OFFCURVE",
"154 183 CURVE SMOOTH",
"83 183 OFFCURVE",
"34 134 OFFCURVE",
"34 47 CURVE SMOOTH",
"34 0 LINE"
);
},
{
closed = 1;
nodes = (
"610 579 LINE",
"610 689 LINE",
"0 689 LINE",
"0 579 LINE"
);
}
);
width = 610;
}
);
leftMetricsKey = "ta-gurmukhi";
rightMetricsKey = "ta-gurmukhi";
unicode = 0A5C;
},
{
glyphname = "iri-gurmukhi";
layers = (
{
anchors = (
{
name = bindu;
position = "{469, 680}";
},
{
name = bottom;
position = "{384, 2}";
},
{
name = candra;
position = "{469, 690}";
},
{
name = caret_1;
position = "{382, 30}";
},
{
name = nukta;
position = "{103, -41}";
},
{
name = top;
position = "{479, 670}";
}
);
layerId = "137514A2-B611-49B0-92C3-D60BB464318D";
paths = (
{
closed = 1;
nodes = (
"453 -11 OFFCURVE",
"520 3 OFFCURVE",
"572 29 CURVE",
"545 133 LINE",
"494 113 OFFCURVE",
"432 101 OFFCURVE",
"373 101 CURVE SMOOTH",
"250 101 OFFCURVE",
"169 154 OFFCURVE",
"148 210 CURVE",
"149 178 LINE",
"181 230 OFFCURVE",
"268 301 OFFCURVE",
"460 303 CURVE SMOOTH",
"552 303 LINE",
"552 635 LINE",
"423 635 LINE",
"423 373 LINE",
"456 410 LINE",
"410 410 LINE",
"270 410 OFFCURVE",
"179 493 OFFCURVE",
"179 601 CURVE",
"50 606 LINE",
"50 496 OFFCURVE",
"135 399 OFFCURVE",
"262 358 CURVE",
"268 382 LINE",
"136 354 OFFCURVE",
"62 278 OFFCURVE",
"32 220 CURVE",
"67 82 OFFCURVE",
"213 -11 OFFCURVE",
"384 -11 CURVE SMOOTH"
);
},
{
closed = 1;
nodes = (
"633 579 LINE",
"633 689 LINE",
"-14 689 LINE",
"-14 579 LINE"
);
}
);
width = 633;
}
);
rightMetricsKey = "STEM-GURM";
unicode = 0A72;
},
{
glyphname = "ura-gurmukhi";
layers = (
{
anchors = (
{
name = bindu;
position = "{671, 680}";
},
{
name = bottom;
position = "{389, 2}";
},
{
name = candra;
position = "{791, 650}";
},
{
name = caret_1;
position = "{387, 30}";
},
{
name = nukta;
position = "{92, -15}";
}
);
layerId = "137514A2-B611-49B0-92C3-D60BB464318D";
paths = (
{
closed = 1;
nodes = (
"525 -11 OFFCURVE",
"605 72 OFFCURVE",
"605 169 CURVE SMOOTH",
"605 257 OFFCURVE",
"537 346 OFFCURVE",
"390 371 CURVE",
"398 319 LINE",
"547 366 OFFCURVE",
"614 470 OFFCURVE",
"614 609 CURVE SMOOTH",
"614 805 OFFCURVE",
"499 942 OFFCURVE",
"319 942 CURVE SMOOTH",
"156 942 OFFCURVE",
"47 830 OFFCURVE",
"47 541 CURVE SMOOTH",
"47 264 OFFCURVE",
"149 -11 OFFCURVE",
"390 -11 CURVE SMOOTH"
);
},
{
closed = 1;
nodes = (
"216 101 OFFCURVE",
"169 344 OFFCURVE",
"169 533 CURVE SMOOTH",
"169 728 OFFCURVE",
"215 831 OFFCURVE",
"333 831 CURVE SMOOTH",
"437 831 OFFCURVE",
"489 757 OFFCURVE",
"489 628 CURVE SMOOTH",
"489 506 OFFCURVE",
"438 414 OFFCURVE",
"271 414 CURVE SMOOTH",
"123 414 LINE",
"123 316 LINE",
"308 316 LINE SMOOTH",
"430 316 OFFCURVE",
"479 251 OFFCURVE",
"479 192 CURVE SMOOTH",
"479 138 OFFCURVE",
"437 101 OFFCURVE",
"373 101 CURVE SMOOTH"
);
},
{
closed = 1;
nodes = (
"674 579 LINE",
"674 689 LINE",
"-14 689 LINE",
"-14 579 LINE"
);
}
);
width = 660;
}
);
unicode = 0A73;
},
{
glyphname = "ekonkar-gurmukhi";
layers = (
{
layerId = "137514A2-B611-49B0-92C3-D60BB464318D";
paths = (
{
closed = 1;
nodes = (
"1133 -11 OFFCURVE",
"1214 71 OFFCURVE",
"1214 166 CURVE SMOOTH",
"1214 247 OFFCURVE",
"1157 326 OFFCURVE",
"1032 356 CURVE",
"1039 329 LINE",
"1164 375 OFFCURVE",
"1219 469 OFFCURVE",
"1223 592 CURVE",
"1096 591 LINE",
"1089 487 OFFCURVE",
"1036 409 OFFCURVE",
"880 409 CURVE SMOOTH",
"774 409 LINE",
"789 311 LINE",
"917 311 LINE SMOOTH",
"1039 311 OFFCURVE",
"1088 246 OFFCURVE",
"1088 190 CURVE SMOOTH",
"1088 137 OFFCURVE",
"1046 101 OFFCURVE",
"985 101 CURVE SMOOTH",
"811 101 OFFCURVE",
"778 378 OFFCURVE",
"778 549 CURVE SMOOTH",
"778 765 OFFCURVE",
"832 904 OFFCURVE",
"1101 904 CURVE SMOOTH",
"1126 904 OFFCURVE",
"1152 901 OFFCURVE",
"1175 895 CURVE",
"1151 912 LINE",
"1168 860 OFFCURVE",
"1206 814 OFFCURVE",
"1280 789 CURVE SMOOTH",
"1315 780 OFFCURVE",
"1346 780 OFFCURVE",
"1377 786 CURVE",
"1419 869 LINE",
"1367 920 OFFCURVE",
"1279 967 OFFCURVE",
"1235 980 CURVE",
"1253 948 LINE",
"1249 964 OFFCURVE",
"1247 976 OFFCURVE",
"1247 993 CURVE SMOOTH",
"1247 1094 OFFCURVE",
"1317 1154 OFFCURVE",
"1408 1154 CURVE SMOOTH",
"1494 1154 OFFCURVE",
"1576 1101 OFFCURVE",
"1609 1015 CURVE",
"1695 1062 LINE",
"1646 1188 OFFCURVE",
"1524 1260 OFFCURVE",
"1402 1260 CURVE SMOOTH",
"1255 1260 OFFCURVE",
"1145 1154 OFFCURVE",
"1145 1002 CURVE",
"1201 991 LINE",
"1143 1008 OFFCURVE",
"1092 1012 OFFCURVE",
"1062 1012 CURVE SMOOTH",
"813 1012 OFFCURVE",
"656 897 OFFCURVE",
"656 562 CURVE SMOOTH",
"656 253 OFFCURVE",
"762 -11 OFFCURVE",
"1000 -11 CURVE SMOOTH"
);
},
{
closed = 1;
nodes = (
"628 87 LINE",
"592 93 OFFCURVE",
"562 120 OFFCURVE",
"562 161 CURVE SMOOTH",
"562 402 LINE SMOOTH",
"562 590 OFFCURVE",
"440 702 OFFCURVE",
"283 702 CURVE SMOOTH",
"152 702 OFFCURVE",
"48 624 OFFCURVE",
"48 486 CURVE SMOOTH",
"48 341 OFFCURVE",
"164 250 OFFCURVE",
"301 250 CURVE SMOOTH",
"359 250 OFFCURVE",
"417 267 OFFCURVE",
"462 308 CURVE",
"438 326 LINE",
"438 170 LINE SMOOTH",
"438 61 OFFCURVE",
"514 -2 OFFCURVE",
"595 -17 CURVE"
);
},
{
closed = 1;
nodes = (
"221 361 OFFCURVE",
"168 405 OFFCURVE",
"168 473 CURVE SMOOTH",
"168 543 OFFCURVE",
"222 589 OFFCURVE",
"297 589 CURVE SMOOTH",
"385 589 OFFCURVE",
"449 527 OFFCURVE",
"444 411 CURVE",
"451 483 LINE",
"439 406 OFFCURVE",
"370 361 OFFCURVE",
"296 361 CURVE SMOOTH"
);
},
{
closed = 1;
nodes = (
"1281 579 LINE",
"1281 689 LINE",
"778 689 LINE",
"767 579 LINE"
);
}
);
width = 1352;
}
);
leftMetricsKey = "one-gurmukhi";
unicode = 0A74;
},
{
glyphname = "ya-gurmukhi.post";
layers = (
{
anchors = (
{
name = bindu;
position = "{370, 680}";
},
{
name = bottom;
position = "{388, 0}";
},
{
name = candra;
position = "{370, 690}";
},
{
name = caret_1;
position = "{160, 30}";
},
{
name = nukta;
position = "{159, -30}";
},
{
name = top;
position = "{380, 670}";
}
);
layerId = "137514A2-B611-49B0-92C3-D60BB464318D";
paths = (
{
closed = 1;
nodes = (
"7 92 LINE SMOOTH",
"121 92 OFFCURVE",
"223 146 OFFCURVE",
"223 279 CURVE SMOOTH",
"223 338 LINE",
"188 308 LINE",
"340 308 LINE",
"340 418 LINE",
"103 418 LINE",
"103 299 LINE SMOOTH",
"103 218 OFFCURVE",
"39 201 OFFCURVE",
"1 201 CURVE SMOOTH",
"-99 201 LINE",
"-99 92 LINE"
);
},
{
closed = 1;
nodes = (
"368 579 LINE",
"368 689 LINE",
"0 689 LINE",
"0 579 LINE"
);
},
{
closed = 1;
nodes = (
"452 0 LINE",
"452 633 LINE",
"419 579 LINE",
"533 579 LINE",
"533 689 LINE",
"323 689 LINE",
"323 0 LINE"
);
}
);
width = 533;
}
);
rightMetricsKey = "STEM-GURM";
},
{
glyphname = "ekonkar-gurmukhi.ss01";
layers = (
{
layerId = "137514A2-B611-49B0-92C3-D60BB464318D";
paths = (
{
closed = 1;
nodes = (
"1096 591 LINE",
"1089 487 OFFCURVE",
"1036 409 OFFCURVE",
"880 409 CURVE SMOOTH",
"774 409 LINE",
"789 311 LINE",
"917 311 LINE SMOOTH",
"1039 311 OFFCURVE",
"1088 246 OFFCURVE",
"1088 190 CURVE SMOOTH",
"1088 137 OFFCURVE",
"1046 101 OFFCURVE",
"985 101 CURVE SMOOTH",
"805 101 OFFCURVE",
"778 402 OFFCURVE",
"778 551 CURVE SMOOTH",
"778 742 OFFCURVE",
"819 903 OFFCURVE",
"1040 903 CURVE SMOOTH",
"1056 903 OFFCURVE",
"1072 900 OFFCURVE",
"1084 895 CURVE",
"1125 810 OFFCURVE",
"1216 791 OFFCURVE",
"1293 800 CURVE",
"1335 883 LINE",
"1291 926 OFFCURVE",
"1232 963 OFFCURVE",
"1166 988 CURVE",
"1164 997 OFFCURVE",
"1163 1007 OFFCURVE",
"1163 1019 CURVE SMOOTH",
"1163 1244 OFFCURVE",
"1322 1374 OFFCURVE",
"1531 1374 CURVE SMOOTH",
"1655 1374 OFFCURVE",
"1767 1325 OFFCURVE",
"1835 1250 CURVE",
"1885 1326 LINE",
"1810 1421 OFFCURVE",
"1674 1483 OFFCURVE",
"1524 1483 CURVE SMOOTH",
"1270 1483 OFFCURVE",
"1061 1319 OFFCURVE",
"1061 1028 CURVE SMOOTH",
"1061 1007 OFFCURVE",
"1061 988 OFFCURVE",
"1063 968 CURVE",
"1087 1004 LINE",
"1070 1010 OFFCURVE",
"1050 1012 OFFCURVE",
"1034 1012 CURVE SMOOTH",
"801 1012 OFFCURVE",
"656 892 OFFCURVE",
"656 563 CURVE SMOOTH",
"656 256 OFFCURVE",
"762 -11 OFFCURVE",
"1000 -11 CURVE SMOOTH",
"1133 -11 OFFCURVE",
"1214 71 OFFCURVE",
"1214 166 CURVE SMOOTH",
"1214 247 OFFCURVE",
"1157 326 OFFCURVE",
"1032 356 CURVE",
"1039 329 LINE",
"1164 375 OFFCURVE",
"1219 469 OFFCURVE",
"1223 592 CURVE"
);
},
{
closed = 1;
nodes = (
"628 87 LINE",
"592 93 OFFCURVE",
"562 120 OFFCURVE",
"562 161 CURVE SMOOTH",
"562 402 LINE SMOOTH",
"562 590 OFFCURVE",
"440 702 OFFCURVE",
"283 702 CURVE SMOOTH",
"152 702 OFFCURVE",
"48 624 OFFCURVE",
"48 486 CURVE SMOOTH",
"48 341 OFFCURVE",
"164 250 OFFCURVE",
"300 250 CURVE SMOOTH",
"359 250 OFFCURVE",
"417 267 OFFCURVE",
"462 308 CURVE",
"438 326 LINE",
"438 170 LINE SMOOTH",
"438 61 OFFCURVE",
"514 -2 OFFCURVE",
"595 -17 CURVE"
);
},
{
closed = 1;
nodes = (
"221 361 OFFCURVE",
"168 405 OFFCURVE",
"168 473 CURVE SMOOTH",
"168 543 OFFCURVE",
"222 589 OFFCURVE",
"297 589 CURVE SMOOTH",
"385 589 OFFCURVE",
"449 527 OFFCURVE",
"444 411 CURVE",
"451 483 LINE",
"439 406 OFFCURVE",
"370 361 OFFCURVE",
"296 361 CURVE SMOOTH"
);
},
{
closed = 1;
nodes = (
"1281 579 LINE",
"1281 689 LINE",
"777 689 LINE",
"766 579 LINE"
);
}
);
width = 1352;
}
);
leftMetricsKey = "one-gurmukhi";
},
{
glyphname = zero;
layers = (
{
layerId = "137514A2-B611-49B0-92C3-D60BB464318D";
paths = (
{
closed = 1;
nodes = (
"137 705 OFFCURVE",
"42 579 OFFCURVE",
"42 351 CURVE SMOOTH",
"42 123 OFFCURVE",
"137 -4 OFFCURVE",
"309 -4 CURVE SMOOTH",
"480 -4 OFFCURVE",
"575 123 OFFCURVE",
"575 351 CURVE SMOOTH",
"575 579 OFFCURVE",
"480 705 OFFCURVE",
"309 705 CURVE SMOOTH"
);
},
{
closed = 1;
nodes = (
"399 602 OFFCURVE",
"443 524 OFFCURVE",
"443 351 CURVE SMOOTH",
"443 178 OFFCURVE",
"399 99 OFFCURVE",
"309 99 CURVE SMOOTH",
"218 99 OFFCURVE",
"174 178 OFFCURVE",
"174 351 CURVE SMOOTH",
"174 524 OFFCURVE",
"218 602 OFFCURVE",
"309 602 CURVE SMOOTH"
);
}
);
width = 617;
}
);
note = zero;
unicode = 0030;
},
{
glyphname = one;
layers = (
{
layerId = "137514A2-B611-49B0-92C3-D60BB464318D";
paths = (
{
closed = 1;
nodes = (
"384 0 LINE",
"384 701 LINE",
"103 701 LINE",
"103 583 LINE",
"249 583 LINE",
"249 0 LINE"
);
}
);
width = 617;
}
);
note = one;
unicode = 0031;
},
{
glyphname = two;
layers = (
{
layerId = "137514A2-B611-49B0-92C3-D60BB464318D";
paths = (
{
closed = 1;
nodes = (
"210 707 OFFCURVE",
"117 669 OFFCURVE",
"36 605 CURVE",
"90 502 LINE",
"151 556 OFFCURVE",
"224 590 OFFCURVE",
"286 590 CURVE SMOOTH",
"356 590 OFFCURVE",
"398 560 OFFCURVE",
"398 508 CURVE SMOOTH",
"398 471 OFFCURVE",
"364 418 OFFCURVE",
"314 369 CURVE SMOOTH",
"50 97 LINE",
"50 0 LINE",
"569 0 LINE",
"569 118 LINE",
"225 118 LINE",
"405 297 LINE SMOOTH",
"483 377 OFFCURVE",
"538 456 OFFCURVE",
"538 528 CURVE SMOOTH",
"538 637 OFFCURVE",
"443 707 OFFCURVE",
"305 707 CURVE SMOOTH"
);
}
);
width = 617;
}
);
note = two;
unicode = 0032;
},
{
glyphname = three;
layers = (
{
layerId = "137514A2-B611-49B0-92C3-D60BB464318D";
paths = (
{
closed = 1;
nodes = (
"304 412 LINE",
"520 617 LINE",
"520 700 LINE",
"53 700 LINE",
"54 584 LINE",
"355 584 LINE",
"160 399 LINE",
"160 322 LINE",
"267 322 LINE SMOOTH",
"366 322 OFFCURVE",
"424 286 OFFCURVE",
"424 216 CURVE SMOOTH",
"424 148 OFFCURVE",
"367 105 OFFCURVE",
"268 105 CURVE SMOOTH",
"198 105 OFFCURVE",
"129 132 OFFCURVE",
"73 182 CURVE",
"18 73 LINE",
"83 25 OFFCURVE",
"183 -6 OFFCURVE",
"278 -6 CURVE SMOOTH",
"448 -6 OFFCURVE",
"555 86 OFFCURVE",
"555 218 CURVE SMOOTH",
"555 328 OFFCURVE",
"470 395 OFFCURVE",
"344 408 CURVE SMOOTH"
);
}
);
width = 617;
}
);
note = three;
unicode = 0033;
},
{
glyphname = four;
layers = (
{
layerId = "137514A2-B611-49B0-92C3-D60BB464318D";
paths = (
{
closed = 1;
nodes = (
"268 701 LINE",
"33 264 LINE",
"33 166 LINE",
"368 166 LINE",
"368 0 LINE",
"492 0 LINE",
"492 166 LINE",
"593 166 LINE",
"593 281 LINE",
"493 281 LINE",
"492 442 LINE",
"368 442 LINE",
"368 281 LINE",
"174 281 LINE",
"397 701 LINE"
);
}
);
width = 617;
}
);
note = four;
unicode = 0034;
},
{
glyphname = five;
layers = (
{
layerId = "137514A2-B611-49B0-92C3-D60BB464318D";
paths = (
{
closed = 1;
nodes = (
"87 701 LINE",
"87 322 LINE",
"136 327 OFFCURVE",
"238 330 OFFCURVE",
"281 330 CURVE SMOOTH",
"370 330 OFFCURVE",
"424 290 OFFCURVE",
"424 224 CURVE SMOOTH",
"424 152 OFFCURVE",
"370 109 OFFCURVE",
"279 109 CURVE SMOOTH",
"213 109 OFFCURVE",
"143 136 OFFCURVE",
"85 186 CURVE",
"31 78 LINE",
"103 28 OFFCURVE",
"206 -5 OFFCURVE",
"294 -5 CURVE SMOOTH",
"461 -5 OFFCURVE",
"568 89 OFFCURVE",
"568 233 CURVE SMOOTH",
"568 356 OFFCURVE",
"465 445 OFFCURVE",
"304 445 CURVE SMOOTH",
"281 445 OFFCURVE",
"238 445 OFFCURVE",
"211 445 CURVE",
"211 583 LINE",
"538 583 LINE",
"538 701 LINE"
);
}
);
width = 617;
}
);
note = five;
unicode = 0035;
},
{
glyphname = six;
layers = (
{
layerId = "137514A2-B611-49B0-92C3-D60BB464318D";
paths = (
{
closed = 1;
nodes = (
"165 707 OFFCURVE",
"46 561 OFFCURVE",
"46 337 CURVE SMOOTH",
"46 122 OFFCURVE",
"155 -6 OFFCURVE",
"334 -6 CURVE SMOOTH",
"485 -6 OFFCURVE",
"584 85 OFFCURVE",
"584 231 CURVE SMOOTH",
"584 368 OFFCURVE",
"498 456 OFFCURVE",
"359 456 CURVE SMOOTH",
"274 456 OFFCURVE",
"211 423 OFFCURVE",
"175 363 CURVE",
"170 505 OFFCURVE",
"232 597 OFFCURVE",
"361 597 CURVE SMOOTH",
"414 597 OFFCURVE",
"471 581 OFFCURVE",
"513 553 CURVE",
"565 652 LINE",
"508 686 OFFCURVE",
"423 707 OFFCURVE",
"352 707 CURVE SMOOTH"
);
},
{
closed = 1;
nodes = (
"412 352 OFFCURVE",
"461 306 OFFCURVE",
"461 232 CURVE SMOOTH",
"461 153 OFFCURVE",
"407 107 OFFCURVE",
"328 107 CURVE SMOOTH",
"235 107 OFFCURVE",
"193 170 OFFCURVE",
"194 228 CURVE SMOOTH",
"193 296 OFFCURVE",
"244 352 OFFCURVE",
"333 352 CURVE SMOOTH"
);
}
);
width = 617;
}
);
note = six;
unicode = 0036;
},
{
glyphname = seven;
layers = (
{
layerId = "137514A2-B611-49B0-92C3-D60BB464318D";
paths = (
{
closed = 1;
nodes = (
"45 701 LINE",
"45 485 LINE",
"164 485 LINE",
"165 583 LINE",
"436 583 LINE",
"155 0 LINE",
"298 0 LINE",
"585 601 LINE",
"585 701 LINE"
);
}
);
width = 617;
}
);
note = seven;
unicode = 0037;
},
{
glyphname = eight;
layers = (
{
layerId = "137514A2-B611-49B0-92C3-D60BB464318D";
paths = (
{
closed = 1;
nodes = (
"164 707 OFFCURVE",
"73 638 OFFCURVE",
"73 528 CURVE SMOOTH",
"73 462 OFFCURVE",
"112 407 OFFCURVE",
"177 375 CURVE",
"92 345 OFFCURVE",
"38 279 OFFCURVE",
"38 195 CURVE SMOOTH",
"38 71 OFFCURVE",
"143 -6 OFFCURVE",
"309 -6 CURVE SMOOTH",
"475 -6 OFFCURVE",
"580 72 OFFCURVE",
"580 197 CURVE SMOOTH",
"580 280 OFFCURVE",
"528 345 OFFCURVE",
"447 375 CURVE",
"507 404 OFFCURVE",
"544 458 OFFCURVE",
"544 523 CURVE SMOOTH",
"544 637 OFFCURVE",
"454 707 OFFCURVE",
"308 707 CURVE SMOOTH"
);
},
{
closed = 1;
nodes = (
"400 317 OFFCURVE",
"454 277 OFFCURVE",
"454 209 CURVE SMOOTH",
"454 139 OFFCURVE",
"400 99 OFFCURVE",
"309 99 CURVE SMOOTH",
"217 99 OFFCURVE",
"164 139 OFFCURVE",
"164 210 CURVE SMOOTH",
"164 278 OFFCURVE",
"217 317 OFFCURVE",
"308 317 CURVE SMOOTH"
);
},
{
closed = 1;
nodes = (
"387 611 OFFCURVE",
"431 576 OFFCURVE",
"431 516 CURVE SMOOTH",
"431 456 OFFCURVE",
"387 421 OFFCURVE",
"309 421 CURVE SMOOTH",
"231 421 OFFCURVE",
"186 456 OFFCURVE",
"186 516 CURVE SMOOTH",
"186 576 OFFCURVE",
"231 611 OFFCURVE",
"309 611 CURVE SMOOTH"
);
}
);
width = 617;
}
);
note = eight;
unicode = 0038;
},
{
glyphname = nine;
layers = (
{
layerId = "137514A2-B611-49B0-92C3-D60BB464318D";
paths = (
{
closed = 1;
nodes = (
"454 -6 OFFCURVE",
"573 140 OFFCURVE",
"573 364 CURVE SMOOTH",
"573 579 OFFCURVE",
"463 707 OFFCURVE",
"285 707 CURVE SMOOTH",
"136 707 OFFCURVE",
"37 616 OFFCURVE",
"37 470 CURVE SMOOTH",
"37 333 OFFCURVE",
"123 245 OFFCURVE",
"261 245 CURVE SMOOTH",
"346 245 OFFCURVE",
"408 278 OFFCURVE",
"444 338 CURVE",
"447 197 OFFCURVE",
"387 104 OFFCURVE",
"258 104 CURVE SMOOTH",
"205 104 OFFCURVE",
"149 120 OFFCURVE",
"107 148 CURVE",
"56 49 LINE",
"113 16 OFFCURVE",
"196 -6 OFFCURVE",
"267 -6 CURVE SMOOTH"
);
},
{
closed = 1;
nodes = (
"209 349 OFFCURVE",
"161 395 OFFCURVE",
"161 469 CURVE SMOOTH",
"161 548 OFFCURVE",
"213 594 OFFCURVE",
"291 594 CURVE SMOOTH",
"385 594 OFFCURVE",
"426 531 OFFCURVE",
"425 473 CURVE SMOOTH",
"426 405 OFFCURVE",
"375 349 OFFCURVE",
"287 349 CURVE SMOOTH"
);
}
);
width = 617;
}
);
note = nine;
unicode = 0039;
},
{
glyphname = zero.lf;
layers = (
{
layerId = "137514A2-B611-49B0-92C3-D60BB464318D";
paths = (
{
closed = 1;
nodes = (
"154 704 OFFCURVE",
"47 578 OFFCURVE",
"47 351 CURVE SMOOTH",
"47 123 OFFCURVE",
"154 -4 OFFCURVE",
"348 -4 CURVE SMOOTH",
"541 -4 OFFCURVE",
"648 123 OFFCURVE",
"648 351 CURVE SMOOTH",
"648 578 OFFCURVE",
"541 704 OFFCURVE",
"348 704 CURVE SMOOTH"
);
},
{
closed = 1;
nodes = (
"457 598 OFFCURVE",
"511 522 OFFCURVE",
"511 351 CURVE SMOOTH",
"511 179 OFFCURVE",
"457 102 OFFCURVE",
"347 102 CURVE SMOOTH",
"237 102 OFFCURVE",
"184 179 OFFCURVE",
"184 351 CURVE SMOOTH",
"184 522 OFFCURVE",
"237 598 OFFCURVE",
"347 598 CURVE SMOOTH"
);
}
);
width = 695;
}
);
},
{
glyphname = one.lf;
layers = (
{
layerId = "137514A2-B611-49B0-92C3-D60BB464318D";
paths = (
{
closed = 1;
nodes = (
"280 0 LINE",
"280 700 LINE",
"11 700 LINE",
"11 583 LINE",
"146 583 LINE",
"146 0 LINE"
);
}
);
width = 394;
}
);
},
{
glyphname = two.lf;
layers = (
{
layerId = "137514A2-B611-49B0-92C3-D60BB464318D";
paths = (
{
closed = 1;
nodes = (
"200 706 OFFCURVE",
"109 668 OFFCURVE",
"30 604 CURVE",
"83 501 LINE",
"143 555 OFFCURVE",
"214 589 OFFCURVE",
"274 589 CURVE SMOOTH",
"341 589 OFFCURVE",
"380 559 OFFCURVE",
"380 508 CURVE SMOOTH",
"380 471 OFFCURVE",
"348 417 OFFCURVE",
"300 369 CURVE SMOOTH",
"45 96 LINE",
"45 0 LINE",
"550 0 LINE",
"549 117 LINE",
"220 117 LINE",
"392 297 LINE SMOOTH",
"466 376 OFFCURVE",
"520 455 OFFCURVE",
"520 527 CURVE SMOOTH",
"520 636 OFFCURVE",
"427 706 OFFCURVE",
"293 706 CURVE SMOOTH"
);
}
);
width = 592;
}
);
},
{
glyphname = three.lf;
layers = (
{
layerId = "137514A2-B611-49B0-92C3-D60BB464318D";
paths = (
{
closed = 1;
nodes = (
"277 411 LINE",
"471 616 LINE",
"471 699 LINE",
"35 699 LINE",
"35 584 LINE",
"308 584 LINE SMOOTH",
"133 399 LINE",
"133 321 LINE",
"234 321 LINE SMOOTH",
"321 321 OFFCURVE",
"372 286 OFFCURVE",
"372 216 CURVE SMOOTH",
"372 148 OFFCURVE",
"322 105 OFFCURVE",
"235 105 CURVE SMOOTH",
"171 105 OFFCURVE",
"108 132 OFFCURVE",
"57 182 CURVE",
"2 73 LINE",
"63 26 OFFCURVE",
"156 -6 OFFCURVE",
"245 -6 CURVE SMOOTH",
"403 -6 OFFCURVE",
"503 86 OFFCURVE",
"503 218 CURVE SMOOTH",
"503 328 OFFCURVE",
"425 395 OFFCURVE",
"313 407 CURVE SMOOTH"
);
}
);
width = 544;
}
);
},
{
glyphname = four.lf;
layers = (
{
layerId = "137514A2-B611-49B0-92C3-D60BB464318D";
paths = (
{
closed = 1;
nodes = (
"263 700 LINE",
"29 264 LINE",
"29 166 LINE",
"363 166 LINE",
"363 0 LINE",
"488 0 LINE",
"488 166 LINE",
"587 166 LINE",
"588 281 LINE",
"488 281 LINE",
"488 442 LINE",
"363 442 LINE",
"363 281 LINE",
"171 281 LINE",
"393 700 LINE"
);
}
);
width = 608;
}
);
},
{
glyphname = five.lf;
layers = (
{
layerId = "137514A2-B611-49B0-92C3-D60BB464318D";
paths = (
{
closed = 1;
nodes = (
"77 700 LINE",
"77 322 LINE",
"123 326 OFFCURVE",
"222 329 OFFCURVE",
"263 329 CURVE SMOOTH",
"347 329 OFFCURVE",
"398 290 OFFCURVE",
"398 223 CURVE SMOOTH",
"398 151 OFFCURVE",
"347 109 OFFCURVE",
"262 109 CURVE SMOOTH",
"199 109 OFFCURVE",
"131 136 OFFCURVE",
"76 186 CURVE",
"22 78 LINE",
"92 28 OFFCURVE",
"192 -5 OFFCURVE",
"277 -5 CURVE SMOOTH",
"437 -5 OFFCURVE",
"542 88 OFFCURVE",
"542 233 CURVE SMOOTH",
"542 356 OFFCURVE",
"442 445 OFFCURVE",
"287 445 CURVE SMOOTH",
"265 445 OFFCURVE",
"225 444 OFFCURVE",
"200 444 CURVE",
"200 583 LINE",
"512 583 LINE",
"512 700 LINE"
);
}
);
width = 581;
}
);
},
{
glyphname = six.lf;
layers = (
{
layerId = "137514A2-B611-49B0-92C3-D60BB464318D";
paths = (
{
closed = 1;
nodes = (
"167 706 OFFCURVE",
"47 561 OFFCURVE",
"47 338 CURVE SMOOTH",
"47 123 OFFCURVE",
"157 -6 OFFCURVE",
"337 -6 CURVE SMOOTH",
"488 -6 OFFCURVE",
"587 85 OFFCURVE",
"587 232 CURVE SMOOTH",
"587 367 OFFCURVE",
"501 456 OFFCURVE",
"362 456 CURVE SMOOTH",
"276 456 OFFCURVE",
"213 423 OFFCURVE",
"177 364 CURVE",
"174 503 OFFCURVE",
"234 595 OFFCURVE",
"364 595 CURVE SMOOTH",
"417 595 OFFCURVE",
"474 579 OFFCURVE",
"517 550 CURVE",
"569 651 LINE",
"511 685 OFFCURVE",
"426 706 OFFCURVE",
"355 706 CURVE SMOOTH"
);
},
{
closed = 1;
nodes = (
"415 350 OFFCURVE",
"462 306 OFFCURVE",
"462 233 CURVE SMOOTH",
"462 154 OFFCURVE",
"410 109 OFFCURVE",
"331 109 CURVE SMOOTH",
"238 109 OFFCURVE",
"196 171 OFFCURVE",
"197 228 CURVE SMOOTH",
"196 295 OFFCURVE",
"247 350 OFFCURVE",
"335 350 CURVE SMOOTH"
);
}
);
width = 621;
}
);
leftMetricsKey = zero.lf;
},
{
glyphname = seven.lf;
layers = (
{
layerId = "137514A2-B611-49B0-92C3-D60BB464318D";
paths = (
{
closed = 1;
nodes = (
"35 700 LINE",
"35 485 LINE",
"154 485 LINE",
"154 583 LINE",
"405 583 LINE",
"139 0 LINE",
"281 0 LINE",
"554 600 LINE",
"554 700 LINE"
);
}
);
width = 576;
}
);
},
{
glyphname = eight.lf;
layers = (
{
layerId = "137514A2-B611-49B0-92C3-D60BB464318D";
paths = (
{
closed = 1;
nodes = (
"169 706 OFFCURVE",
"76 637 OFFCURVE",
"76 527 CURVE SMOOTH",
"76 461 OFFCURVE",
"117 406 OFFCURVE",
"182 375 CURVE",
"96 345 OFFCURVE",
"41 278 OFFCURVE",
"41 195 CURVE SMOOTH",
"41 71 OFFCURVE",
"147 -6 OFFCURVE",
"315 -6 CURVE SMOOTH",
"483 -6 OFFCURVE",
"589 72 OFFCURVE",
"589 197 CURVE SMOOTH",
"589 279 OFFCURVE",
"537 345 OFFCURVE",
"455 375 CURVE",
"516 404 OFFCURVE",
"554 457 OFFCURVE",
"554 523 CURVE SMOOTH",
"554 636 OFFCURVE",
"462 706 OFFCURVE",
"315 706 CURVE SMOOTH"
);
},
{
closed = 1;
nodes = (
"409 316 OFFCURVE",
"463 277 OFFCURVE",
"463 209 CURVE SMOOTH",
"463 138 OFFCURVE",
"408 99 OFFCURVE",
"315 99 CURVE SMOOTH",
"221 99 OFFCURVE",
"168 139 OFFCURVE",
"168 209 CURVE SMOOTH",
"168 277 OFFCURVE",
"222 316 OFFCURVE",
"315 316 CURVE SMOOTH"
);
},
{
closed = 1;
nodes = (
"395 610 OFFCURVE",
"440 575 OFFCURVE",
"440 515 CURVE SMOOTH",
"440 455 OFFCURVE",
"395 420 OFFCURVE",
"315 420 CURVE SMOOTH",
"236 420 OFFCURVE",
"190 455 OFFCURVE",
"190 515 CURVE SMOOTH",
"190 575 OFFCURVE",
"236 610 OFFCURVE",
"315 610 CURVE SMOOTH"
);
}
);
width = 631;
}
);
},
{
glyphname = zero.osf;
layers = (
{
layerId = "137514A2-B611-49B0-92C3-D60BB464318D";
paths = (
{
closed = 1;
nodes = (
"169 604 OFFCURVE",
"47 481 OFFCURVE",
"47 301 CURVE SMOOTH",
"47 119 OFFCURVE",
"169 -4 OFFCURVE",
"348 -4 CURVE SMOOTH",
"527 -4 OFFCURVE",
"648 119 OFFCURVE",
"648 301 CURVE SMOOTH",
"648 481 OFFCURVE",
"527 604 OFFCURVE",
"348 604 CURVE SMOOTH"
);
},
{
closed = 1;
nodes = (
"444 495 OFFCURVE",
"511 419 OFFCURVE",
"511 301 CURVE SMOOTH",
"511 181 OFFCURVE",
"444 106 OFFCURVE",
"347 106 CURVE SMOOTH",
"251 106 OFFCURVE",
"184 181 OFFCURVE",
"184 301 CURVE SMOOTH",
"184 419 OFFCURVE",
"251 495 OFFCURVE",
"347 495 CURVE SMOOTH"
);
}
);
width = 695;
}
);
},
{
glyphname = one.osf;
layers = (
{
layerId = "137514A2-B611-49B0-92C3-D60BB464318D";
paths = (
{
closed = 1;
nodes = (
"280 0 LINE",
"280 600 LINE",
"11 600 LINE",
"11 482 LINE",
"146 482 LINE",
"146 0 LINE"
);
}
);
width = 394;
}
);
},
{
glyphname = two.osf;
layers = (
{
layerId = "137514A2-B611-49B0-92C3-D60BB464318D";
paths = (
{
closed = 1;
nodes = (
"187 609 OFFCURVE",
"104 576 OFFCURVE",
"30 519 CURVE",
"82 416 LINE",
"137 463 OFFCURVE",
"201 493 OFFCURVE",
"254 493 CURVE SMOOTH",
"309 493 OFFCURVE",
"342 470 OFFCURVE",
"342 432 CURVE SMOOTH",
"342 404 OFFCURVE",
"314 362 OFFCURVE",
"274 324 CURVE SMOOTH",
"45 94 LINE",
"45 0 LINE",
"506 0 LINE",
"506 117 LINE",
"221 117 LINE",
"365 253 LINE",
"434 320 OFFCURVE",
"482 389 OFFCURVE",
"482 453 CURVE SMOOTH",
"482 547 OFFCURVE",
"396 609 OFFCURVE",
"274 609 CURVE SMOOTH"
);
}
);
width = 548;
}
);
leftMetricsKey = two.lf;
rightMetricsKey = two.lf;
},
{
glyphname = three.osf;
layers = (
{
layerId = "137514A2-B611-49B0-92C3-D60BB464318D";
paths = (
{
closed = 1;
nodes = (
"277 312 LINE",
"470 516 LINE",
"470 599 LINE",
"35 599 LINE",
"35 483 LINE",
"308 483 LINE SMOOTH",
"133 299 LINE",
"133 221 LINE",
"234 221 LINE SMOOTH",
"321 221 OFFCURVE",
"371 186 OFFCURVE",
"371 116 CURVE SMOOTH",
"371 48 OFFCURVE",
"322 5 OFFCURVE",
"235 5 CURVE SMOOTH",
"172 5 OFFCURVE",
"108 32 OFFCURVE",
"57 82 CURVE",
"2 -27 LINE",
"63 -75 OFFCURVE",
"156 -106 OFFCURVE",
"245 -106 CURVE SMOOTH",
"403 -106 OFFCURVE",
"503 -14 OFFCURVE",
"503 118 CURVE SMOOTH",
"503 227 OFFCURVE",
"425 295 OFFCURVE",
"313 308 CURVE SMOOTH"
);
}
);
width = 544;
}
);
},
{
glyphname = four.osf;
layers = (
{
layerId = "137514A2-B611-49B0-92C3-D60BB464318D";
paths = (
{
closed = 1;
nodes = (
"263 600 LINE",
"29 164 LINE",
"29 65 LINE",
"362 65 LINE",
"362 -100 LINE",
"487 -100 LINE",
"487 65 LINE",
"588 65 LINE",
"588 181 LINE",
"487 181 LINE",
"487 342 LINE",
"362 342 LINE",
"362 181 LINE",
"171 181 LINE",
"392 600 LINE"
);
}
);
width = 608;
}
);
},
{
glyphname = five.osf;
layers = (
{
layerId = "137514A2-B611-49B0-92C3-D60BB464318D";
paths = (
{
closed = 1;
nodes = (
"78 600 LINE",
"78 222 LINE",
"124 226 OFFCURVE",
"223 229 OFFCURVE",
"263 229 CURVE SMOOTH",
"348 229 OFFCURVE",
"398 190 OFFCURVE",
"398 124 CURVE SMOOTH",
"398 52 OFFCURVE",
"348 9 OFFCURVE",
"263 9 CURVE SMOOTH",
"200 9 OFFCURVE",
"132 36 OFFCURVE",
"76 86 CURVE",
"23 -22 LINE",
"93 -72 OFFCURVE",
"192 -105 OFFCURVE",
"278 -105 CURVE SMOOTH",
"438 -105 OFFCURVE",
"542 -11 OFFCURVE",
"542 133 CURVE SMOOTH",
"542 256 OFFCURVE",
"442 345 OFFCURVE",
"288 345 CURVE SMOOTH",
"266 345 OFFCURVE",
"226 344 OFFCURVE",
"201 344 CURVE",
"201 482 LINE",
"513 482 LINE",
"513 600 LINE"
);
}
);
width = 582;
}
);
},
{
glyphname = six.osf;
layers = (
{
layerId = "137514A2-B611-49B0-92C3-D60BB464318D";
paths = (
{
closed = 1;
nodes = (
"167 706 OFFCURVE",
"47 561 OFFCURVE",
"47 338 CURVE SMOOTH",
"47 123 OFFCURVE",
"157 -6 OFFCURVE",
"337 -6 CURVE SMOOTH",
"488 -6 OFFCURVE",
"587 85 OFFCURVE",
"587 232 CURVE SMOOTH",
"587 367 OFFCURVE",
"501 456 OFFCURVE",
"362 456 CURVE SMOOTH",
"276 456 OFFCURVE",
"213 423 OFFCURVE",
"177 364 CURVE",
"174 503 OFFCURVE",
"234 595 OFFCURVE",
"364 595 CURVE SMOOTH",
"417 595 OFFCURVE",
"474 579 OFFCURVE",
"517 550 CURVE",
"569 651 LINE",
"511 685 OFFCURVE",
"426 706 OFFCURVE",
"355 706 CURVE SMOOTH"
);
},
{
closed = 1;
nodes = (
"415 350 OFFCURVE",
"462 306 OFFCURVE",
"462 233 CURVE SMOOTH",
"462 154 OFFCURVE",
"410 109 OFFCURVE",
"331 109 CURVE SMOOTH",
"238 109 OFFCURVE",
"196 171 OFFCURVE",
"197 228 CURVE SMOOTH",
"196 295 OFFCURVE",
"247 350 OFFCURVE",
"335 350 CURVE SMOOTH"
);
}
);
width = 621;
}
);
leftMetricsKey = zero.lf;
},
{
glyphname = seven.osf;
layers = (
{
layerId = "137514A2-B611-49B0-92C3-D60BB464318D";
paths = (
{
closed = 1;
nodes = (
"36 600 LINE",
"36 384 LINE",
"154 384 LINE",
"155 482 LINE",
"405 482 LINE",
"139 -100 LINE",
"281 -100 LINE",
"555 500 LINE",
"555 600 LINE"
);
}
);
width = 577;
}
);
},
{
glyphname = eight.osf;
layers = (
{
layerId = "137514A2-B611-49B0-92C3-D60BB464318D";
paths = (
{
closed = 1;
nodes = (
"169 706 OFFCURVE",
"76 637 OFFCURVE",
"76 527 CURVE SMOOTH",
"76 461 OFFCURVE",
"117 406 OFFCURVE",
"182 375 CURVE",
"96 345 OFFCURVE",
"41 278 OFFCURVE",
"41 195 CURVE SMOOTH",
"41 71 OFFCURVE",
"147 -6 OFFCURVE",
"315 -6 CURVE SMOOTH",
"483 -6 OFFCURVE",
"589 72 OFFCURVE",
"589 197 CURVE SMOOTH",
"589 279 OFFCURVE",
"537 345 OFFCURVE",
"455 375 CURVE",
"516 404 OFFCURVE",
"554 457 OFFCURVE",
"554 523 CURVE SMOOTH",
"554 636 OFFCURVE",
"462 706 OFFCURVE",
"315 706 CURVE SMOOTH"
);
},
{
closed = 1;
nodes = (
"409 316 OFFCURVE",
"463 277 OFFCURVE",
"463 209 CURVE SMOOTH",
"463 138 OFFCURVE",
"408 99 OFFCURVE",
"315 99 CURVE SMOOTH",
"221 99 OFFCURVE",
"168 139 OFFCURVE",
"168 209 CURVE SMOOTH",
"168 277 OFFCURVE",
"222 316 OFFCURVE",
"315 316 CURVE SMOOTH"
);
},
{
closed = 1;
nodes = (
"395 610 OFFCURVE",
"440 575 OFFCURVE",
"440 515 CURVE SMOOTH",
"440 455 OFFCURVE",
"395 420 OFFCURVE",
"315 420 CURVE SMOOTH",
"236 420 OFFCURVE",
"190 455 OFFCURVE",
"190 515 CURVE SMOOTH",
"190 575 OFFCURVE",
"236 610 OFFCURVE",
"315 610 CURVE SMOOTH"
);
}
);
width = 631;
}
);
},
{
glyphname = zero.tosf;
layers = (
{
layerId = "137514A2-B611-49B0-92C3-D60BB464318D";
paths = (
{
closed = 1;
nodes = (
"146 605 OFFCURVE",
"35 481 OFFCURVE",
"35 301 CURVE SMOOTH",
"35 120 OFFCURVE",
"146 -4 OFFCURVE",
"309 -4 CURVE SMOOTH",
"472 -4 OFFCURVE",
"581 120 OFFCURVE",
"581 301 CURVE SMOOTH",
"581 481 OFFCURVE",
"472 605 OFFCURVE",
"309 605 CURVE SMOOTH"
);
},
{
closed = 1;
nodes = (
"395 501 OFFCURVE",
"454 423 OFFCURVE",
"454 301 CURVE SMOOTH",
"454 178 OFFCURVE",
"395 100 OFFCURVE",
"308 100 CURVE SMOOTH",
"222 100 OFFCURVE",
"162 178 OFFCURVE",
"162 301 CURVE SMOOTH",
"162 423 OFFCURVE",
"222 501 OFFCURVE",
"308 501 CURVE SMOOTH"
);
}
);
width = 617;
}
);
userData = {
RMXScaler = {
source = zero.osf;
};
};
},
{
glyphname = one.tosf;
layers = (
{
layerId = "137514A2-B611-49B0-92C3-D60BB464318D";
paths = (
{
closed = 1;
nodes = (
"396 0 LINE",
"396 601 LINE",
"114 601 LINE",
"114 483 LINE",
"263 483 LINE",
"263 0 LINE"
);
}
);
width = 617;
}
);
userData = {
RMXScaler = {
source = one.osf;
};
};
},
{
glyphname = two.tosf;
layers = (
{
layerId = "137514A2-B611-49B0-92C3-D60BB464318D";
paths = (
{
closed = 1;
nodes = (
"214 609 OFFCURVE",
"125 576 OFFCURVE",
"47 520 CURVE",
"99 417 LINE",
"159 464 OFFCURVE",
"228 494 OFFCURVE",
"287 494 CURVE SMOOTH",
"351 494 OFFCURVE",
"389 471 OFFCURVE",
"389 433 CURVE SMOOTH",
"389 404 OFFCURVE",
"358 363 OFFCURVE",
"312 324 CURVE SMOOTH",
"61 95 LINE",
"61 0 LINE",
"557 0 LINE",
"557 118 LINE",
"237 118 LINE",
"403 254 LINE",
"478 321 OFFCURVE",
"530 389 OFFCURVE",
"530 453 CURVE SMOOTH",
"530 548 OFFCURVE",
"438 609 OFFCURVE",
"306 609 CURVE SMOOTH"
);
}
);
width = 617;
}
);
userData = {
RMXScaler = {
source = two.osf;
};
};
},
{
glyphname = three.tosf;
layers = (
{
layerId = "137514A2-B611-49B0-92C3-D60BB464318D";
paths = (
{
closed = 1;
nodes = (
"304 312 LINE",
"520 517 LINE",
"520 600 LINE",
"53 600 LINE",
"53 484 LINE",
"355 484 LINE",
"160 299 LINE",
"160 222 LINE",
"266 222 LINE SMOOTH",
"366 222 OFFCURVE",
"424 186 OFFCURVE",
"424 116 CURVE SMOOTH",
"424 48 OFFCURVE",
"367 5 OFFCURVE",
"268 5 CURVE SMOOTH",
"198 5 OFFCURVE",
"128 32 OFFCURVE",
"73 82 CURVE",
"18 -27 LINE",
"83 -75 OFFCURVE",
"182 -106 OFFCURVE",
"278 -106 CURVE SMOOTH",
"448 -106 OFFCURVE",
"555 -14 OFFCURVE",
"555 118 CURVE SMOOTH",
"555 228 OFFCURVE",
"470 295 OFFCURVE",
"344 308 CURVE SMOOTH"
);
}
);
width = 617;
}
);
},
{
glyphname = four.tosf;
layers = (
{
layerId = "137514A2-B611-49B0-92C3-D60BB464318D";
paths = (
{
closed = 1;
nodes = (
"269 601 LINE",
"33 164 LINE",
"33 66 LINE",
"368 66 LINE",
"368 -100 LINE",
"492 -100 LINE",
"492 66 LINE",
"593 66 LINE",
"593 181 LINE",
"493 181 LINE",
"492 342 LINE",
"368 342 LINE",
"369 181 LINE",
"175 181 LINE",
"398 601 LINE"
);
}
);
width = 617;
}
);
},
{
glyphname = five.tosf;
layers = (
{
layerId = "137514A2-B611-49B0-92C3-D60BB464318D";
paths = (
{
closed = 1;
nodes = (
"87 601 LINE",
"87 222 LINE",
"136 227 OFFCURVE",
"238 230 OFFCURVE",
"281 230 CURVE SMOOTH",
"371 230 OFFCURVE",
"425 190 OFFCURVE",
"425 124 CURVE SMOOTH",
"425 52 OFFCURVE",
"371 9 OFFCURVE",
"279 9 CURVE SMOOTH",
"214 9 OFFCURVE",
"143 36 OFFCURVE",
"85 86 CURVE",
"31 -22 LINE",
"104 -72 OFFCURVE",
"207 -105 OFFCURVE",
"295 -105 CURVE SMOOTH",
"461 -105 OFFCURVE",
"569 -11 OFFCURVE",
"569 133 CURVE SMOOTH",
"569 256 OFFCURVE",
"465 345 OFFCURVE",
"305 345 CURVE SMOOTH",
"281 345 OFFCURVE",
"238 345 OFFCURVE",
"211 345 CURVE",
"211 483 LINE",
"538 483 LINE",
"538 601 LINE"
);
}
);
width = 617;
}
);
},
{
glyphname = six.tosf;
layers = (
{
layerId = "137514A2-B611-49B0-92C3-D60BB464318D";
paths = (
{
closed = 1;
nodes = (
"165 707 OFFCURVE",
"46 561 OFFCURVE",
"46 337 CURVE SMOOTH",
"46 122 OFFCURVE",
"155 -6 OFFCURVE",
"334 -6 CURVE SMOOTH",
"485 -6 OFFCURVE",
"584 85 OFFCURVE",
"584 231 CURVE SMOOTH",
"584 368 OFFCURVE",
"498 456 OFFCURVE",
"359 456 CURVE SMOOTH",
"274 456 OFFCURVE",
"211 423 OFFCURVE",
"175 363 CURVE",
"170 505 OFFCURVE",
"232 597 OFFCURVE",
"361 597 CURVE SMOOTH",
"414 597 OFFCURVE",
"471 581 OFFCURVE",
"513 553 CURVE",
"565 652 LINE",
"507 686 OFFCURVE",
"423 707 OFFCURVE",
"352 707 CURVE SMOOTH"
);
},
{
closed = 1;
nodes = (
"412 352 OFFCURVE",
"461 306 OFFCURVE",
"461 232 CURVE SMOOTH",
"461 153 OFFCURVE",
"407 107 OFFCURVE",
"328 107 CURVE SMOOTH",
"235 107 OFFCURVE",
"193 170 OFFCURVE",
"194 228 CURVE SMOOTH",
"193 296 OFFCURVE",
"244 352 OFFCURVE",
"333 352 CURVE SMOOTH"
);
}
);
width = 617;
}
);
},
{
glyphname = seven.tosf;
layers = (
{
layerId = "137514A2-B611-49B0-92C3-D60BB464318D";
paths = (
{
closed = 1;
nodes = (
"45 601 LINE",
"45 385 LINE",
"164 385 LINE",
"165 483 LINE",
"436 483 LINE",
"155 -100 LINE",
"297 -100 LINE",
"585 501 LINE",
"585 601 LINE"
);
}
);
width = 617;
}
);
},
{
glyphname = eight.tosf;
layers = (
{
layerId = "137514A2-B611-49B0-92C3-D60BB464318D";
paths = (
{
closed = 1;
nodes = (
"164 707 OFFCURVE",
"72 638 OFFCURVE",
"72 528 CURVE SMOOTH",
"72 462 OFFCURVE",
"112 407 OFFCURVE",
"177 375 CURVE",
"92 345 OFFCURVE",
"38 279 OFFCURVE",
"38 195 CURVE SMOOTH",
"38 71 OFFCURVE",
"143 -6 OFFCURVE",
"309 -6 CURVE SMOOTH",
"475 -6 OFFCURVE",
"580 72 OFFCURVE",
"580 197 CURVE SMOOTH",
"580 280 OFFCURVE",
"528 345 OFFCURVE",
"447 375 CURVE",
"507 404 OFFCURVE",
"544 458 OFFCURVE",
"544 523 CURVE SMOOTH",
"544 637 OFFCURVE",
"454 707 OFFCURVE",
"308 707 CURVE SMOOTH"
);
},
{
closed = 1;
nodes = (
"400 317 OFFCURVE",
"453 277 OFFCURVE",
"453 209 CURVE SMOOTH",
"453 139 OFFCURVE",
"400 99 OFFCURVE",
"309 99 CURVE SMOOTH",
"217 99 OFFCURVE",
"164 139 OFFCURVE",
"164 210 CURVE SMOOTH",
"164 278 OFFCURVE",
"217 317 OFFCURVE",
"308 317 CURVE SMOOTH"
);
},
{
closed = 1;
nodes = (
"387 611 OFFCURVE",
"432 576 OFFCURVE",
"432 516 CURVE SMOOTH",
"432 456 OFFCURVE",
"387 421 OFFCURVE",
"309 421 CURVE SMOOTH",
"231 421 OFFCURVE",
"186 456 OFFCURVE",
"186 516 CURVE SMOOTH",
"186 576 OFFCURVE",
"231 611 OFFCURVE",
"309 611 CURVE SMOOTH"
);
}
);
width = 617;
}
);
},
{
glyphname = nine.tosf;
layers = (
{
layerId = "137514A2-B611-49B0-92C3-D60BB464318D";
paths = (
{
closed = 1;
nodes = (
"453 -106 OFFCURVE",
"572 40 OFFCURVE",
"572 264 CURVE SMOOTH",
"572 479 OFFCURVE",
"463 607 OFFCURVE",
"285 607 CURVE SMOOTH",
"135 607 OFFCURVE",
"37 516 OFFCURVE",
"37 370 CURVE SMOOTH",
"37 233 OFFCURVE",
"122 145 OFFCURVE",
"260 145 CURVE SMOOTH",
"345 145 OFFCURVE",
"408 178 OFFCURVE",
"444 238 CURVE",
"447 97 OFFCURVE",
"387 4 OFFCURVE",
"258 4 CURVE SMOOTH",
"205 4 OFFCURVE",
"149 20 OFFCURVE",
"107 48 CURVE",
"55 -51 LINE",
"113 -84 OFFCURVE",
"196 -106 OFFCURVE",
"267 -106 CURVE SMOOTH"
);
},
{
closed = 1;
nodes = (
"209 249 OFFCURVE",
"161 295 OFFCURVE",
"161 369 CURVE SMOOTH",
"161 448 OFFCURVE",
"213 494 OFFCURVE",
"292 494 CURVE SMOOTH",
"385 494 OFFCURVE",
"426 431 OFFCURVE",
"425 373 CURVE SMOOTH",
"426 305 OFFCURVE",
"375 249 OFFCURVE",
"287 249 CURVE SMOOTH"
);
}
);
width = 617;
}
);
},
{
glyphname = zero.dnom;
layers = (
{
layerId = "137514A2-B611-49B0-92C3-D60BB464318D";
paths = (
{
closed = 1;
nodes = (
"108 417 OFFCURVE",
"37 338 OFFCURVE",
"37 208 CURVE SMOOTH",
"37 77 OFFCURVE",
"108 -3 OFFCURVE",
"224 -3 CURVE SMOOTH",
"341 -3 OFFCURVE",
"412 77 OFFCURVE",
"412 208 CURVE SMOOTH",
"412 338 OFFCURVE",
"341 417 OFFCURVE",
"224 417 CURVE SMOOTH"
);
},
{
closed = 1;
nodes = (
"289 341 OFFCURVE",
"326 292 OFFCURVE",
"326 208 CURVE SMOOTH",
"326 123 OFFCURVE",
"289 74 OFFCURVE",
"224 74 CURVE SMOOTH",
"159 74 OFFCURVE",
"122 123 OFFCURVE",
"122 208 CURVE SMOOTH",
"122 292 OFFCURVE",
"159 341 OFFCURVE",
"224 341 CURVE SMOOTH"
);
}
);
width = 448;
}
);
},
{
glyphname = one.dnom;
layers = (
{
layerId = "137514A2-B611-49B0-92C3-D60BB464318D";
paths = (
{
closed = 1;
nodes = (
"191 415 LINE",
"15 415 LINE",
"15 338 LINE",
"97 338 LINE",
"97 0 LINE",
"191 0 LINE"
);
}
);
width = 265;
}
);
},
{
glyphname = two.dnom;
layers = (
{
layerId = "137514A2-B611-49B0-92C3-D60BB464318D";
paths = (
{
closed = 1;
nodes = (
"134 418 OFFCURVE",
"76 395 OFFCURVE",
"25 357 CURVE",
"62 288 LINE",
"99 320 OFFCURVE",
"143 340 OFFCURVE",
"179 340 CURVE",
"216 340 OFFCURVE",
"238 325 OFFCURVE",
"238 298 CURVE",
"238 277 OFFCURVE",
"219 248 OFFCURVE",
"192 221 CURVE SMOOTH",
"36 63 LINE",
"36 0 LINE",
"352 0 LINE",
"352 75 LINE",
"154 75 LINE",
"255 174 LINE SMOOTH",
"304 220 OFFCURVE",
"336 267 OFFCURVE",
"336 311 CURVE",
"336 376 OFFCURVE",
"277 418 OFFCURVE",
"193 418 CURVE"
);
}
);
width = 385;
}
);
},
{
glyphname = three.dnom;
layers = (
{
layerId = "137514A2-B611-49B0-92C3-D60BB464318D";
paths = (
{
closed = 1;
nodes = (
"191 245 LINE",
"306 358 LINE",
"306 413 LINE",
"30 413 LINE",
"30 343 LINE",
"199 343 LINE",
"91 237 LINE",
"91 185 LINE",
"156 185 LINE SMOOTH",
"205 185 OFFCURVE",
"234 166 OFFCURVE",
"234 129 CURVE SMOOTH",
"234 91 OFFCURVE",
"206 68 OFFCURVE",
"157 68 CURVE SMOOTH",
"118 68 OFFCURVE",
"80 85 OFFCURVE",
"48 117 CURVE",
"10 44 LINE",
"48 15 OFFCURVE",
"107 -4 OFFCURVE",
"164 -4 CURVE SMOOTH",
"263 -4 OFFCURVE",
"326 51 OFFCURVE",
"326 129 CURVE SMOOTH",
"326 194 OFFCURVE",
"279 234 OFFCURVE",
"213 242 CURVE SMOOTH"
);
}
);
width = 357;
}
);
},
{
glyphname = four.dnom;
layers = (
{
layerId = "137514A2-B611-49B0-92C3-D60BB464318D";
paths = (
{
closed = 1;
nodes = (
"257 415 LINE",
"167 415 LINE",
"26 159 LINE",
"26 94 LINE",
"231 94 LINE",
"231 0 LINE",
"319 0 LINE",
"319 94 LINE",
"379 94 LINE",
"379 163 LINE",
"319 163 LINE",
"319 260 LINE",
"231 260 LINE",
"231 163 LINE",
"121 163 LINE"
);
}
);
width = 399;
}
);
},
{
glyphname = five.dnom;
layers = (
{
layerId = "137514A2-B611-49B0-92C3-D60BB464318D";
paths = (
{
closed = 1;
nodes = (
"330 415 LINE",
"56 415 LINE",
"56 182 LINE",
"84 186 OFFCURVE",
"148 188 OFFCURVE",
"171 188 CURVE",
"220 188 OFFCURVE",
"248 168 OFFCURVE",
"248 132 CURVE",
"248 92 OFFCURVE",
"220 68 OFFCURVE",
"171 68 CURVE",
"133 68 OFFCURVE",
"92 86 OFFCURVE",
"59 120 CURVE",
"21 46 LINE",
"65 16 OFFCURVE",
"128 -4 OFFCURVE",
"182 -4 CURVE",
"283 -4 OFFCURVE",
"349 53 OFFCURVE",
"349 139 CURVE",
"349 212 OFFCURVE",
"286 259 OFFCURVE",
"189 259 CURVE",
"178 259 OFFCURVE",
"155 257 OFFCURVE",
"142 254 CURVE",
"142 340 LINE",
"330 340 LINE"
);
}
);
width = 379;
}
);
},
{
glyphname = six.dnom;
layers = (
{
layerId = "137514A2-B611-49B0-92C3-D60BB464318D";
paths = (
{
closed = 1;
nodes = (
"112 418 OFFCURVE",
"37 332 OFFCURVE",
"37 201 CURVE SMOOTH",
"37 73 OFFCURVE",
"106 -4 OFFCURVE",
"218 -4 CURVE SMOOTH",
"313 -4 OFFCURVE",
"375 51 OFFCURVE",
"375 137 CURVE SMOOTH",
"375 218 OFFCURVE",
"322 271 OFFCURVE",
"238 271 CURVE SMOOTH",
"183 271 OFFCURVE",
"144 248 OFFCURVE",
"128 213 CURVE",
"122 296 OFFCURVE",
"162 344 OFFCURVE",
"236 344 CURVE SMOOTH",
"270 344 OFFCURVE",
"303 335 OFFCURVE",
"329 317 CURVE",
"365 385 LINE",
"329 405 OFFCURVE",
"276 418 OFFCURVE",
"231 418 CURVE SMOOTH"
);
},
{
closed = 1;
nodes = (
"261 200 OFFCURVE",
"288 178 OFFCURVE",
"288 139 CURVE SMOOTH",
"288 96 OFFCURVE",
"259 73 OFFCURVE",
"214 73 CURVE SMOOTH",
"162 73 OFFCURVE",
"139 104 OFFCURVE",
"139 136 CURVE",
"139 173 OFFCURVE",
"167 200 OFFCURVE",
"216 200 CURVE SMOOTH"
);
}
);
width = 403;
}
);
},
{
glyphname = seven.dnom;
layers = (
{
layerId = "137514A2-B611-49B0-92C3-D60BB464318D";
paths = (
{
closed = 1;
nodes = (
"357 415 LINE",
"30 415 LINE",
"30 280 LINE",
"113 280 LINE",
"113 340 LINE",
"254 340 LINE",
"93 0 LINE",
"192 0 LINE",
"357 348 LINE"
);
}
);
width = 378;
}
);
},
{
glyphname = eight.dnom;
layers = (
{
layerId = "137514A2-B611-49B0-92C3-D60BB464318D";
paths = (
{
closed = 1;
nodes = (
"113 418 OFFCURVE",
"55 377 OFFCURVE",
"55 311 CURVE SMOOTH",
"55 274 OFFCURVE",
"79 241 OFFCURVE",
"118 222 CURVE",
"66 204 OFFCURVE",
"33 164 OFFCURVE",
"33 115 CURVE SMOOTH",
"33 42 OFFCURVE",
"99 -4 OFFCURVE",
"205 -4 CURVE SMOOTH",
"311 -4 OFFCURVE",
"377 42 OFFCURVE",
"377 117 CURVE SMOOTH",
"377 164 OFFCURVE",
"346 204 OFFCURVE",
"297 222 CURVE",
"333 240 OFFCURVE",
"355 271 OFFCURVE",
"355 308 CURVE SMOOTH",
"355 376 OFFCURVE",
"297 418 OFFCURVE",
"205 418 CURVE SMOOTH"
);
},
{
closed = 1;
nodes = (
"259 183 OFFCURVE",
"289 162 OFFCURVE",
"289 125 CURVE SMOOTH",
"289 87 OFFCURVE",
"258 66 OFFCURVE",
"205 66 CURVE SMOOTH",
"152 66 OFFCURVE",
"122 87 OFFCURVE",
"122 125 CURVE SMOOTH",
"122 162 OFFCURVE",
"152 183 OFFCURVE",
"205 183 CURVE SMOOTH"
);
},
{
closed = 1;
nodes = (
"250 355 OFFCURVE",
"276 336 OFFCURVE",
"276 303 CURVE SMOOTH",
"276 271 OFFCURVE",
"250 252 OFFCURVE",
"205 252 CURVE SMOOTH",
"160 252 OFFCURVE",
"134 271 OFFCURVE",
"134 303 CURVE SMOOTH",
"134 336 OFFCURVE",
"160 355 OFFCURVE",
"205 355 CURVE SMOOTH"
);
}
);
width = 410;
}
);
},
{
glyphname = nine.dnom;
layers = (
{
layerId = "137514A2-B611-49B0-92C3-D60BB464318D";
paths = (
{
closed = 1;
nodes = (
"294 -4 OFFCURVE",
"369 82 OFFCURVE",
"369 214 CURVE SMOOTH",
"369 341 OFFCURVE",
"301 418 OFFCURVE",
"188 418 CURVE SMOOTH",
"93 418 OFFCURVE",
"31 364 OFFCURVE",
"31 277 CURVE SMOOTH",
"31 196 OFFCURVE",
"85 143 OFFCURVE",
"168 143 CURVE SMOOTH",
"224 143 OFFCURVE",
"262 167 OFFCURVE",
"279 201 CURVE",
"284 117 OFFCURVE",
"245 71 OFFCURVE",
"170 71 CURVE SMOOTH",
"136 71 OFFCURVE",
"103 80 OFFCURVE",
"77 97 CURVE",
"41 29 LINE",
"78 9 OFFCURVE",
"129 -4 OFFCURVE",
"176 -4 CURVE SMOOTH"
);
},
{
closed = 1;
nodes = (
"144 214 OFFCURVE",
"118 237 OFFCURVE",
"118 276 CURVE SMOOTH",
"118 318 OFFCURVE",
"146 341 OFFCURVE",
"191 341 CURVE SMOOTH",
"244 341 OFFCURVE",
"266 310 OFFCURVE",
"266 278 CURVE",
"266 241 OFFCURVE",
"238 214 OFFCURVE",
"189 214 CURVE SMOOTH"
);
}
);
width = 406;
}
);
},
{
glyphname = zero.numr;
layers = (
{
layerId = "137514A2-B611-49B0-92C3-D60BB464318D";
paths = (
{
closed = 1;
nodes = (
"108 702 OFFCURVE",
"37 623 OFFCURVE",
"37 493 CURVE SMOOTH",
"37 362 OFFCURVE",
"108 283 OFFCURVE",
"224 283 CURVE SMOOTH",
"341 283 OFFCURVE",
"412 362 OFFCURVE",
"412 493 CURVE SMOOTH",
"412 623 OFFCURVE",
"341 702 OFFCURVE",
"224 702 CURVE SMOOTH"
);
},
{
closed = 1;
nodes = (
"289 627 OFFCURVE",
"326 577 OFFCURVE",
"326 493 CURVE SMOOTH",
"326 408 OFFCURVE",
"289 359 OFFCURVE",
"224 359 CURVE SMOOTH",
"159 359 OFFCURVE",
"122 408 OFFCURVE",
"122 493 CURVE SMOOTH",
"122 577 OFFCURVE",
"159 627 OFFCURVE",
"224 627 CURVE SMOOTH"
);
}
);
width = 448;
}
);
},
{
glyphname = one.numr;
layers = (
{
layerId = "137514A2-B611-49B0-92C3-D60BB464318D";
paths = (
{
closed = 1;
nodes = (
"191 700 LINE",
"15 700 LINE",
"15 623 LINE",
"97 623 LINE",
"97 285 LINE",
"191 285 LINE"
);
}
);
width = 265;
}
);
},
{
glyphname = two.numr;
layers = (
{
layerId = "137514A2-B611-49B0-92C3-D60BB464318D";
paths = (
{
closed = 1;
nodes = (
"134 704 OFFCURVE",
"76 681 OFFCURVE",
"25 642 CURVE",
"62 573 LINE",
"99 605 OFFCURVE",
"143 626 OFFCURVE",
"179 626 CURVE",
"216 626 OFFCURVE",
"238 610 OFFCURVE",
"238 583 CURVE",
"238 563 OFFCURVE",
"219 533 OFFCURVE",
"192 507 CURVE SMOOTH",
"36 348 LINE",
"36 285 LINE",
"352 285 LINE",
"352 360 LINE",
"154 360 LINE",
"255 460 LINE SMOOTH",
"304 506 OFFCURVE",
"336 553 OFFCURVE",
"336 597 CURVE",
"336 661 OFFCURVE",
"277 704 OFFCURVE",
"193 704 CURVE"
);
}
);
width = 385;
}
);
},
{
glyphname = three.numr;
layers = (
{
layerId = "137514A2-B611-49B0-92C3-D60BB464318D";
paths = (
{
closed = 1;
nodes = (
"191 531 LINE",
"306 644 LINE",
"306 699 LINE",
"30 699 LINE",
"30 628 LINE",
"199 628 LINE",
"91 522 LINE",
"91 471 LINE",
"156 471 LINE SMOOTH",
"205 471 OFFCURVE",
"234 451 OFFCURVE",
"234 414 CURVE SMOOTH",
"234 377 OFFCURVE",
"206 353 OFFCURVE",
"157 353 CURVE SMOOTH",
"118 353 OFFCURVE",
"80 370 OFFCURVE",
"48 403 CURVE",
"10 330 LINE",
"48 301 OFFCURVE",
"107 281 OFFCURVE",
"164 281 CURVE SMOOTH",
"263 281 OFFCURVE",
"326 337 OFFCURVE",
"326 415 CURVE SMOOTH",
"326 480 OFFCURVE",
"279 520 OFFCURVE",
"213 528 CURVE SMOOTH"
);
}
);
width = 357;
}
);
},
{
glyphname = four.numr;
layers = (
{
layerId = "137514A2-B611-49B0-92C3-D60BB464318D";
paths = (
{
closed = 1;
nodes = (
"257 700 LINE",
"167 700 LINE",
"26 445 LINE",
"26 379 LINE",
"231 379 LINE",
"231 285 LINE",
"319 285 LINE",
"319 379 LINE",
"379 379 LINE",
"379 449 LINE",
"319 449 LINE",
"319 546 LINE",
"231 546 LINE",
"231 449 LINE",
"121 449 LINE"
);
}
);
width = 399;
}
);
},
{
glyphname = five.numr;
layers = (
{
layerId = "137514A2-B611-49B0-92C3-D60BB464318D";
paths = (
{
closed = 1;
nodes = (
"330 700 LINE",
"56 700 LINE",
"56 467 LINE",
"84 472 OFFCURVE",
"148 474 OFFCURVE",
"171 474 CURVE",
"220 474 OFFCURVE",
"248 453 OFFCURVE",
"248 418 CURVE",
"248 377 OFFCURVE",
"220 354 OFFCURVE",
"171 354 CURVE",
"133 354 OFFCURVE",
"92 372 OFFCURVE",
"59 405 CURVE",
"21 332 LINE",
"65 302 OFFCURVE",
"128 282 OFFCURVE",
"182 282 CURVE",
"283 282 OFFCURVE",
"349 338 OFFCURVE",
"349 424 CURVE",
"349 498 OFFCURVE",
"286 545 OFFCURVE",
"189 545 CURVE",
"178 545 OFFCURVE",
"155 543 OFFCURVE",
"142 540 CURVE",
"142 626 LINE",
"330 626 LINE"
);
}
);
width = 379;
}
);
},
{
glyphname = six.numr;
layers = (
{
layerId = "137514A2-B611-49B0-92C3-D60BB464318D";
paths = (
{
closed = 1;
nodes = (
"112 704 OFFCURVE",
"37 617 OFFCURVE",
"37 486 CURVE SMOOTH",
"37 358 OFFCURVE",
"106 281 OFFCURVE",
"218 281 CURVE SMOOTH",
"313 281 OFFCURVE",
"375 336 OFFCURVE",
"375 423 CURVE SMOOTH",
"375 503 OFFCURVE",
"322 556 OFFCURVE",
"238 556 CURVE SMOOTH",
"183 556 OFFCURVE",
"144 533 OFFCURVE",
"128 499 CURVE",
"122 582 OFFCURVE",
"162 629 OFFCURVE",
"236 629 CURVE SMOOTH",
"270 629 OFFCURVE",
"303 620 OFFCURVE",
"329 603 CURVE",
"365 671 LINE",
"329 691 OFFCURVE",
"276 704 OFFCURVE",
"231 704 CURVE SMOOTH"
);
},
{
closed = 1;
nodes = (
"261 486 OFFCURVE",
"288 463 OFFCURVE",
"288 424 CURVE SMOOTH",
"288 382 OFFCURVE",
"259 359 OFFCURVE",
"214 359 CURVE SMOOTH",
"162 359 OFFCURVE",
"139 389 OFFCURVE",
"139 421 CURVE",
"139 458 OFFCURVE",
"167 486 OFFCURVE",
"216 486 CURVE SMOOTH"
);
}
);
width = 403;
}
);
},
{
glyphname = seven.numr;
layers = (
{
layerId = "137514A2-B611-49B0-92C3-D60BB464318D";
paths = (
{
closed = 1;
nodes = (
"357 700 LINE",
"30 700 LINE",
"30 565 LINE",
"113 565 LINE",
"113 626 LINE",
"254 626 LINE",
"93 285 LINE",
"192 285 LINE",
"357 633 LINE"
);
}
);
width = 378;
}
);
},
{
glyphname = eight.numr;
layers = (
{
layerId = "137514A2-B611-49B0-92C3-D60BB464318D";
paths = (
{
closed = 1;
nodes = (
"113 704 OFFCURVE",
"55 662 OFFCURVE",
"55 597 CURVE SMOOTH",
"55 559 OFFCURVE",
"79 526 OFFCURVE",
"118 507 CURVE",
"66 489 OFFCURVE",
"33 449 OFFCURVE",
"33 401 CURVE SMOOTH",
"33 328 OFFCURVE",
"99 281 OFFCURVE",
"205 281 CURVE SMOOTH",
"311 281 OFFCURVE",
"377 328 OFFCURVE",
"377 403 CURVE SMOOTH",
"377 450 OFFCURVE",
"346 489 OFFCURVE",
"297 507 CURVE",
"333 525 OFFCURVE",
"355 557 OFFCURVE",
"355 593 CURVE SMOOTH",
"355 661 OFFCURVE",
"297 704 OFFCURVE",
"205 704 CURVE SMOOTH"
);
},
{
closed = 1;
nodes = (
"259 468 OFFCURVE",
"289 447 OFFCURVE",
"289 410 CURVE SMOOTH",
"289 372 OFFCURVE",
"258 352 OFFCURVE",
"205 352 CURVE SMOOTH",
"152 352 OFFCURVE",
"122 372 OFFCURVE",
"122 411 CURVE SMOOTH",
"122 447 OFFCURVE",
"152 468 OFFCURVE",
"205 468 CURVE SMOOTH"
);
},
{
closed = 1;
nodes = (
"250 640 OFFCURVE",
"276 621 OFFCURVE",
"276 588 CURVE SMOOTH",
"276 556 OFFCURVE",
"250 538 OFFCURVE",
"205 538 CURVE SMOOTH",
"160 538 OFFCURVE",
"134 556 OFFCURVE",
"134 588 CURVE SMOOTH",
"134 621 OFFCURVE",
"160 640 OFFCURVE",
"205 640 CURVE SMOOTH"
);
}
);
width = 410;
}
);
},
{
glyphname = nine.numr;
layers = (
{
layerId = "137514A2-B611-49B0-92C3-D60BB464318D";
paths = (
{
closed = 1;
nodes = (
"294 281 OFFCURVE",
"369 368 OFFCURVE",
"369 499 CURVE SMOOTH",
"369 626 OFFCURVE",
"301 704 OFFCURVE",
"188 704 CURVE SMOOTH",
"93 704 OFFCURVE",
"31 649 OFFCURVE",
"31 563 CURVE SMOOTH",
"31 482 OFFCURVE",
"85 429 OFFCURVE",
"168 429 CURVE SMOOTH",
"224 429 OFFCURVE",
"262 452 OFFCURVE",
"279 486 CURVE",
"284 403 OFFCURVE",
"245 356 OFFCURVE",
"170 356 CURVE SMOOTH",
"136 356 OFFCURVE",
"103 365 OFFCURVE",
"77 382 CURVE",
"41 315 LINE",
"78 294 OFFCURVE",
"129 281 OFFCURVE",
"176 281 CURVE SMOOTH"
);
},
{
closed = 1;
nodes = (
"144 499 OFFCURVE",
"118 522 OFFCURVE",
"118 562 CURVE SMOOTH",
"118 603 OFFCURVE",
"146 627 OFFCURVE",
"191 627 CURVE SMOOTH",
"244 627 OFFCURVE",
"266 596 OFFCURVE",
"266 563 CURVE",
"266 527 OFFCURVE",
"238 499 OFFCURVE",
"189 499 CURVE SMOOTH"
);
}
);
width = 406;
}
);
},
{
glyphname = onesuperior;
layers = (
{
layerId = "137514A2-B611-49B0-92C3-D60BB464318D";
paths = (
{
closed = 1;
nodes = (
"191 700 LINE",
"15 700 LINE",
"15 623 LINE",
"97 623 LINE",
"97 285 LINE",
"191 285 LINE"
);
}
);
width = 265;
}
);
unicode = 00B9;
},
{
glyphname = twosuperior;
layers = (
{
layerId = "137514A2-B611-49B0-92C3-D60BB464318D";
paths = (
{
closed = 1;
nodes = (
"134 704 OFFCURVE",
"76 681 OFFCURVE",
"25 642 CURVE",
"62 573 LINE",
"99 605 OFFCURVE",
"143 626 OFFCURVE",
"179 626 CURVE",
"216 626 OFFCURVE",
"238 610 OFFCURVE",
"238 583 CURVE",
"238 563 OFFCURVE",
"219 533 OFFCURVE",
"192 507 CURVE SMOOTH",
"36 348 LINE",
"36 285 LINE",
"352 285 LINE",
"352 360 LINE",
"154 360 LINE",
"255 460 LINE SMOOTH",
"304 506 OFFCURVE",
"336 553 OFFCURVE",
"336 597 CURVE",
"336 661 OFFCURVE",
"277 704 OFFCURVE",
"193 704 CURVE"
);
}
);
width = 385;
}
);
unicode = 00B2;
},
{
glyphname = threesuperior;
layers = (
{
layerId = "137514A2-B611-49B0-92C3-D60BB464318D";
paths = (
{
closed = 1;
nodes = (
"191 531 LINE",
"306 644 LINE",
"306 699 LINE",
"30 699 LINE",
"30 628 LINE",
"199 628 LINE",
"91 522 LINE",
"91 471 LINE",
"156 471 LINE SMOOTH",
"205 471 OFFCURVE",
"234 451 OFFCURVE",
"234 414 CURVE SMOOTH",
"234 377 OFFCURVE",
"206 353 OFFCURVE",
"157 353 CURVE SMOOTH",
"118 353 OFFCURVE",
"80 370 OFFCURVE",
"48 403 CURVE",
"10 330 LINE",
"48 301 OFFCURVE",
"107 281 OFFCURVE",
"164 281 CURVE SMOOTH",
"263 281 OFFCURVE",
"326 337 OFFCURVE",
"326 415 CURVE SMOOTH",
"326 480 OFFCURVE",
"279 520 OFFCURVE",
"213 528 CURVE SMOOTH"
);
}
);
width = 357;
}
);
unicode = 00B3;
},
{
glyphname = fraction;
layers = (
{
layerId = "137514A2-B611-49B0-92C3-D60BB464318D";
paths = (
{
closed = 1;
nodes = (
"358 700 LINE",
"234 700 LINE",
"-277 0 LINE",
"-152 0 LINE"
);
}
);
width = 90;
}
);
unicode = 2044;
},
{
glyphname = "zero-gurmukhi";
layers = (
{
layerId = "137514A2-B611-49B0-92C3-D60BB464318D";
paths = (
{
closed = 1;
nodes = (
"578 43 OFFCURVE",
"695 181 OFFCURVE",
"695 342 CURVE SMOOTH",
"695 505 OFFCURVE",
"574 648 OFFCURVE",
"373 648 CURVE SMOOTH",
"174 648 OFFCURVE",
"58 510 OFFCURVE",
"58 350 CURVE SMOOTH",
"58 186 OFFCURVE",
"179 43 OFFCURVE",
"382 43 CURVE SMOOTH"
);
},
{
closed = 1;
nodes = (
"271 154 OFFCURVE",
"187 225 OFFCURVE",
"187 342 CURVE SMOOTH",
"187 461 OFFCURVE",
"274 536 OFFCURVE",
"380 536 CURVE SMOOTH",
"482 536 OFFCURVE",
"565 465 OFFCURVE",
"565 347 CURVE SMOOTH",
"565 227 OFFCURVE",
"479 154 OFFCURVE",
"374 154 CURVE SMOOTH"
);
}
);
width = 753;
}
);
unicode = 0A66;
},
{
glyphname = "one-gurmukhi";
layers = (
{
layerId = "137514A2-B611-49B0-92C3-D60BB464318D";
paths = (
{
closed = 1;
nodes = (
"562 0 LINE",
"562 402 LINE SMOOTH",
"562 590 OFFCURVE",
"442 702 OFFCURVE",
"281 702 CURVE SMOOTH",
"152 702 OFFCURVE",
"48 624 OFFCURVE",
"48 484 CURVE SMOOTH",
"48 341 OFFCURVE",
"167 250 OFFCURVE",
"297 250 CURVE SMOOTH",
"359 250 OFFCURVE",
"416 266 OFFCURVE",
"461 307 CURVE",
"438 326 LINE",
"438 0 LINE"
);
},
{
closed = 1;
nodes = (
"222 361 OFFCURVE",
"168 405 OFFCURVE",
"168 473 CURVE SMOOTH",
"168 543 OFFCURVE",
"223 589 OFFCURVE",
"297 589 CURVE SMOOTH",
"386 589 OFFCURVE",
"449 529 OFFCURVE",
"444 410 CURVE",
"451 483 LINE",
"437 404 OFFCURVE",
"369 361 OFFCURVE",
"295 361 CURVE SMOOTH"
);
}
);
width = 641;
}
);
unicode = 0A67;
},
{
glyphname = "two-gurmukhi";
layers = (
{
layerId = "137514A2-B611-49B0-92C3-D60BB464318D";
paths = (
{
closed = 1;
nodes = (
"577 8 LINE",
"577 103 OFFCURVE",
"523 221 OFFCURVE",
"406 281 CURVE",
"409 248 LINE",
"509 290 OFFCURVE",
"560 367 OFFCURVE",
"560 460 CURVE SMOOTH",
"560 615 OFFCURVE",
"427 704 OFFCURVE",
"263 704 CURVE SMOOTH",
"182 704 OFFCURVE",
"104 683 OFFCURVE",
"45 640 CURVE",
"95 542 LINE",
"147 570 OFFCURVE",
"215 589 OFFCURVE",
"280 589 CURVE SMOOTH",
"376 589 OFFCURVE",
"441 542 OFFCURVE",
"441 463 CURVE SMOOTH",
"441 391 OFFCURVE",
"386 331 OFFCURVE",
"272 323 CURVE",
"341 320 LINE",
"299 338 OFFCURVE",
"247 346 OFFCURVE",
"197 346 CURVE SMOOTH",
"160 346 OFFCURVE",
"119 340 OFFCURVE",
"81 327 CURVE",
"88 218 LINE",
"123 209 OFFCURVE",
"162 204 OFFCURVE",
"206 204 CURVE SMOOTH",
"255 204 OFFCURVE",
"312 210 OFFCURVE",
"359 223 CURVE",
"296 226 LINE",
"416 208 OFFCURVE",
"449 98 OFFCURVE",
"449 12 CURVE",
"449 1 LINE",
"577 0 LINE"
);
}
);
width = 628;
}
);
unicode = 0A68;
},
{
glyphname = "three-gurmukhi";
layers = (
{
layerId = "137514A2-B611-49B0-92C3-D60BB464318D";
paths = (
{
closed = 1;
nodes = (
"289 -119 LINE",
"303 15 LINE",
"259 -6 LINE",
"274 -10 OFFCURVE",
"290 -11 OFFCURVE",
"303 -11 CURVE SMOOTH",
"480 -11 OFFCURVE",
"579 77 OFFCURVE",
"579 182 CURVE SMOOTH",
"579 261 OFFCURVE",
"523 331 OFFCURVE",
"404 358 CURVE",
"410 337 LINE",
"521 363 OFFCURVE",
"573 422 OFFCURVE",
"573 499 CURVE SMOOTH",
"573 632 OFFCURVE",
"437 703 OFFCURVE",
"285 703 CURVE SMOOTH",
"202 703 OFFCURVE",
"118 682 OFFCURVE",
"60 640 CURVE",
"110 542 LINE",
"157 570 OFFCURVE",
"228 589 OFFCURVE",
"298 589 CURVE SMOOTH",
"385 589 OFFCURVE",
"448 561 OFFCURVE",
"448 500 CURVE SMOOTH",
"448 452 OFFCURVE",
"408 405 OFFCURVE",
"276 407 CURVE",
"359 400 LINE",
"313 418 OFFCURVE",
"261 423 OFFCURVE",
"213 423 CURVE SMOOTH",
"184 423 OFFCURVE",
"153 420 OFFCURVE",
"123 414 CURVE",
"130 305 LINE",
"163 296 OFFCURVE",
"199 291 OFFCURVE",
"238 291 CURVE SMOOTH",
"283 291 OFFCURVE",
"335 298 OFFCURVE",
"376 309 CURVE",
"305 308 LINE",
"415 308 OFFCURVE",
"453 255 OFFCURVE",
"453 203 CURVE SMOOTH",
"453 128 OFFCURVE",
"379 93 OFFCURVE",
"289 93 CURVE SMOOTH",
"272 93 OFFCURVE",
"257 95 OFFCURVE",
"241 97 CURVE",
"290 76 LINE",
"251 135 OFFCURVE",
"175 158 OFFCURVE",
"93 167 CURVE",
"61 75 LINE",
"89 45 OFFCURVE",
"130 21 OFFCURVE",
"173 6 CURVE",
"161 -105 LINE",
"161 -119 LINE"
);
}
);
width = 641;
}
);
unicode = 0A69;
},
{
glyphname = "four-gurmukhi";
layers = (
{
layerId = "137514A2-B611-49B0-92C3-D60BB464318D";
paths = (
{
closed = 1;
nodes = (
"512 -6 OFFCURVE",
"615 68 OFFCURVE",
"615 174 CURVE SMOOTH",
"615 242 OFFCURVE",
"562 297 OFFCURVE",
"473 326 CURVE",
"474 300 LINE",
"570 331 OFFCURVE",
"634 397 OFFCURVE",
"634 495 CURVE SMOOTH",
"634 605 OFFCURVE",
"535 682 OFFCURVE",
"412 699 CURVE",
"400 587 LINE",
"463 577 OFFCURVE",
"504 543 OFFCURVE",
"504 493 CURVE SMOOTH",
"504 428 OFFCURVE",
"437 389 OFFCURVE",
"347 389 CURVE SMOOTH",
"257 389 OFFCURVE",
"189 428 OFFCURVE",
"189 492 CURVE SMOOTH",
"189 543 OFFCURVE",
"232 577 OFFCURVE",
"295 587 CURVE",
"283 699 LINE",
"154 684 OFFCURVE",
"59 609 OFFCURVE",
"59 501 CURVE SMOOTH",
"59 417 OFFCURVE",
"124 358 OFFCURVE",
"222 332 CURVE",
"214 357 LINE",
"133 326 OFFCURVE",
"79 268 OFFCURVE",
"79 182 CURVE SMOOTH",
"79 71 OFFCURVE",
"183 -6 OFFCURVE",
"349 -6 CURVE SMOOTH"
);
},
{
closed = 1;
nodes = (
"254 90 OFFCURVE",
"206 137 OFFCURVE",
"206 190 CURVE SMOOTH",
"206 242 OFFCURVE",
"256 290 OFFCURVE",
"347 290 CURVE SMOOTH",
"437 290 OFFCURVE",
"488 244 OFFCURVE",
"488 192 CURVE SMOOTH",
"488 139 OFFCURVE",
"437 90 OFFCURVE",
"344 90 CURVE SMOOTH"
);
}
);
width = 693;
}
);
unicode = 0A6A;
},
{
glyphname = "five-gurmukhi";
layers = (
{
layerId = "137514A2-B611-49B0-92C3-D60BB464318D";
paths = (
{
closed = 1;
nodes = (
"394 107 OFFCURVE",
"475 124 OFFCURVE",
"526 157 CURVE",
"501 310 LINE",
"457 239 OFFCURVE",
"381 218 OFFCURVE",
"319 218 CURVE SMOOTH",
"195 218 OFFCURVE",
"164 284 OFFCURVE",
"157 320 CURVE",
"139 256 LINE",
"224 311 OFFCURVE",
"256 394 OFFCURVE",
"256 486 CURVE SMOOTH",
"256 553 OFFCURVE",
"240 626 OFFCURVE",
"218 689 CURVE",
"98 687 LINE",
"99 673 LINE",
"119 625 OFFCURVE",
"132 568 OFFCURVE",
"132 515 CURVE SMOOTH",
"132 441 OFFCURVE",
"106 373 OFFCURVE",
"42 327 CURVE",
"68 187 OFFCURVE",
"181 107 OFFCURVE",
"328 107 CURVE SMOOTH"
);
},
{
closed = 1;
nodes = (
"618 0 LINE",
"618 689 LINE",
"489 689 LINE",
"489 0 LINE"
);
}
);
width = 696;
}
);
unicode = 0A6B;
},
{
glyphname = "six-gurmukhi";
layers = (
{
layerId = "137514A2-B611-49B0-92C3-D60BB464318D";
paths = (
{
closed = 1;
nodes = (
"430 -12 OFFCURVE",
"505 3 OFFCURVE",
"558 31 CURVE",
"530 135 LINE",
"480 116 OFFCURVE",
"408 100 OFFCURVE",
"343 100 CURVE SMOOTH",
"251 100 OFFCURVE",
"177 131 OFFCURVE",
"177 198 CURVE SMOOTH",
"177 252 OFFCURVE",
"227 304 OFFCURVE",
"384 298 CURVE",
"298 305 LINE",
"334 294 OFFCURVE",
"374 290 OFFCURVE",
"407 290 CURVE SMOOTH",
"441 290 OFFCURVE",
"472 294 OFFCURVE",
"502 301 CURVE",
"509 409 LINE",
"472 419 OFFCURVE",
"430 422 OFFCURVE",
"394 422 CURVE SMOOTH",
"340 422 OFFCURVE",
"287 416 OFFCURVE",
"247 402 CURVE",
"313 398 LINE",
"217 407 OFFCURVE",
"186 450 OFFCURVE",
"186 494 CURVE SMOOTH",
"186 561 OFFCURVE",
"252 592 OFFCURVE",
"343 592 CURVE SMOOTH",
"359 592 OFFCURVE",
"372 590 OFFCURVE",
"386 589 CURVE",
"332 607 LINE",
"367 575 OFFCURVE",
"415 557 OFFCURVE",
"467 554 CURVE SMOOTH",
"488 554 OFFCURVE",
"509 555 OFFCURVE",
"529 560 CURVE",
"549 656 LINE",
"496 680 OFFCURVE",
"429 699 OFFCURVE",
"360 702 CURVE",
"410 682 LINE",
"391 692 OFFCURVE",
"378 716 OFFCURVE",
"378 744 CURVE SMOOTH",
"378 799 OFFCURVE",
"420 825 OFFCURVE",
"463 825 CURVE SMOOTH",
"479 825 OFFCURVE",
"496 822 OFFCURVE",
"511 814 CURVE",
"554 900 LINE",
"527 921 OFFCURVE",
"494 929 OFFCURVE",
"458 929 CURVE SMOOTH",
"365 929 OFFCURVE",
"275 872 OFFCURVE",
"275 747 CURVE SMOOTH",
"275 721 OFFCURVE",
"280 696 OFFCURVE",
"293 671 CURVE",
"320 699 LINE",
"309 700 OFFCURVE",
"298 700 OFFCURVE",
"286 700 CURVE SMOOTH",
"142 685 OFFCURVE",
"64 605 OFFCURVE",
"64 516 CURVE SMOOTH",
"64 450 OFFCURVE",
"109 378 OFFCURVE",
"221 341 CURVE",
"221 370 LINE",
"109 344 OFFCURVE",
"59 277 OFFCURVE",
"59 201 CURVE SMOOTH",
"59 65 OFFCURVE",
"212 -12 OFFCURVE",
"364 -12 CURVE SMOOTH"
);
}
);
width = 620;
}
);
unicode = 0A6C;
},
{
glyphname = "seven-gurmukhi";
layers = (
{
layerId = "137514A2-B611-49B0-92C3-D60BB464318D";
paths = (
{
closed = 1;
nodes = (
"205 702 OFFCURVE",
"122 600 OFFCURVE",
"122 489 CURVE SMOOTH",
"122 440 OFFCURVE",
"139 392 OFFCURVE",
"169 352 CURVE",
"277 400 LINE",
"261 418 OFFCURVE",
"249 455 OFFCURVE",
"249 484 CURVE SMOOTH",
"249 536 OFFCURVE",
"290 587 OFFCURVE",
"364 587 CURVE SMOOTH",
"463 587 OFFCURVE",
"510 492 OFFCURVE",
"510 373 CURVE SMOOTH",
"510 192 OFFCURVE",
"400 101 OFFCURVE",
"241 101 CURVE SMOOTH",
"184 101 OFFCURVE",
"124 113 OFFCURVE",
"65 136 CURVE",
"38 32 LINE",
"101 5 OFFCURVE",
"177 -11 OFFCURVE",
"254 -11 CURVE SMOOTH",
"466 -11 OFFCURVE",
"633 106 OFFCURVE",
"633 365 CURVE SMOOTH",
"633 558 OFFCURVE",
"533 702 OFFCURVE",
"357 702 CURVE SMOOTH"
);
}
);
width = 686;
}
);
unicode = 0A6D;
},
{
glyphname = "eight-gurmukhi";
layers = (
{
layerId = "137514A2-B611-49B0-92C3-D60BB464318D";
paths = (
{
closed = 1;
nodes = (
"561 -11 OFFCURVE",
"624 5 OFFCURVE",
"669 29 CURVE",
"642 133 LINE",
"591 115 OFFCURVE",
"536 101 OFFCURVE",
"480 101 CURVE SMOOTH",
"367 101 OFFCURVE",
"286 151 OFFCURVE",
"286 261 CURVE SMOOTH",
"286 458 LINE",
"647 458 LINE",
"647 568 LINE",
"263 568 LINE",
"224 609 OFFCURVE",
"148 626 OFFCURVE",
"72 633 CURVE",
"33 542 LINE",
"68 502 OFFCURVE",
"115 477 OFFCURVE",
"165 466 CURVE",
"165 274 LINE SMOOTH",
"165 104 OFFCURVE",
"310 -11 OFFCURVE",
"490 -11 CURVE SMOOTH"
);
}
);
width = 728;
}
);
unicode = 0A6E;
},
{
glyphname = "nine-gurmukhi";
layers = (
{
components = (
{
name = "eight-gurmukhi";
}
);
layerId = "137514A2-B611-49B0-92C3-D60BB464318D";
paths = (
{
closed = 1;
nodes = (
"635 447 OFFCURVE",
"662 452 OFFCURVE",
"685 460 CURVE",
"646 568 LINE",
"633 562 OFFCURVE",
"617 560 OFFCURVE",
"602 560 CURVE SMOOTH",
"557 560 OFFCURVE",
"514 587 OFFCURVE",
"514 646 CURVE SMOOTH",
"514 702 OFFCURVE",
"556 728 OFFCURVE",
"599 728 CURVE SMOOTH",
"615 728 OFFCURVE",
"632 725 OFFCURVE",
"647 718 CURVE",
"690 803 LINE",
"663 824 OFFCURVE",
"629 832 OFFCURVE",
"595 832 CURVE SMOOTH",
"500 832 OFFCURVE",
"411 774 OFFCURVE",
"411 648 CURVE SMOOTH",
"411 511 OFFCURVE",
"512 447 OFFCURVE",
"608 447 CURVE SMOOTH"
);
}
);
width = 743;
}
);
leftMetricsKey = "eight-gurmukhi";
unicode = 0A6F;
},
{
glyphname = asterisk;
layers = (
{
layerId = "137514A2-B611-49B0-92C3-D60BB464318D";
paths = (
{
closed = 1;
nodes = (
"331 511 LINE",
"241 561 LINE",
"331 609 LINE",
"297 671 LINE",
"210 620 LINE",
"212 720 LINE",
"144 720 LINE",
"144 620 LINE",
"57 672 LINE",
"24 609 LINE",
"112 561 LINE",
"24 511 LINE",
"57 449 LINE",
"145 501 LINE",
"144 401 LINE",
"212 401 LINE",
"209 500 LINE",
"297 449 LINE"
);
}
);
width = 356;
}
);
unicode = 002A;
},
{
glyphname = bullet;
layers = (
{
layerId = "137514A2-B611-49B0-92C3-D60BB464318D";
paths = (
{
closed = 1;
nodes = (
"87 383 OFFCURVE",
"44 339 OFFCURVE",
"44 278 CURVE SMOOTH",
"44 216 OFFCURVE",
"87 172 OFFCURVE",
"145 172 CURVE SMOOTH",
"203 172 OFFCURVE",
"246 216 OFFCURVE",
"246 278 CURVE SMOOTH",
"246 339 OFFCURVE",
"203 383 OFFCURVE",
"145 383 CURVE SMOOTH"
);
}
);
width = 288;
}
);
leftMetricsKey = period;
rightMetricsKey = period;
unicode = 2022;
},
{
glyphname = comma;
layers = (
{
layerId = "137514A2-B611-49B0-92C3-D60BB464318D";
paths = (
{
closed = 1;
nodes = (
"34 -87 LINE",
"99 -87 LINE",
"160 6 LINE SMOOTH",
"172 23 OFFCURVE",
"180 41 OFFCURVE",
"180 63 CURVE SMOOTH",
"180 108 OFFCURVE",
"148 133 OFFCURVE",
"113 133 CURVE SMOOTH",
"74 133 OFFCURVE",
"45 104 OFFCURVE",
"45 63 CURVE SMOOTH",
"45 25 OFFCURVE",
"70 -8 OFFCURVE",
"127 -7 CURVE",
"94 57 LINE"
);
}
);
width = 221;
}
);
unicode = 002C;
},
{
glyphname = exclam;
layers = (
{
components = (
{
name = period;
transform = "{1, 0, 0, 1, 10, 0}";
}
);
layerId = "137514A2-B611-49B0-92C3-D60BB464318D";
paths = (
{
closed = 1;
nodes = (
"61 693 LINE",
"61 518 LINE",
"83 229 LINE",
"164 229 LINE",
"185 518 LINE",
"185 693 LINE"
);
}
);
width = 247;
}
);
unicode = 0021;
},
